<?xml version="1.0" encoding="UTF-8"?>
<!-- Generator: Adobe Illustrator 21.0.0, SVG Export Plug-In . SVG Version: 6.00 Build 0) -->
<svg xmlns="http://www.w3.org/2000/svg" xmlns:xlink="http://www.w3.org/1999/xlink" id="Layer_1" x="0px" y="0px" viewBox="0 0 400 250" style="enable-background:new 0 0 400 250;" xml:space="preserve"> <style type="text/css"> .st0{filter:url(#Adobe_OpacityMaskFilter);} .st1{filter:url(#Adobe_OpacityMaskFilter_1_);} .st2{mask:url(#SVGID_1_);fill:url(#SVGID_2_);} .st3{fill:url(#SVGID_3_);} .st4{fill:url(#SVGID_4_);} .st5{fill:url(#SVGID_5_);} .st6{fill:url(#SVGID_6_);} .st7{fill:url(#SVGID_7_);} .st8{fill:url(#SVGID_8_);} .st9{fill:#587AA3;} .st10{fill:#4F6D91;} .st11{opacity:0.98;fill:#A3CDFF;} .st12{opacity:0.73;fill:#6BB0FF;} .st13{fill:url(#SVGID_9_);} .st14{fill:url(#SVGID_10_);} .st15{fill:url(#SVGID_11_);} .st16{fill:url(#SVGID_12_);} .st17{fill:#3788CC;} .st18{fill:#4AAFFF;} .st19{fill:#D8E7FF;} .st20{filter:url(#Adobe_OpacityMaskFilter_2_);} .st21{filter:url(#Adobe_OpacityMaskFilter_3_);} .st22{mask:url(#SVGID_13_);fill:url(#SVGID_14_);} .st23{fill:url(#SVGID_15_);} .st24{fill:#D6985E;} .st25{fill:#EEA886;} .st26{fill:#528A35;} .st27{fill:#202338;} .st28{fill:#292C47;} .st29{fill:#3D416B;} .st30{fill:#CFBEB6;} .st31{fill:#754836;} .st32{fill:#A77860;} .st33{fill:#C98462;} .st34{fill:#DE9D7D;} .st35{fill:#EDDAD3;} .st36{fill:#323657;} .st37{fill:#61A23E;} .st38{fill:#375C23;} .st39{fill:#424240;} .st40{fill:#807066;} .st41{fill:#6E6760;} .st42{fill:#918880;} .st43{fill:#BC8551;} .st44{fill:#757D28;} .st45{fill:#5C9E33;} .st46{fill:#4D8B33;} .st47{fill:#B1C265;} .st48{fill:#92A05B;} .st49{fill:#C7CA7F;} .st50{fill:#518330;} .st51{fill:#6C9F44;} .st52{fill:#4A8A33;} .st53{fill:#689C2F;} .st54{fill:#478B33;} .st55{fill:#5C9B3B;} .st56{fill:#31535F;} .st57{fill:#27434C;} .st58{filter:url(#Adobe_OpacityMaskFilter_4_);} .st59{filter:url(#Adobe_OpacityMaskFilter_5_);} .st60{mask:url(#SVGID_16_);fill:url(#SVGID_17_);} .st61{fill:url(#SVGID_18_);} .st62{filter:url(#Adobe_OpacityMaskFilter_6_);} .st63{filter:url(#Adobe_OpacityMaskFilter_7_);} .st64{mask:url(#SVGID_19_);fill:url(#SVGID_20_);} .st65{fill:url(#SVGID_21_);} .st66{filter:url(#Adobe_OpacityMaskFilter_8_);} .st67{filter:url(#Adobe_OpacityMaskFilter_9_);} .st68{mask:url(#SVGID_22_);fill:url(#SVGID_23_);} .st69{fill:url(#SVGID_24_);} .st70{fill:#FFFFFF;} .st71{fill:#D6D6D6;} .st72{fill:#E8E8E8;} .st73{fill:#C2C2C2;} .st74{fill:url(#SVGID_25_);} .st75{fill:url(#SVGID_26_);} .st76{fill:#1A598C;} .st77{fill:#2273B5;} .st78{fill:url(#SVGID_27_);} .st79{fill:url(#SVGID_28_);} .st80{fill:url(#SVGID_29_);} .st81{fill:url(#SVGID_30_);} .st82{fill:url(#SVGID_31_);} .st83{fill:#353A3D;} .st84{fill:#81807E;} .st85{fill:#2D3133;} .st86{fill:#DECBC4;} .st87{fill:#495055;} .st88{fill:#252E3B;} .st89{fill:#3C4145;} .st90{fill:#B3A5A0;} .st91{fill:#51565C;} .st92{fill:#F5E2D9;} .st93{fill:#4754CC;} .st94{fill:#AD9F99;} .st95{fill:#69737A;} </style> <g> <defs> <filter id="Adobe_OpacityMaskFilter" x="2.7" y="76" width="394.6" height="161.8"> <feFlood style="flood-color:white;flood-opacity:1" result="back"/> <feBlend in="SourceGraphic" in2="back" mode="normal"/> </filter> </defs> <mask maskUnits="userSpaceOnUse" x="2.7" y="76" width="394.6" height="161.8" id="SVGID_1_"> <g class="st0"> <defs> <filter id="Adobe_OpacityMaskFilter_1_" x="2.7" y="76" width="394.6" height="161.8"> <feFlood style="flood-color:white;flood-opacity:1" result="back"/> <feBlend in="SourceGraphic" in2="back" mode="normal"/> </filter> </defs> <mask maskUnits="userSpaceOnUse" x="2.7" y="76" width="394.6" height="161.8" id="SVGID_1_"> <g class="st1"> </g> </mask> <linearGradient id="SVGID_2_" gradientUnits="userSpaceOnUse" x1="200" y1="-20.4066" x2="200" y2="186.639"> <stop offset="0" style="stop-color:#FFFFFF"/> <stop offset="1" style="stop-color:#000000"/> </linearGradient> <polygon class="st2" points="397.3,118.6 397.3,237.8 2.7,237.8 2.7,106.9 17.7,106.9 17.7,130.5 42,130.5 42,100.9 61.2,100.9 61.2,113.4 71.2,113.4 79.9,104.7 89.7,104.7 89.7,76 117.3,76 117.3,118.6 145.4,118.6 145.4,128.9 156.3,128.9 156.3,113.4 197.9,113.4 197.9,130.5 213.8,130.5 213.8,106.9 238,106.9 238,142.1 239.5,142.1 239.5,94.7 260.8,94.7 260.8,106.9 279,106.9 279,130.5 303.3,130.5 303.3,100.9 322.5,100.9 322.5,113.4 332.5,113.4 341.2,104.7 351,104.7 351,76 378.5,76 378.5,118.6 "/> </g> </mask> <linearGradient id="SVGID_3_" gradientUnits="userSpaceOnUse" x1="200" y1="-20.4066" x2="200" y2="186.639"> <stop offset="0" style="stop-color:#7DCDFF"/> <stop offset="1" style="stop-color:#FFFFFF"/> </linearGradient> <polygon class="st3" points="397.3,118.6 397.3,237.8 2.7,237.8 2.7,106.9 17.7,106.9 17.7,130.5 42,130.5 42,100.9 61.2,100.9 61.2,113.4 71.2,113.4 79.9,104.7 89.7,104.7 89.7,76 117.3,76 117.3,118.6 145.4,118.6 145.4,128.9 156.3,128.9 156.3,113.4 197.9,113.4 197.9,130.5 213.8,130.5 213.8,106.9 238,106.9 238,142.1 239.5,142.1 239.5,94.7 260.8,94.7 260.8,106.9 279,106.9 279,130.5 303.3,130.5 303.3,100.9 322.5,100.9 322.5,113.4 332.5,113.4 341.2,104.7 351,104.7 351,76 378.5,76 378.5,118.6 "/> <g> <linearGradient id="SVGID_4_" gradientUnits="userSpaceOnUse" x1="-3111.5156" y1="375.4044" x2="-3096.5154" y2="440.4063" gradientTransform="matrix(0.8811 -0.473 0.473 0.8811 2625.8992 -1758.4406)"> <stop offset="0" style="stop-color:#FFFFFF"/> <stop offset="1" style="stop-color:#F0F0E3"/> </linearGradient> <path class="st4" d="M111.2,45.6c-6.7-3.7-15.2-5-23.9-3.5c-4.6,0.8-9.2,2.4-13.6,4.8c-4.4,2.4-8.3,5.4-11.5,8.7 C56,62,52.4,69.8,51.7,77.5c-0.4,5.1,0.5,10.1,3,14.7c1.7,3.3,4.1,6,7,8.2c6.6,5.2,15.8,7.4,25.4,6.2c5.3-0.6,10.7-2.3,15.8-5.1 c5.2-2.8,9.5-6.3,13-10.4c6.3-7.3,9.5-16.2,8.9-24.6c-0.3-3.6-1.2-7.1-3-10.3C119.3,51.6,115.6,48,111.2,45.6z M104.2,83.4 c-2,2.4-4.6,4.6-7.7,6.2c-3.1,1.7-6.3,2.6-9.4,2.9c-5.6,0.6-11-0.9-14.7-4.1c-1.3-1.1-2.4-2.5-3.2-4.1c-1.5-2.9-2-6.1-1.6-9.3 c0.6-4.2,2.7-8.4,6.1-11.8c1.7-1.8,3.8-3.3,6.2-4.6c2.4-1.3,4.8-2.1,7.3-2.6c4.7-0.9,9.4-0.4,13.2,1.4c2.9,1.4,5.3,3.6,6.9,6.5 c0.8,1.6,1.4,3.2,1.6,5C109.6,73.8,107.8,79,104.2,83.4z"/> <linearGradient id="SVGID_5_" gradientUnits="userSpaceOnUse" x1="-3117.647" y1="376.8174" x2="-3102.6462" y2="441.8213" gradientTransform="matrix(0.8811 -0.473 0.473 0.8811 2625.8992 -1758.4406)"> <stop offset="0" style="stop-color:#5369E5"/> <stop offset="1" style="stop-color:#4E74D6"/> </linearGradient> <path class="st5" d="M115.9,91.1c-3.5,4-7.8,7.6-13,10.4c-5.2,2.8-10.5,4.4-15.8,5.1l0-13.9c3.1-0.3,6.4-1.3,9.4-2.9 c3.1-1.7,5.7-3.8,7.7-6.2L115.9,91.1z"/> <linearGradient id="SVGID_6_" gradientUnits="userSpaceOnUse" x1="97.5675" y1="35.3564" x2="126.273" y2="80.7295"> <stop offset="0" style="stop-color:#5369E5"/> <stop offset="1" style="stop-color:#4E74D6"/> </linearGradient> <path class="st6" d="M121.8,56.1c1.7,3.3,2.7,6.8,3,10.3l-15.9,2.4c-0.2-1.7-0.8-3.4-1.6-5c-1.5-2.9-3.9-5.1-6.9-6.5l10.8-11.9 C115.6,48,119.3,51.6,121.8,56.1z"/> <linearGradient id="SVGID_7_" gradientUnits="userSpaceOnUse" x1="49.7511" y1="65.6076" x2="78.4566" y2="110.981"> <stop offset="0" style="stop-color:#5369E5"/> <stop offset="1" style="stop-color:#4E74D6"/> </linearGradient> <path class="st7" d="M69.2,84.4c0.8,1.6,1.9,2.9,3.2,4.1l-10.8,11.9c-2.8-2.2-5.2-5-7-8.2c-2.4-4.6-3.4-9.6-3-14.7l15.9-2.4 C67.2,78.3,67.7,81.5,69.2,84.4z"/> <linearGradient id="SVGID_8_" gradientUnits="userSpaceOnUse" x1="122.8897" y1="100.4551" x2="83.4428" y2="58.2302"> <stop offset="0" style="stop-color:#3A49A1"/> <stop offset="1" style="stop-color:#4E74D6"/> </linearGradient> <path class="st8" d="M87.2,42.1l0,13.9c-2.4,0.5-4.9,1.3-7.3,2.6c-2.4,1.3-4.5,2.8-6.2,4.6l-11.6-7.7c3.2-3.4,7.1-6.4,11.5-8.7 C78,44.5,82.7,42.9,87.2,42.1z"/> </g> <path class="st9" d="M106.3,199.7L106.3,199.7c16.9,0,30.6-13.7,30.6-30.6V88.3c0-16.9-13.7-30.6-30.6-30.6h0 c-16.9,0-30.6,13.7-30.6,30.6v80.8C75.7,186,89.4,199.7,106.3,199.7z"/> <path class="st10" d="M145.5,63.3v130.9c0,3.8-3.1,6.9-6.9,6.9H80.2c-3.8,0-6.9-3.1-6.9-6.9V63.3c0-0.1,0-0.2,0-0.3 c0.2-3.7,3.2-6.6,6.9-6.6h58.5C142.5,56.4,145.5,59.5,145.5,63.3z"/> <path class="st11" d="M111.4,199.7L111.4,199.7c18.3,0,33.1-14.8,33.1-33.1V90.7c0-18.3-14.8-33.1-33.1-33.1h0 c-18.3,0-33.1,14.8-33.1,33.1v75.8C78.3,184.9,93.2,199.7,111.4,199.7z"/> <path class="st12" d="M139.5,64v129.4c0,3.5-2.8,6.3-6.3,6.3H84.6c-3.5,0-6.3-2.8-6.3-6.3V64c0-3.5,2.8-6.3,6.3-6.3h48.6 C136.7,57.7,139.5,60.5,139.5,64z"/> <g> <linearGradient id="SVGID_9_" gradientUnits="userSpaceOnUse" x1="-3101.0918" y1="410.0379" x2="-3094.1062" y2="439.7272" gradientTransform="matrix(0.8811 -0.473 0.473 0.8811 2625.8992 -1758.4406)"> <stop offset="0" style="stop-color:#FFFFFF"/> <stop offset="1" style="stop-color:#F0F0E3"/> </linearGradient> <path class="st13" d="M124.8,66.5c-0.3-3.5-1.2-6.9-2.9-10.1H97.7c1,0.3,1.9,0.6,2.7,1.1c2.9,1.4,5.3,3.6,6.9,6.5 c0.8,1.6,1.4,3.2,1.6,5c0.7,4.9-1.1,10.2-4.7,14.5c-2,2.4-4.6,4.6-7.7,6.2c-3.1,1.7-6.3,2.6-9.5,2.9c-5.2,0.5-10.2-0.7-13.9-3.5 v16.7c4.3,1.1,9,1.3,13.8,0.7c5.3-0.7,10.6-2.3,15.8-5.1c5.2-2.8,9.5-6.3,13-10.4C122.1,83.7,125.4,74.9,124.8,66.5z"/> <linearGradient id="SVGID_10_" gradientUnits="userSpaceOnUse" x1="112.2884" y1="110.3588" x2="72.8417" y2="68.1341"> <stop offset="0" style="stop-color:#5369E5"/> <stop offset="1" style="stop-color:#4E74D6"/> </linearGradient> <path class="st14" d="M115.9,91.1c-3.5,4-7.8,7.6-13,10.4c-5.2,2.8-10.5,4.4-15.8,5.1l0-13.9c3.1-0.3,6.4-1.3,9.4-2.9 c3.1-1.7,5.7-3.8,7.7-6.2L115.9,91.1z"/> <linearGradient id="SVGID_11_" gradientUnits="userSpaceOnUse" x1="97.5286" y1="35.381" x2="126.2341" y2="80.7543"> <stop offset="0" style="stop-color:#5369E5"/> <stop offset="1" style="stop-color:#4E74D6"/> </linearGradient> <path class="st15" d="M124.8,66.5l-15.9,2.4c-0.2-1.7-0.8-3.4-1.6-5c-1.5-2.9-3.9-5.1-6.9-6.5l1-1.1h20.5 C123.6,59.6,124.5,63,124.8,66.5z"/> </g> <g> <g> <g> <linearGradient id="SVGID_12_" gradientUnits="userSpaceOnUse" x1="34.2999" y1="125.6153" x2="64.7147" y2="125.6153"> <stop offset="0" style="stop-color:#D5E4FF"/> <stop offset="1" style="stop-color:#EDFFFE"/> </linearGradient> <path class="st16" d="M56,111.9c-6.1-2.9-13.2-1.4-17.6,3.3c-1.1,1.1-2,2.4-2.7,3.9c-2.1,4.5-1.9,9.5,0.3,13.6 c1.5,2.8,3.9,5.2,7,6.7c0.3,0.1,0.6,0.3,0.9,0.4c1.4,0.6,2.9,0.9,4.3,1c6.1,0.5,12.2-2.8,15-8.7C66.8,124.5,63.6,115.5,56,111.9 z M59.8,130.5c-2.1,4.4-6.6,6.9-11.2,6.5c-1.1-0.1-2.2-0.3-3.3-0.8c-0.2-0.1-0.5-0.2-0.7-0.3c-2.3-1.1-4.1-2.9-5.2-5 c-1.6-3.1-1.8-6.8-0.2-10.2c0.5-1.1,1.2-2.1,2-2.9c3.3-3.5,8.6-4.7,13.2-2.5C60.1,118,62.5,124.8,59.8,130.5z"/> </g> </g> <g> <g> <path class="st17" d="M39.4,130.9l-3.4,1.8c-2.1-4.1-2.4-9.1-0.3-13.6c0.7-1.5,1.6-2.8,2.7-3.9l2.8,2.6c-0.8,0.8-1.5,1.8-2,2.9 C37.6,124.1,37.8,127.8,39.4,130.9z"/> </g> </g> <g> <g> <path class="st18" d="M45.3,136.2l-1.4,3.5c-0.3-0.1-0.6-0.3-0.9-0.4c-3.1-1.5-5.5-3.9-7-6.7l3.4-1.8c1.1,2.1,2.9,3.9,5.2,5 C44.9,136,45.1,136.1,45.3,136.2z"/> </g> </g> </g> <rect x="25.2" y="152.6" class="st19" width="7.8" height="2.1"/> <rect x="25.2" y="156.8" class="st19" width="7.8" height="2.1"/> <rect x="25.2" y="148.4" class="st19" width="7.8" height="2.1"/> <defs> <filter id="Adobe_OpacityMaskFilter_2_" x="93.2" y="206.1" width="83.1" height="7"> <feFlood style="flood-color:white;flood-opacity:1" result="back"/> <feBlend in="SourceGraphic" in2="back" mode="normal"/> </filter> </defs> <mask maskUnits="userSpaceOnUse" x="93.2" y="206.1" width="83.1" height="7" id="SVGID_13_"> <g class="st20"> <defs> <filter id="Adobe_OpacityMaskFilter_3_" x="93.2" y="206.1" width="83.1" height="7"> <feFlood style="flood-color:white;flood-opacity:1" result="back"/> <feBlend in="SourceGraphic" in2="back" mode="normal"/> </filter> </defs> <mask maskUnits="userSpaceOnUse" x="93.2" y="206.1" width="83.1" height="7" id="SVGID_13_"> <g class="st21"> </g> </mask> <linearGradient id="SVGID_14_" gradientUnits="userSpaceOnUse" x1="134.737" y1="187.1116" x2="134.737" y2="239.6327"> <stop offset="0" style="stop-color:#FFFFFF"/> <stop offset="1" style="stop-color:#000000"/> </linearGradient> <ellipse class="st22" cx="134.7" cy="209.6" rx="41.5" ry="3.5"/> </g> </mask> <linearGradient id="SVGID_15_" gradientUnits="userSpaceOnUse" x1="134.737" y1="187.1116" x2="134.737" y2="239.6327"> <stop offset="0" style="stop-color:#7DCDFF"/> <stop offset="1" style="stop-color:#FFFFFF"/> </linearGradient> <ellipse class="st23" cx="134.7" cy="209.6" rx="41.5" ry="3.5"/> <path class="st24" d="M285.1,178.8c0,0,0-2.4,3.2-2.5c3.7-0.2,28-0.4,28-0.4l-0.2,2.5L285.1,178.8z"/> <g> <g> <g> <path class="st25" d="M269.1,167.1c-0.1-0.4,0-0.9,1.1-1.6c1.1-0.6,3.7-2.5,4.6-2.5c0.9,0,2.2,0.3,2.6,0.3c0.4,0,1,2.4,1,2.4 L269.1,167.1z"/> </g> <g> <polygon class="st26" points="299.7,143.8 292,158.9 276.3,162.9 277.8,166.9 294.7,165.7 303,151.9 "/> </g> <g> <g> <g> <path class="st27" d="M253.2,204.8c0,0-3.5,1.5-5.1,2s-7.3-0.1-8,0.4c-0.6,0.5-0.7,2.2,0.3,2.5s7.8,1.9,10.2,1.7 c2.4-0.2,6.6,1.3,7.6,1.1c1-0.2,1.1-5.5,0.9-6.7C258.8,204.6,253.2,204.8,253.2,204.8z"/> </g> </g> </g> <g> <g> <g> <path class="st28" d="M254,202.7l-0.8,2.1c0,0,4.2,1.4,5.9,1l0.6-2.1L254,202.7z"/> </g> </g> </g> <g> <g> <g> <path class="st28" d="M262.6,206.7c0,0-3.3,1.9-4.8,2.6c-1.5,0.7-7.3,0.8-7.8,1.3c-0.6,0.5-0.4,2.3,0.6,2.5 c1,0.2,8,0.9,10.3,0.4c2.3-0.5,6.7,0.5,7.7,0.2c1-0.3,0.4-5.5,0.1-6.7C268.2,205.8,262.6,206.7,262.6,206.7z"/> </g> </g> </g> <g> <g> <g> <path class="st29" d="M263.1,204.5l-0.5,2.2c0,0,4.4,0.9,6,0.3l0.3-2.2L263.1,204.5z"/> </g> </g> </g> <g> <path class="st27" d="M296.3,165.1c0,0-15.1,0.1-17,0.4c-2,0.3-9.6,0.3-10.5,1.7c-9.6,13.5-16.1,35.9-16.1,35.9l7.6,1.4 c0,0,7.3-13.2,10.4-20.1c2.8-6.2,5.1-7.8,10.9-7.6c5.8,0.1,24.3-1.1,34.9-2.3L296.3,165.1z"/> </g> <g> <path class="st30" d="M293,134.2c0,0-1.5,6.5-1.1,10.1c0.4,3.6,6.1,12.6,6.4,14.6c0.3,2-1.3,6.1-1.3,6.1l19.8,9.2 c0,0,0-5.7-0.8-12.5c-0.8-6.8-3.4-12.2-4.3-16c-3.1-13.1-14.3-14.9-14.3-14.9L293,134.2z"/> </g> <g> <path class="st28" d="M297.1,164.8c0,0-15.6,0.1-17.4,0.4c-2,0.3-10,0.4-10.8,1.8c-5.5,10.3-6.7,37.9-6.7,37.9l7.1,0.8 c0,0,3.5-14,4.6-20.7c1.1-6.7,2.4-7.6,8.2-7.5c5.8,0.1,28.4,6.2,34.8-3.4L297.1,164.8z"/> </g> <g> <path class="st25" d="M278.1,123.7c0,0,0.2,4,1.3,4c0.9,0,1.2,3.8,1.3,4.4c0.1,0.6,1.7,0.1,2.2,0.2c0.5,0.1,3.7,3.4,4.9,2.9 c1.2-0.6,5.3-5.5,5.8-7.8c0.5-2.3-2.3-9.6-4.9-11.8C286.1,113.4,277.8,116.8,278.1,123.7z"/> </g> <g> <path class="st25" d="M289.7,132c0,0,0.2,0.3,0.5,0.8c0.2,0.4,0.5,0.8,0.7,1.3c0.7,1.4,1.6,3,1.7,3.9c0.3,1.6,4-7.4,4-7.4 s-2.6-4.6-4.7-10.1C289.9,115.1,289.7,132,289.7,132z"/> </g> <g> <path class="st31" d="M278.1,124.6c0,0-3.6-2.3-2-6.5c1.6-4.2,9.7-3.3,10.4-3.5c0.7-0.2,4.4-2.1,6.4,5.2s1.4,6.3,1.4,6.3 s-2.4-2.5-3.7-2.1c-1.4,0.4-3.6,1.4-3.6,1.4s-0.6-3.5-2.5-2.9C282.5,123,279.5,123,278.1,124.6z"/> </g> <g> <path class="st25" d="M287.7,122.6c-0.1-0.5-0.6-2.4,1.4-2.3c2,0.1,1.6,4.6,1.4,4.8C290.2,125.3,288.4,126.6,287.7,122.6z"/> </g> <g> <path class="st32" d="M290.2,132.8c0.2,0.4,0.5,0.8,0.7,1.3c1.4-2.5,2.2-5.2,2.4-6C292.9,129.6,290.2,132.8,290.2,132.8z"/> </g> <g> <path class="st33" d="M288.9,133.4c0,0,0-1.3,0.1-1.7c0.1-0.4-0.8-0.1-1,0.3C287.8,132.5,288.9,133.4,288.9,133.4z"/> </g> <g> <path class="st34" d="M282.5,132.7c0,0-0.1,0.6-0.1,0.9c0,0,0.2,0.5,0.2,0.9c0,0.1,0,0.2,0.1,0.3c0,0.3,0,0.9,0.3,1.6 c0.3,0.7,1.6,3.5,1.6,3.5l1.9-0.6l1.5-0.5c0,0,1.2-4.5,1-5.1c0-0.1,0-0.1-0.1-0.2c-0.2-0.5-0.6-0.8-0.7-1.1 c-0.1-0.1-0.6-1-0.9-1.1c-0.4-0.1-0.8,0.1-1,0.3c0,0-0.9-0.1-1.4,0.2c0,0-0.8-0.1-1.3,0.5C283.6,132.2,282.7,132.2,282.5,132.7z "/> </g> <g> <path class="st35" d="M296.3,130c0,0-2.3,5.3-4.2,7.1l0.9,3.2l4.5-9.7L296.3,130z"/> </g> <g> <path class="st36" d="M297.1,164.8c0,0,0.3-0.8,0.5-1.5s6.1,2.3,6.1,2.3l-1.4,1.6L297.1,164.8z"/> </g> <g> <path class="st37" d="M293.6,146.7c0.6,1.1,1.1,2.3,1.6,3.5l0,0c1.1,2.6,2.1,5.2,3,7.8c0.3,0.9,0.6,1.8,0.9,2.7 c3.4,10.7,4.7,19.7,4.7,19.7s12.6-3.4,14.5-5c0,0-3.1-44.6-20.9-44.7c0,0,0,0,0,0C297.3,130.8,290.7,140.7,293.6,146.7z"/> </g> <g> <path class="st38" d="M298.2,157.9c0.3,0.9,0.6,1.8,0.9,2.7c2.8-4.4,7.7-14.9,7.7-15.1L298.2,157.9z"/> </g> <g> <path class="st37" d="M288.6,138l-4.8,1.6l4.4,23.2c0.5,2.2,3.3,2.9,4.8,1.2c4.1-4.6,10.6-12.3,13.5-17.8 c4.3-8.2-2.9-11.1-4.6-9c-1.7,2.1-9.4,16.1-9.4,16.1L288.6,138z"/> </g> </g> <path class="st39" d="M324.8,126.7l-7.4,21.7c-0.1,0.2-0.1,0.3-0.1,0.5l-1.8,28.6l-31,0.7l-9,32.8c-0.3,1-0.1,2.1,0.5,2.9 c0.4,0.6,1,1,1.7,1.1c2,0.2,41.7,0,41.7,0v-1.6c0-0.8-0.7-1.5-1.5-1.5h-37.2c-0.6,0-1.2-0.3-1.6-0.7c-0.2-0.3-0.4-0.6-0.3-1 c0.2-1,8.1-27.8,8.1-27.8l29.9-0.5c1.4,0,2.5-1.1,2.5-2.4l1.3-30.7c0-0.2,0-0.4,0.1-0.6l6.1-20.8c0,0,0.6-1.4-0.5-1.6 C325.3,125.7,325,126.4,324.8,126.7z"/> <path class="st24" d="M268.4,158.4v1.1h-53.7v-1.1c0-1.1,0.7-1.9,1.6-1.9h50.6C267.7,156.5,268.4,157.4,268.4,158.4z"/> <path class="st40" d="M233.9,214.5h-16.2v-2.6h13.6C232.8,211.9,233.9,213.1,233.9,214.5L233.9,214.5z"/> <rect x="218.7" y="159.6" class="st40" width="2.1" height="54.9"/> <rect x="223.1" y="159.6" class="st40" width="2.1" height="54.9"/> <rect x="239.2" y="114.9" class="st41" width="1.7" height="38.1"/> <g> <path class="st42" d="M237.3,156.5h-9.4V156h9.4c0.5,0,0.8-0.1,1.1-0.3c0.2-0.3,0.2-0.7,0.2-0.7l0,0l0,0v-12.2h0.6v12.2 c0,0.1,0,0.6-0.3,1.1C238.5,156.4,238,156.5,237.3,156.5z"/> </g> <path class="st41" d="M249.9,155.5h-9.6v1h10.6l0,0C250.9,156,250.4,155.5,249.9,155.5z"/> <path class="st43" d="M245.6,159.6h-30.9v-1.1c0-1.1,0.7-1.9,1.6-1.9h24.5L245.6,159.6z"/> <g> <g> <path class="st44" d="M217.8,145.6c0,0,3,0.4,7.3,2.7C229.4,150.6,221.7,149,217.8,145.6z"/> <path class="st45" d="M225.7,148.7c0,0-2.2-4.1-5.5-6c0,0,1,2.8,4.5,5.9C228.2,151.7,225.7,148.7,225.7,148.7z"/> <path class="st46" d="M227.4,145.9c0,0,2.2-2.7,3.1-3.9c0.9-1.2-1.9,5.8-2.1,6.5C228.2,149.2,227.2,149.8,227.4,145.9z"/> <path class="st47" d="M225.3,150.1c-1-1.5-1.7-8.1-1.7-8.1c1.7,1.4,3.4,7.9,3.4,7.9S226.3,151.5,225.3,150.1z"/> <path class="st48" d="M225.5,149.4c-0.3-0.6,0.1-8.8,0.3-8.1c0.2,0.7,1.6,3.8,1.6,3.8C227.6,147,225.8,150,225.5,149.4z"/> <path class="st49" d="M227.8,147.6c0.5-1,5.7-6.1,5.7-6.1c0,1.6-3.3,5.3-3.3,5.3S227.2,148.5,227.8,147.6z"/> <path class="st45" d="M225.3,150c6-2.2,11.6-1.1,11.6-1.1c-0.8,1.1-8.6,1.1-8.6,1.1H225.3z"/> <path class="st50" d="M226.5,150.1c3-3.3,10.2-4.9,10.2-4.9c-2.1,2.2-5.2,4.1-5.2,4.1S223.5,153.5,226.5,150.1z"/> <path class="st51" d="M225.9,149.8c1.8-3.3,8.5-6.5,8.5-6.5c0,1-5.5,5.9-5.5,5.9S224.1,153.1,225.9,149.8z"/> <path class="st52" d="M226,150.1c-1.3-0.2-6.3-5.1-6.3-5.1c1.3,0.2,6.3,3.4,6.3,3.4S227.3,150.4,226,150.1z"/> <path class="st53" d="M223.6,150.1c-1.7,0.1-7.1-3.3-7.1-3.3c1.6,0,5.3,1,7.1,1.5c0.7,0.2,1.3,0.6,1.6,1.3 C226.2,151.3,225.1,150.1,223.6,150.1z"/> <path class="st54" d="M217.4,148.7c0.5,0,3.7,0.1,5.1,0.2c0.5,0,1.1,0.2,1.5,0.6c0.6,0.5,0.4,0.9-0.4,1.1 C222.5,150.7,216.7,148.7,217.4,148.7z"/> <path class="st37" d="M226.1,149.6c-0.1-0.5-0.1-1-0.1-1.5c0.2-1.8,1.1-7.2,2.3-8c0,0,0.5,7.1-0.6,9.4 C226.8,151.2,226.3,150.5,226.1,149.6z"/> <path class="st55" d="M226.1,150.5c-0.7-0.6-3.4-6.9-3.4-6.9c2.6,1.5,3.7,4.6,3.7,4.6S226.8,151.2,226.1,150.5z"/> </g> <polygon class="st56" points="232.5,151 231.6,156.5 221.6,156.5 220.7,151 "/> <path class="st57" d="M220.7,151h11.8l-0.9,5.5h-2.1c0,0-1.8-3.6-8.6-3.9L220.7,151z"/> <rect x="220.2" y="149.8" transform="matrix(-1 -1.224647e-16 1.224647e-16 -1 453.1946 301.4585)" class="st56" width="12.7" height="1.9"/> </g> </g> <defs> <filter id="Adobe_OpacityMaskFilter_4_" x="215.7" y="63.2" width="43" height="36.9"> <feFlood style="flood-color:white;flood-opacity:1" result="back"/> <feBlend in="SourceGraphic" in2="back" mode="normal"/> </filter> </defs> <mask maskUnits="userSpaceOnUse" x="215.7" y="63.2" width="43" height="36.9" id="SVGID_16_"> <g class="st58"> <defs> <filter id="Adobe_OpacityMaskFilter_5_" x="215.7" y="63.2" width="43" height="36.9"> <feFlood style="flood-color:white;flood-opacity:1" result="back"/> <feBlend in="SourceGraphic" in2="back" mode="normal"/> </filter> </defs> <mask maskUnits="userSpaceOnUse" x="215.7" y="63.2" width="43" height="36.9" id="SVGID_16_"> <g class="st59"> </g> </mask> <linearGradient id="SVGID_17_" gradientUnits="userSpaceOnUse" x1="232.7106" y1="77.0799" x2="311.8145" y2="161.1589"> <stop offset="0" style="stop-color:#FFFFFF"/> <stop offset="0.1477" style="stop-color:#D9D9D9"/> <stop offset="1" style="stop-color:#000000"/> </linearGradient> <path class="st60" d="M258.7,79.8c0-4.7-3.8-8.5-8.5-8.5c-0.4,0-0.8,0-1.2,0.1c-1.2-4.8-5.5-8.3-10.6-8.3 c-4.9,0-9.1,3.2-10.5,7.7c-0.2,0-0.3,0-0.5,0c-6.5,0-11.7,5.3-11.7,11.7c0,5.8,4.2,10.6,9.7,11.6c0.4,2.1,2.2,3.6,4.4,3.6 c0.9,0,1.8-0.3,2.5-0.7c2.1,1.9,4.8,3,7.8,3c6.5,0,11.7-5.3,11.7-11.7c0-0.1,0-0.1,0-0.2C255.8,87.4,258.7,84,258.7,79.8z"/> </g> </mask> <linearGradient id="SVGID_18_" gradientUnits="userSpaceOnUse" x1="232.7106" y1="77.0799" x2="311.8145" y2="161.1589"> <stop offset="0" style="stop-color:#7DCDFF"/> <stop offset="0.1477" style="stop-color:#90D4FF"/> <stop offset="1" style="stop-color:#FFFFFF"/> </linearGradient> <path class="st61" d="M258.7,79.8c0-4.7-3.8-8.5-8.5-8.5c-0.4,0-0.8,0-1.2,0.1c-1.2-4.8-5.5-8.3-10.6-8.3c-4.9,0-9.1,3.2-10.5,7.7 c-0.2,0-0.3,0-0.5,0c-6.5,0-11.7,5.3-11.7,11.7c0,5.8,4.2,10.6,9.7,11.6c0.4,2.1,2.2,3.6,4.4,3.6c0.9,0,1.8-0.3,2.5-0.7 c2.1,1.9,4.8,3,7.8,3c6.5,0,11.7-5.3,11.7-11.7c0-0.1,0-0.1,0-0.2C255.8,87.4,258.7,84,258.7,79.8z"/> <defs> <filter id="Adobe_OpacityMaskFilter_6_" x="253" y="95.7" width="11.5" height="11.5"> <feFlood style="flood-color:white;flood-opacity:1" result="back"/> <feBlend in="SourceGraphic" in2="back" mode="normal"/> </filter> </defs> <mask maskUnits="userSpaceOnUse" x="253" y="95.7" width="11.5" height="11.5" id="SVGID_19_"> <g class="st62"> <defs> <filter id="Adobe_OpacityMaskFilter_7_" x="253" y="95.7" width="11.5" height="11.5"> <feFlood style="flood-color:white;flood-opacity:1" result="back"/> <feBlend in="SourceGraphic" in2="back" mode="normal"/> </filter> </defs> <mask maskUnits="userSpaceOnUse" x="253" y="95.7" width="11.5" height="11.5" id="SVGID_19_"> <g class="st63"> </g> </mask> <linearGradient id="SVGID_20_" gradientUnits="userSpaceOnUse" x1="234.3596" y1="75.5285" x2="313.4633" y2="159.6074"> <stop offset="0" style="stop-color:#FFFFFF"/> <stop offset="1" style="stop-color:#000000"/> </linearGradient> <circle class="st64" cx="258.7" cy="101.4" r="5.7"/> </g> </mask> <linearGradient id="SVGID_21_" gradientUnits="userSpaceOnUse" x1="234.3596" y1="75.5285" x2="313.4633" y2="159.6074"> <stop offset="0" style="stop-color:#7DCDFF"/> <stop offset="1" style="stop-color:#FFFFFF"/> </linearGradient> <circle class="st65" cx="258.7" cy="101.4" r="5.7"/> <defs> <filter id="Adobe_OpacityMaskFilter_8_" x="266" y="109.7" width="5.6" height="5.6"> <feFlood style="flood-color:white;flood-opacity:1" result="back"/> <feBlend in="SourceGraphic" in2="back" mode="normal"/> </filter> </defs> <mask maskUnits="userSpaceOnUse" x="266" y="109.7" width="5.6" height="5.6" id="SVGID_22_"> <g class="st66"> <defs> <filter id="Adobe_OpacityMaskFilter_9_" x="266" y="109.7" width="5.6" height="5.6"> <feFlood style="flood-color:white;flood-opacity:1" result="back"/> <feBlend in="SourceGraphic" in2="back" mode="normal"/> </filter> </defs> <mask maskUnits="userSpaceOnUse" x="266" y="109.7" width="5.6" height="5.6" id="SVGID_22_"> <g class="st67"> </g> </mask> <linearGradient id="SVGID_23_" gradientUnits="userSpaceOnUse" x1="234.1817" y1="75.6955" x2="313.2862" y2="159.7751"> <stop offset="0" style="stop-color:#FFFFFF"/> <stop offset="1" style="stop-color:#000000"/> </linearGradient> <circle class="st68" cx="268.8" cy="112.5" r="2.8"/> </g> </mask> <linearGradient id="SVGID_24_" gradientUnits="userSpaceOnUse" x1="234.1817" y1="75.6955" x2="313.2862" y2="159.7751"> <stop offset="0" style="stop-color:#7DCDFF"/> <stop offset="1" style="stop-color:#FFFFFF"/> </linearGradient> <circle class="st69" cx="268.8" cy="112.5" r="2.8"/> <g> <path class="st70" d="M234.4,84.5c0-0.8,0.1-1.4,0.4-2c0.2-0.6,0.8-1.1,1.5-1.6c0.2-0.1,0.5-0.3,0.9-0.5c0.3-0.2,0.7-0.4,1-0.6 c0.3-0.2,0.6-0.5,0.8-0.9c0.2-0.3,0.3-0.7,0.3-1.1c0-0.3-0.1-0.6-0.2-0.9c-0.1-0.2-0.3-0.5-0.5-0.6c-0.2-0.2-0.4-0.3-0.7-0.4 c-0.3-0.1-0.5-0.1-0.8-0.1c-0.3,0-0.6,0.1-0.9,0.2c-0.3,0.1-0.5,0.3-0.8,0.4c-0.2,0.2-0.4,0.4-0.6,0.6c-0.2,0.2-0.3,0.4-0.5,0.6 l-2-1.4c0.2-0.5,0.5-0.9,0.8-1.3c0.3-0.4,0.7-0.7,1.1-0.9c0.4-0.3,0.9-0.4,1.4-0.6c0.5-0.1,1-0.2,1.5-0.2c0.6,0,1.2,0.1,1.7,0.3 c0.6,0.2,1.1,0.4,1.5,0.8c0.5,0.4,0.8,0.8,1.1,1.4c0.3,0.6,0.4,1.3,0.4,2.1c0,0.5-0.1,0.9-0.2,1.3c-0.1,0.4-0.3,0.7-0.5,1 c-0.2,0.3-0.5,0.6-0.8,0.8c-0.3,0.2-0.6,0.5-1,0.7c-0.3,0.2-0.6,0.4-0.9,0.5c-0.3,0.2-0.6,0.4-0.8,0.6c-0.3,0.2-0.5,0.4-0.6,0.7 c-0.2,0.3-0.2,0.6-0.2,1H234.4z M234.5,89.9v-3.2h2.6v3.2H234.5z"/> </g> <g> <g> <g> <g> <polygon class="st71" points="122.5,43.5 140.9,33.2 134.6,32.8 "/> </g> </g> </g> <g> <g> <g> <polygon class="st72" points="122.5,43.5 128.2,34.4 133,34.3 "/> </g> </g> </g> <g> <g> <g> <polygon class="st73" points="136.7,35.6 137.1,37.9 122.5,43.5 "/> </g> </g> </g> </g> <g> <g> <linearGradient id="SVGID_25_" gradientUnits="userSpaceOnUse" x1="173.2844" y1="139.0108" x2="173.2844" y2="89.6664"> <stop offset="0" style="stop-color:#FFFFFF"/> <stop offset="1" style="stop-color:#E3EAF0"/> </linearGradient> <path class="st74" d="M173.3,115.8L173.3,115.8c-19.4,0-35.1-15.7-35.1-35.1V69.4c0-19.4,15.7-35.1,35.1-35.1h0 c19.4,0,35.1,15.7,35.1,35.1v11.3C208.4,100.1,192.7,115.8,173.3,115.8z"/> </g> <linearGradient id="SVGID_26_" gradientUnits="userSpaceOnUse" x1="165.2251" y1="44.005" x2="165.2251" y2="12.4375"> <stop offset="0" style="stop-color:#FFFFFF"/> <stop offset="1" style="stop-color:#E3EAF0"/> </linearGradient> <path class="st75" d="M181,31.5h-31.6c-5.3,0-9.7-4.3-9.7-9.7v0c0-5.3,4.3-9.7,9.7-9.7H181c5.3,0,9.7,4.3,9.7,9.7v0 C190.7,27.2,186.4,31.5,181,31.5z"/> <g> <g> <g> <path class="st70" d="M180.8,68.1c-2.7-7.5-9.9-12.1-17.4-11.9c-1.8,0.1-3.7,0.4-5.5,1c-5.5,2-9.5,6.4-11.1,11.5 c-1.1,3.6-1.1,7.6,0.2,11.4c0.1,0.4,0.3,0.8,0.4,1.1c0.7,1.7,1.7,3.2,2.8,4.5c4.7,5.5,12.5,7.9,19.7,5.3 C179.3,87.7,184.1,77.5,180.8,68.1z M168.4,86.8c-5.4,1.9-11.3,0.2-14.8-3.9c-0.8-1-1.5-2.1-2.1-3.3c-0.1-0.3-0.2-0.6-0.3-0.8 c-1-2.9-1-5.8-0.2-8.5c1.2-3.9,4.2-7.2,8.3-8.7c1.4-0.5,2.8-0.7,4.1-0.8c5.7-0.2,11.1,3.3,13.1,8.9 C179.1,76.6,175.4,84.3,168.4,86.8z"/> </g> </g> <g> <g> <path class="st76" d="M151.1,70.2l-4.3-1.3c1.6-5.2,5.6-9.6,11.1-11.5c1.8-0.7,3.7-1,5.5-1l0.1,4.5c-1.4,0-2.8,0.3-4.1,0.8 C155.2,63,152.3,66.3,151.1,70.2z"/> </g> </g> <g> <g> <path class="st77" d="M151.6,79.5l-4.1,1.8c-0.2-0.4-0.3-0.7-0.4-1.1c-1.4-3.8-1.4-7.8-0.2-11.4l4.3,1.3 c-0.8,2.7-0.8,5.7,0.2,8.5C151.3,79,151.5,79.3,151.6,79.5z"/> </g> </g> <g> <g> <path class="st17" d="M150.2,85.8c-1.1-1.3-2.1-2.8-2.8-4.5l4.1-1.8c0.5,1.2,1.2,2.4,2.1,3.3L150.2,85.8z"/> </g> </g> </g> <g> <g> <g> <path class="st70" d="M196.4,79.1c-3-1.4-6.4-0.7-8.6,1.6c-0.5,0.6-1,1.2-1.3,1.9c-1,2.2-0.9,4.6,0.1,6.6 c0.7,1.4,1.9,2.5,3.4,3.3c0.2,0.1,0.3,0.1,0.5,0.2c0.7,0.3,1.4,0.4,2.1,0.5c3,0.2,5.9-1.4,7.3-4.2 C201.6,85.3,200.1,80.8,196.4,79.1z M198.2,88.2c-1,2.2-3.2,3.3-5.5,3.2c-0.5,0-1.1-0.2-1.6-0.4c-0.1,0-0.2-0.1-0.3-0.1 c-1.1-0.5-2-1.4-2.5-2.4c-0.8-1.5-0.9-3.3-0.1-5c0.3-0.5,0.6-1,1-1.4c1.6-1.7,4.2-2.3,6.4-1.2 C198.3,82.1,199.5,85.4,198.2,88.2z"/> </g> </g> <g> <g> <path class="st76" d="M188.3,88.4l-1.6,0.9c-1-2-1.2-4.4-0.1-6.6c0.3-0.7,0.8-1.4,1.3-1.9l1.4,1.3c-0.4,0.4-0.7,0.9-1,1.4 C187.4,85.1,187.5,86.9,188.3,88.4z"/> </g> </g> <g> <g> <path class="st77" d="M191.1,91l-0.7,1.7c-0.2-0.1-0.3-0.1-0.5-0.2c-1.5-0.7-2.7-1.9-3.4-3.3l1.6-0.9c0.5,1,1.4,1.9,2.5,2.4 C190.9,90.9,191,90.9,191.1,91z"/> </g> </g> </g> <g> <g> <g> <path class="st70" d="M199.9,66.4c1.4-3,0.7-6.4-1.6-8.6c-0.6-0.5-1.2-1-1.9-1.3c-2.2-1-4.6-0.9-6.6,0.1 c-1.4,0.7-2.5,1.9-3.3,3.4c-0.1,0.2-0.1,0.3-0.2,0.5c-0.3,0.7-0.4,1.4-0.5,2.1c-0.2,3,1.4,5.9,4.2,7.3 C193.7,71.7,198.1,70.1,199.9,66.4z M190.8,68.2c-2.2-1-3.3-3.2-3.2-5.5c0-0.5,0.2-1.1,0.4-1.6c0-0.1,0.1-0.2,0.1-0.3 c0.5-1.1,1.4-2,2.4-2.5c1.5-0.8,3.3-0.9,5-0.1c0.5,0.3,1,0.6,1.4,1c1.7,1.6,2.3,4.2,1.2,6.4C196.9,68.4,193.6,69.5,190.8,68.2z "/> </g> </g> <g> <g> <path class="st18" d="M190.6,58.3l-0.9-1.6c2-1,4.4-1.2,6.6-0.1c0.7,0.3,1.4,0.8,1.9,1.3l-1.3,1.4c-0.4-0.4-0.9-0.7-1.4-1 C193.9,57.4,192.1,57.5,190.6,58.3z"/> </g> </g> <g> <g> <path class="st77" d="M188,61.2l-1.7-0.7c0.1-0.2,0.1-0.3,0.2-0.5c0.7-1.5,1.9-2.7,3.3-3.4l0.9,1.6c-1,0.5-1.9,1.4-2.4,2.5 C188.1,60.9,188.1,61,188,61.2z"/> </g> </g> <g> <g> <path class="st17" d="M185.8,62.6c0.1-0.7,0.2-1.4,0.5-2.1l1.7,0.7c-0.2,0.5-0.3,1.1-0.4,1.6L185.8,62.6z"/> </g> </g> </g> <g> <polygon class="st70" points="190.9,98.1 177,98.1 177,97.8 190.6,97.8 190.6,92.6 190.9,92.6 "/> </g> <g> <polygon class="st70" points="164.8,98.1 146.8,98.1 146.8,97.8 164.5,97.8 164.5,89.2 164.8,89.2 "/> </g> <g> <linearGradient id="SVGID_27_" gradientUnits="userSpaceOnUse" x1="146.783" y1="95.7689" x2="159.1843" y2="95.7689"> <stop offset="0" style="stop-color:#D5E4FF"/> <stop offset="1" style="stop-color:#B5C2D9"/> </linearGradient> <rect x="146.8" y="94.9" class="st78" width="12.4" height="1.7"/> </g> <g> <linearGradient id="SVGID_28_" gradientUnits="userSpaceOnUse" x1="177.0447" y1="95.7689" x2="184.3389" y2="95.7689"> <stop offset="0" style="stop-color:#D5E4FF"/> <stop offset="1" style="stop-color:#B5C2D9"/> </linearGradient> <rect x="177" y="94.9" class="st79" width="7.3" height="1.7"/> </g> <g> <path class="st17" d="M179.6,28c-3.3,0-5.9-2.7-5.9-5.9c0-3.3,2.7-5.9,5.9-5.9c3.3,0,5.9,2.7,5.9,5.9 C185.5,25.4,182.9,28,179.6,28z M179.6,16.3c-3.2,0-5.8,2.6-5.8,5.8c0,3.2,2.6,5.8,5.8,5.8s5.8-2.6,5.8-5.8 C185.4,18.9,182.8,16.3,179.6,16.3z"/> </g> <linearGradient id="SVGID_29_" gradientUnits="userSpaceOnUse" x1="151.1174" y1="18.0857" x2="168.891" y2="18.0857"> <stop offset="0" style="stop-color:#D5E4FF"/> <stop offset="1" style="stop-color:#B5C2D9"/> </linearGradient> <rect x="151.1" y="17.3" class="st80" width="17.8" height="1.6"/> <linearGradient id="SVGID_30_" gradientUnits="userSpaceOnUse" x1="153.7392" y1="22.112" x2="168.891" y2="22.112"> <stop offset="0" style="stop-color:#D5E4FF"/> <stop offset="1" style="stop-color:#B5C2D9"/> </linearGradient> <rect x="153.7" y="21.3" class="st81" width="15.2" height="1.6"/> <linearGradient id="SVGID_31_" gradientUnits="userSpaceOnUse" x1="144.5273" y1="26.1381" x2="168.891" y2="26.1381"> <stop offset="0" style="stop-color:#D5E4FF"/> <stop offset="1" style="stop-color:#B5C2D9"/> </linearGradient> <rect x="144.5" y="25.4" class="st82" width="24.4" height="1.6"/> <g> <rect x="144" y="41.3" class="st18" width="5.9" height="1.3"/> </g> <g> <rect x="168.7" y="46.1" class="st70" width="9.2" height="1.3"/> </g> <g> <rect x="156.8" y="46.1" class="st70" width="5.6" height="1.3"/> </g> <g> <rect x="144" y="46.1" class="st70" width="11.1" height="1.3"/> </g> <g> <rect x="151.7" y="41.3" class="st18" width="8.8" height="1.3"/> </g> <g> <rect x="164.2" y="46.1" class="st70" width="2.4" height="1.3"/> </g> <g> <rect x="171.4" y="41.4" class="st70" width="6.6" height="1.3"/> </g> <g> <rect x="180.3" y="46.1" class="st70" width="5.6" height="1.3"/> </g> <g> <rect x="162.7" y="41.4" class="st70" width="7" height="1.3"/> </g> </g> <g> <g> <path class="st70" d="M142.2,30.4l-0.4-0.6c0,0,0.4-0.3,1.2-0.8l0.4,0.6C142.6,30.1,142.2,30.4,142.2,30.4z"/> </g> <g> <path class="st70" d="M211.5,84.8c-0.2-0.9-0.3-1.8-0.3-2.9l0.7,0c0,1,0.1,2,0.3,2.8L211.5,84.8z M211.9,79.1l-0.7,0 c0-0.9,0.1-1.8,0.2-2.9l0.7,0.1C212.1,77.3,212,78.2,211.9,79.1z M212.5,73.5l-0.7-0.1c0.1-0.9,0.3-1.9,0.4-2.8l0.7,0.1 C212.8,71.6,212.6,72.6,212.5,73.5z M213.3,67.8l-0.7-0.1c0.1-0.9,0.3-1.9,0.4-2.8l0.7,0.1C213.6,66,213.5,66.9,213.3,67.8z M214.1,62.2l-0.7-0.1c0.1-0.9,0.2-1.9,0.3-2.8l0.7,0.1C214.4,60.3,214.3,61.3,214.1,62.2z M214.8,56.5l-0.7-0.1 c0.1-1,0.1-1.9,0.2-2.8l0.7,0C214.9,54.6,214.8,55.5,214.8,56.5z M215,50.8h-0.7v-0.1c0-0.9,0-1.8-0.1-2.7l0.7,0 c0,0.9,0.1,1.8,0.1,2.8V50.8z M214,45.2c-0.1-1-0.3-1.9-0.4-2.8l0.7-0.1c0.2,0.9,0.3,1.9,0.4,2.8L214,45.2z M212.9,39.6 c-0.3-0.9-0.6-1.8-0.9-2.6l0.7-0.3c0.4,0.9,0.7,1.8,1,2.7L212.9,39.6z M210.7,34.5c-0.5-0.8-1-1.6-1.5-2.3l0.6-0.4 c0.6,0.8,1.1,1.6,1.6,2.4L210.7,34.5z M207.3,30.1c-0.6-0.7-1.4-1.3-2.1-1.9l0.4-0.6c0.8,0.6,1.5,1.2,2.2,1.9L207.3,30.1z M145.9,28.3l-0.3-0.6c0.8-0.4,1.7-0.9,2.6-1.3l0.3,0.6C147.5,27.4,146.7,27.9,145.9,28.3z M202.9,26.6c-0.8-0.5-1.6-0.9-2.5-1.3 l0.3-0.6c0.9,0.4,1.7,0.9,2.5,1.4L202.9,26.6z M151,25.9l-0.3-0.7c0.9-0.4,1.8-0.7,2.7-1.1l0.3,0.7 C152.7,25.1,151.8,25.5,151,25.9z M197.8,24.2c-0.9-0.3-1.8-0.7-2.7-1l0.2-0.7c0.9,0.3,1.8,0.6,2.7,1L197.8,24.2z M156.3,23.8 l-0.2-0.7c0.9-0.3,1.8-0.6,2.7-0.9L159,23C158.1,23.2,157.2,23.5,156.3,23.8z M192.5,22.4c-0.9-0.3-1.8-0.5-2.7-0.7l0.2-0.7 c0.9,0.2,1.9,0.4,2.8,0.7L192.5,22.4z M161.7,22.2l-0.2-0.7c0.9-0.2,1.9-0.4,2.8-0.6l0.1,0.7C163.5,21.8,162.6,22,161.7,22.2z M187,21.1c-0.9-0.2-1.9-0.3-2.8-0.4l0.1-0.7c0.9,0.1,1.9,0.3,2.8,0.4L187,21.1z M167.2,21.1l-0.1-0.7c0.9-0.2,1.9-0.3,2.8-0.4 l0.1,0.7C169.1,20.8,168.2,20.9,167.2,21.1z M181.3,20.4c-0.9-0.1-1.9-0.1-2.8-0.1l0-0.7c1,0,1.9,0.1,2.9,0.1L181.3,20.4z M172.9,20.4l-0.1-0.7c1-0.1,1.9-0.1,2.9-0.1l0,0.7C174.8,20.3,173.8,20.4,172.9,20.4z"/> </g> <g> <path class="st70" d="M213.6,88.8c-0.4-0.3-0.7-0.7-1-1.2l0.6-0.4c0.2,0.4,0.5,0.7,0.9,1L213.6,88.8z"/> </g> </g> <g> <g> <path class="st25" d="M160.5,126.2c0,0,1.8,0,2.4-0.7c0.6-0.7,1.7-1.3,2.1-1.5c0.5-0.2,1.8-1.5,2-0.9c0.2,0.6-2.1,2.2-2.5,2.7 c-0.4,0.4,1.9,0.6,2.2,1c0.3,0.4-0.8,4.8-2.4,4.5c-1.5-0.3-2.8-1.9-3.1-1.9c-0.3,0-1.1-0.2-1.1-0.2L160.5,126.2z"/> </g> <g> <path class="st25" d="M166.3,126.6c0,0,4.6,1.4,4.8,1.8c0.2,0.4,0.1,0.7-0.4,0.6c-0.4-0.1-4.5-1.2-4.5-1.2s5.1,2.8,5.3,3 c0.1,0.2-0.1,0.7-0.3,0.7c-0.2,0-5.4-2.4-5.4-2.4s4.7,2.6,4.8,2.9c0.1,0.3-0.2,0.8-0.6,0.6c-0.4-0.2-4.9-2.3-4.9-2.3 s3.3,2.1,3.2,2.5c0,0.2-0.2,0.7-1,0.1c-0.8-0.6-2.9-1.7-2.9-1.7L166.3,126.6z"/> </g> <g> <path class="st83" d="M150.8,204.1c0,0,1.5,2.2,3.6,2.7c2.1,0.5,4.1,1.2,4.1,2.6c0,1.3-6,2.1-8.4,0.8c-3.6-2-3.9-1.4-4.3-2.4 c-0.4-1,0.5-3.6,0.4-3.9C146.2,203.5,150.8,204.1,150.8,204.1z"/> </g> <g> <path class="st84" d="M150.6,203c0,0,0.3,1.1,0.2,1.1c0,0-4.7,0.6-4.5-0.3c0.1-0.7,0.3-1.5,0.3-1.5L150.6,203z"/> </g> <g> <path class="st83" d="M121.6,204c0,0,1.1,2.1,2.9,2.8c1.9,0.8,3.5,1.7,3.4,2.9c0,1.3-4.7,2.6-8.1,0.1c-2.2-1.6-2.8-1.6-3.2-2.5 c-0.3-1,0.6-3.5,0.6-3.8C117.2,203.2,121.6,204,121.6,204z"/> </g> <g> <path class="st84" d="M121.7,202.9c0,0,0,1.1-0.1,1.1c0,0-4.5,0.4-4.4-0.5c0.1-0.7,0.4-1.5,0.4-1.5L121.7,202.9z"/> </g> <g> <path class="st85" d="M138.1,138.1c0,0,5.9,22.6,8.1,27.8c2.1,4.8,2.8,11.6,3.1,15c0.4,4.3,2.5,20.9,2.8,22.2 c0.3,1.3-6.9,0.7-6.9,0.7s-5-28.8-7-33c-1.4-2.8-9.3-22.9-10.3-21.7c-0.9,1.2-2,21.3-2.7,24.6c-0.7,3.3-2.7,29.8-2.7,29.8 s-4.6,0.7-5.9-0.4c0,0-0.6-22.6-0.1-28.8c0.2-2.4-2.8-28.6,1-39.2C119.4,129.5,138.1,138.1,138.1,138.1z"/> </g> <g> <path class="st86" d="M105.3,121.9c0,0.3,0.5,1.3,1.3,2.8c1.1-2.3,2-4.1,2.3-4.8c1-2.3,5.9-7.5,5.9-7.5s0,0,0,0c0,0,0,0,0,0 c0,0,0,0,0,0c0,0,0,0,0,0c0,0,0,0,0,0c0,0,0,0,0,0c0,0,0,0,0,0c0.3,1,1.9,7.3,2,10.4c0.1,3.4,0.9,9.6,0.9,9.6l0,0l1,0.1l2.3,0.3 l0.3,0l0.7,0.1l6.1,0.9l2.1,0.3l0.3,0l1.2,0.2l3.4,0.5l0.9,0.1l0,0l0.6,0.1l0.9,0.1c0,0,0,0,0,0c0,0,0.9-1.2,0.7-3.8 c-0.1-1.7-0.3-4.8-0.2-7.7c0,0,0,0,0,0c0,0,0-0.1,0-0.1c0,0,0,0,0,0v0c0.1-1.6,0.2-3.1,0.5-4.2c0.2-0.8,0.3-1.5,0.4-2.3 c0,0,0-0.1,0-0.1c0-0.1,0-0.3,0-0.4c0.2-2,0-3.5,0-3.6l0,0c0.1,0.1,0.5,1.8,1.1,3.8c1,3.4,2.4,7.9,2.9,8.1 c0.8,0.3,14.6,4.4,17.6,4.8c0.3,0,0.5,0,0.6,0c0,0,0-0.1,0-0.1c0.4-1.2,0.9-3.2,0.9-3.5c0,0,0,0,0,0l-0.5-0.2l-15-4.5l-6.8-19.7 c-0.1-0.1-1.8-0.9-3.1-1.5c-1.3-0.6-2.8-1.5-4.1-2.2c-0.7-0.4-1.4-0.7-1.9-1l-0.1,0l0,0c-0.9-0.4-1.6-0.7-1.6-0.7s0,0,0,0 c0,0-0.2,0-0.4,0c-1.3-0.1-5.4-0.5-6.8-0.6c-0.1,0-0.2,0-0.3,0c-0.1,0-0.1,0-0.1,0c-0.2,0-1,0.3-2.1,0.7h0c0,0-0.1,0-0.1,0 c-0.1,0-0.1,0-0.2,0.1c-0.1,0-0.2,0.1-0.3,0.1c-0.2,0.1-0.4,0.2-0.6,0.2c-0.1,0-0.1,0.1-0.2,0.1c-2.2,0.9-4.8,2-5.4,2.4 c-0.4,0.3-1.6,2.6-3.1,5.5c-1.9,5.9-4.2,15-4.3,17.3C105.3,121.8,105.3,121.9,105.3,121.9z"/> </g> <g> <path class="st87" d="M137.5,135.2c0,0,0.5,0.5,0.6,2.9c0,0-18.7-2.2-20.7-3c0,0-0.1-2.5,0.3-2.6 C118.2,132.4,137.5,135.2,137.5,135.2z"/> </g> <g> <path class="st25" d="M121.6,94.7c0.1,2.9,5.8,4.6,5.8,4.6s2.4-3,1.8-3.3c-0.2-0.1-0.3-0.6-0.3-1.1c0-0.5,0-1,0-1.3 c0-0.2,0-0.3,0-0.3s-0.8-0.9-1.8-1.9c-1.8-1.8-4.3-4.1-4.3-3.2c0,0,0,0.1,0,0.2C123.2,90.4,121.6,94.7,121.6,94.7z"/> </g> <g> <path class="st83" d="M122,132.9c0,0-0.4,2.6-0.4,3.3l-0.9-0.2c0,0,0.2-2.7,0.4-3.2L122,132.9z"/> </g> <g> <path class="st83" d="M136,134.9c0,0,0.3,2.3,0.3,3.2l-0.9-0.1c0,0-0.2-2.9-0.3-3.2L136,134.9z"/> </g> <g> <path class="st32" d="M123.7,90.4C123.7,90.4,123.7,90.4,123.7,90.4c0,0,0.3,0.4,0.7,0.9c0.9,1.1,2.5,2.9,4.4,3.6 c0-0.5,0-1,0-1.3c0.2,0,0.4,0,0.6-0.1c-0.5-0.9-1.2-1.8-1.2-1.8l-1.1-0.3L123.7,90.4z"/> </g> <g> <path class="st25" d="M122.7,88.2c0.5,1.1,1,1.8,1.1,2.2c0,0,0,0,0,0c0.1,0.2,0.3,0.5,0.7,0.9c0.9,1,2.7,2.3,4.4,2.3 c0.2,0,0.4,0,0.6-0.1c0.7-0.2,1.5-0.5,2-1.4c3.6-7,1-12.6,1-12.6s-9.7-2.7-11.2,0.2C120,81.7,121.5,85.7,122.7,88.2z"/> </g> <g> <path class="st88" d="M132.3,79.5c0,0,0.9,0,1.1-1.8c0.2-1.7-0.2-2.2-0.2-2.2s-4-1.7-5.5-1.9c-1.4-0.2-5-0.4-5.8,0.5 c0,0-2-0.5-2.6,2.9c-0.9,5.3,3,10.5,3,10.5s0-3.5,0.7-3.9c0.8-0.5,1.4,0.6,1.4,0.6l1.6,0.3c0,0-2.4-5.1,0.5-5.3 C129.4,79,130.7,79.8,132.3,79.5z"/> </g> <g> <path class="st25" d="M124.5,82.9c-0.1-1.5-2.9-2.1-2.7-0.5c0.2,1.6,1.5,3.1,2.2,3.1C124.6,85.4,124.6,84,124.5,82.9z"/> </g> <g> <path class="st89" d="M106.5,124.7c1.2,2.3,3.1,5.7,5,9c-0.2,0.5-0.5,0.9-0.7,1.4c-0.6,1.1-1.1,2.2-1.4,3.2 c-0.4,1.2-1,4.3,0.1,4.8l6,3.3c0,0,0-0.1,0.1-0.3c0.2-0.5,0.6-1.7,1.2-3.2c0,0,0.1-0.2,0.2-0.4c0.1-0.3,0.3-0.7,0.5-1.1 c0.1-0.2,0.2-0.4,0.3-0.6c0.1-0.3,0.2-0.5,0.3-0.8c0.2-0.4,0.3-0.8,0.5-1.1c0.4-1,0.7-1.7,0.7-1.7c0,0,0-0.1,0.1-0.1 c0.2-0.4,0.4-0.8,0.6-1.3c0.3-0.7,0.6-1.3,1-1.9c0-0.1,0.1-0.1,0.1-0.2c0.1-0.1,0.1-0.2,0.2-0.3c0-0.1,0.1-0.1,0.1-0.2 c0,0,0,0,0,0c0,0,0-0.1,0-0.1c1.7-3.2,3.7-5.8,4.3-9.7c0.1-0.4,0.1-0.7,0.2-1.1c0.1-0.6,0.2-1.2,0.2-1.8c0-0.2,0.1-0.4,0.1-0.7 c0.3-2.6,0.5-4.9,0.6-6.5c0.5-5-2.6-10.4-4.9-13.8c-1.3-1.8-2.3-3-2.5-3.2c0,0,0,0,0,0c0,0-0.1,0-0.1,0c-0.1,0-0.1,0-0.2,0.1 c-0.1,0-0.2,0.1-0.3,0.1c-0.2,0.1-0.4,0.2-0.6,0.2c-0.1,0-0.1,0.1-0.2,0.1c-2.3,0.9-7.1,2.2-7.7,2.6c-0.3,0.2-1.1,2.5-2,5.4 c-1.9,5.9-3,14.9-3,17.1c0,0,0,0.1,0,0.1C105.3,122.1,105.8,123.2,106.5,124.7z M115.7,123.5c0,1.1-0.4,2.4-0.9,3.8 c0,0,0,0.1,0,0.1c-0.4-0.8-0.7-1.6-1.1-2.3c0,0,0,0,0,0c-0.9-2-1.5-3.6-1.5-4.2c-0.2-4,2.7-8.5,2.7-8.5c0,0,0,0,0,0c0,0,0,0,0,0 c0,0,0,0,0,0c0,0,0,0,0,0c0,0,0,0,0,0c0,0,0,0,0,0C115.4,114.9,115.7,123.5,115.7,123.5z"/> </g> <path class="st90" d="M127,138.5l-17.1,7.6c-1,0.4-2.1,0-2.5-1l-4.7-10.5c-0.4-1,0-2.1,1-2.5l17.1-7.6c1-0.4,2.1,0,2.5,1l4.7,10.5 C128.5,136.9,128,138,127,138.5z"/> <g> <path class="st89" d="M130.7,96.8c0,0,0.8,2.7,1.8,9.3c0,0,0,0,0,0c0,0.2,0.1,0.5,0.1,0.7c0,0,0,0.1,0,0.1c0,0.2,0,0.3,0.1,0.5 c0,0,0,0,0,0.1c0,0.1,0,0.2,0,0.3c0,0.3,0.1,0.5,0.1,0.8c0.5,3.2,1.1,8.8,1.7,14.3v0c0.5,4.4,1.6,8.9,2,12.3c0,0,0,0,0,0 c0.1,0.7,0.2,1.5,0.5,2.5c0,0.1,0.1,0.2,0.1,0.3c1,4.2,3,10.3,3,10.3l0.6-0.5l1.7-1.6c0.4-0.4,0.5-0.9,0.4-1.4 c-0.9-3-4.1-13.7-4.7-21.2c0,0,0,0,0,0c0.3-2.6,1-6.2,0.9-6.7c0,0,0,0,0,0.1c0.3,0.9,0.7,1.9,1.1,2.9v0c1,2.6,2,5.1,2.5,5.2 c0.9,0.3,18,5.4,18.1,4.7c0-0.1,0-0.1,0-0.2c0-0.1,0-0.2,0.1-0.2c0.2-1,0.6-2.3,0.9-3.3c0-0.1,0.1-0.3,0.1-0.4 c0.1-0.4,0.2-0.6,0.2-0.6l-14.4-4.7l-7.3-19c-0.1-0.1-2-1.1-3.2-1.7c-1.3-0.6-2.9-1.4-4.3-2C132,97.3,131.3,97,130.7,96.8 L130.7,96.8z"/> </g> <g> <path class="st91" d="M121,103.4l2.8,1.6l-1.2,1.2l3.2,17c0.6-4,0.9-7.8,1.2-10.1c0.7-7.7-7-16.5-7.5-17 c-0.4,0.1-0.8,0.3-1.2,0.5L121,103.4z"/> </g> <g> <path class="st91" d="M130.7,96.7c0,0,1,3.4,2.2,11.8c0.5,3.2,1.1,8.8,1.7,14.3l0.6-15.9l-1.3-1.4l1.2-1.5l-2.5-6.4 C132,97.3,131.3,97,130.7,96.7L130.7,96.7z"/> </g> <g> <path class="st92" d="M119.2,96.1l2.3-1.4c0,0,0.1,1.3,5.8,4.6l-1.6,4.6L119.2,96.1z"/> </g> <g> <path class="st92" d="M128.8,95.3c0,0-0.1,1.4-1.5,3.9l3.2,4.1l0.2-6.7L128.8,95.3z"/> </g> <g> <path class="st93" d="M127.3,99.2c0,0-0.6,2.4-0.4,3.1c0,0,1.3,0.5,2.3-0.1C129.2,102.2,128.5,100.5,127.3,99.2z"/> </g> <g> <g> <path class="st94" d="M130.5,134.5c0.3-1.7,0-6.9,0-7.1l-0.3,0c0,0.1,0.3,5.3,0,7L130.5,134.5z"/> </g> </g> <g> <path class="st95" d="M128.1,133.7c0,0,2.8,0.3,3.7,0.6l-0.1,3.1L128,137L128.1,133.7z"/> </g> <g> <path class="st93" d="M128.7,102c0,0,3.1,7.8,2.6,16.5c-0.5,9-1.4,12.3-1.4,12.3l-1.9,2.4l-0.8-2.9c0,0,2.5-11.5,0.9-22.7 c-0.3-2-0.7-5.9-0.7-5.9L128.7,102z"/> </g> <g> <path class="st25" d="M119.4,138.7c0,0,0.7,1.3,1.3,1.5c0.7,0.2,1.6,1.3,1.6,1.3l-4.6,2.4c0,0-1.2-2.4-1.3-4 C116.4,138.5,119.4,138.7,119.4,138.7z"/> </g> <g> <path class="st86" d="M119.9,138.8l0.3,0.6c0,0-3,2.2-3.7,2.3l-0.3-0.8L119.9,138.8z"/> </g> <g> <path class="st89" d="M120.2,138.9c0,0-2.2,1.8-4.1,2.7l-8.4-14.6l5.3-2.9C113.1,124,120,137.8,120.2,138.9z"/> </g> <g> <path class="st85" d="M138.9,113c0.1,2.1,0.1,3.9,0.1,3.9s0,0,0,0c0,0,0,0.1,0,0.2c0,0,0-0.1,0-0.1c0.3,0.9,0.7,1.9,1.1,2.9 c0.1-1.1,0.1-2.2,0.1-3.2c-0.1-5.9-2-8.9-2-8.9C138.6,108.8,138.8,111,138.9,113z"/> </g> </g> </g> </svg>