<?xml version="1.0" encoding="UTF-8"?>
<!-- Generator: Adobe Illustrator 22.1.0, SVG Export Plug-In . SVG Version: 6.00 Build 0)  -->
<svg version="1.1" id="ëÎÓÈ_1" xmlns="http://www.w3.org/2000/svg" xmlns:xlink="http://www.w3.org/1999/xlink" x="0px" y="0px" viewBox="0 0 583.647 491.837" enable-background="new 0 0 583.647 491.837" xml:space="preserve">
<g>
	<path fill="#9FE2FF" d="M497.477,339c-6.985-4.331,15.173-4.483,41.523-3.843c4.994-0.607,8.916-4.255,9.638-8.648   c0.894-5.442-3.25-11.263-9.638-12.233c-5.31-1.383-13.906-3.508-24.679-4.738c-10.007-1.142-18.58-1.116-27.797-1.09   c-3.09,0.009-6.252,0.017-9.565-0.018c-23.164-0.248-144.341,0-174.046,0c-29.705,0-29.402,10.152-13.244,23.861   c16.158,13.71-17.43,18.018-34.898,18.018c-17.469,0-73.023,9.417-89.979,4.831c-16.957-4.587-14.632-14.322-14.632-14.322   l-15.834,24.988c0,0,31.489,0.001,43.807,2.451c12.318,2.449,0,8.857,0,8.857s23.453,5.886,53,2.158   c29.546-3.727,61.44,6.293,65.475,12.819c4.035,6.527-26.71,12.291-26.71,12.291l32.363,33.073c0,0,87.584,2.905,106.238,3.084   c47.444,0.457,74.983,29.884,104.666,47.969c3.848,1.319,8.734,2.574,14.471,3.087c10.968,0.98,19.945-1.213,25.5-3.087   c5.138-0.773,14.859-3.057,22-11c7.582-8.434,8.46-19.026,8.5-29.5c0.08-21.21,0.331-87.204-34-100.5   c-4.644-1.798-8.733-2.172-10.638-2.279C535.566,345.25,507.184,345.02,497.477,339"/>
	<rect x="330.791" y="453.584" fill="#9FE2FF" width="156.376" height="3.208"/>
	<rect x="237.303" y="423.939" fill="#9FE2FF" width="171.198" height="4.295"/>
	<polyline fill="#0072C3" points="494,166.465 0,166.465 0,0 494,0 494,166.465  "/>
	<path fill="#003A77" d="M144.721,166.465c21.974-25.502,65.963-56.416,102.829-31.854c45.493,30.311,62.319-39.271,93.948-50.274   c13.614-4.736,24.43-0.489,34.921,3.758c13.882,5.62,27.196,11.239,45.672-3.953C454.529,57.469,465.009,0,465.009,0H494v166.465   H144.721"/>
	<path fill="#3588E0" d="M162.84,28.468c-10.702,0-18.104,7.974-25.94,16.415c-8.28,8.919-16.837,18.138-29.956,18.388v17.537   h-0.549h82.667l2.101-3.247l0,0l0.436-0.673c1.086-0.155,2.151-0.225,3.185-0.225c4.775,0,8.913,1.48,11.631,2.839   c0.713,0.357,1.41,0.794,2.073,1.306h69.695h-0.549V58.783c-13.376,0.091-21.491,3.505-29.342,6.808   c-7.394,3.11-15.031,6.324-26.823,6.543v8.675h-1.098v-8.663c-0.062,0-0.126,0-0.188,0c-13.336,0-22.258-11.693-30.888-23.001   c-7.762-10.173-15.114-19.807-25.089-20.621v52.285h-1.098V28.47C163.02,28.469,162.93,28.468,162.84,28.468"/>
	<path fill="#B3D5ED" d="M106.944,15.812h-1.097v64.997h0.548h0.549V63.271c-0.182,0.003-0.365,0.005-0.548,0.005v-1.647   c0.184,0,0.366-0.002,0.548-0.006V15.812"/>
	<path fill="#B3D5ED" d="M163.109,28.47v52.339h1.098V28.523C163.845,28.494,163.479,28.476,163.109,28.47 M164.208,15.812h-1.098   v11.01c0.37,0.005,0.736,0.021,1.098,0.048V15.812"/>
	<path fill="#B3D5ED" d="M221.471,72.134c-0.362,0.007-0.728,0.011-1.098,0.012v8.663h1.098V72.134 M221.471,15.812h-1.098v54.686   c0.37-0.001,0.737-0.005,1.098-0.012V15.812"/>
	<path fill="#B3D5ED" d="M278.734,15.812h-1.098v41.323c0.182-0.001,0.365-0.002,0.549-0.002v1.647   c-0.184,0-0.367,0.001-0.549,0.002v22.026h0.549h0.549V15.812"/>
	<path fill="#B3D5ED" d="M162.84,26.82c-11.421,0-19.06,8.23-27.147,16.942c-8.036,8.657-16.343,17.604-28.748,17.861   c-0.182,0.004-0.365,0.006-0.548,0.006v1.647c0.184,0,0.367-0.002,0.548-0.005c13.119-0.25,21.676-9.469,29.956-18.388   c7.836-8.441,15.238-16.415,25.94-16.415c0.09,0,0.18,0.001,0.27,0.002c0.37,0.006,0.736,0.024,1.098,0.053   c9.976,0.814,17.327,10.448,25.089,20.621c8.629,11.308,17.552,23.001,30.888,23.001c0.063,0,0.126,0,0.188,0   c0.37-0.001,0.736-0.005,1.098-0.012c11.791-0.219,19.429-3.432,26.823-6.543c7.851-3.303,15.966-6.717,29.342-6.808   c0.182-0.001,0.365-0.002,0.549-0.002v-1.647c-0.184,0-0.366,0.001-0.549,0.002c-13.706,0.091-21.979,3.571-29.981,6.937   c-7.574,3.187-14.743,6.203-26.184,6.414c-0.361,0.007-0.728,0.011-1.098,0.012c-0.063,0-0.125,0-0.188,0   c-12.521,0-21.192-11.363-29.578-22.353c-8.032-10.526-15.636-20.492-26.399-21.275c-0.363-0.026-0.728-0.042-1.098-0.048   C163.02,26.821,162.93,26.82,162.84,26.82"/>
	<path fill="#3588E0" d="M60.043,31.302c-13.271,0-24.069,10.797-24.069,24.069c0,5.629,1.942,10.812,5.192,14.916l2.99-2.363   c-2.735-3.454-4.369-7.816-4.369-12.554c0-11.17,9.087-20.257,20.257-20.257l0,0V31.302C60.043,31.302,60.043,31.302,60.043,31.302   "/>
	<path fill="#B3D5ED" d="M45.576,66.803l-1.42,1.122l-2.99,2.363l-1.081,0.854c5.008,6.338,12.447,9.65,19.959,9.657V73.81   c2.049,0,4.021-0.336,5.864-0.956c-1.901,0.635-3.876,0.948-5.844,0.948C54.611,73.803,49.21,71.402,45.576,66.803 M82.923,66.485   c-2.931,6.01-8.162,10.701-14.54,12.92c2.621-0.907,5.136-2.261,7.432-4.074C78.922,72.874,81.303,69.833,82.923,66.485    M77.463,49.32c1.599,4.615,1.285,9.686-0.805,14.047c1.169-2.42,1.825-5.133,1.825-7.995   C78.482,53.253,78.123,51.216,77.463,49.32 M80.003,39.601l-0.008,0.006c1.762,2.226,3.161,4.754,4.105,7.49   C83.193,44.453,81.832,41.916,80.003,39.601"/>
	<path fill="#3588E0" d="M60.043,29.933v1.369v3.812v1.817c8.048,0,14.909,5.184,17.419,12.388c0.661,1.896,1.02,3.933,1.02,6.051   c0,2.863-0.656,5.576-1.825,7.995c-2.146,4.442-6.023,7.898-10.75,9.488c-1.843,0.62-3.815,0.956-5.864,0.956v6.988v0.01   c2.919,0,5.725-0.494,8.339-1.404c6.378-2.219,11.609-6.91,14.54-12.92c1.639-3.36,2.558-7.131,2.558-11.113   c0-2.895-0.486-5.678-1.381-8.273c-0.944-2.736-2.343-5.264-4.105-7.49C75.332,33.718,68.122,29.933,60.043,29.933"/>
	<polyline fill="#3588E0" points="149.879,98.06 110.844,98.06 110.844,103.088 149.879,103.088 149.879,98.06  "/>
	<polyline fill="#3588E0" points="149.879,107.257 110.844,107.257 110.844,112.285 149.879,112.285 149.879,107.257  "/>
	<polyline fill="#3588E0" points="77.862,98.06 38.827,98.06 38.827,103.088 77.862,103.088 77.862,98.06  "/>
	<polyline fill="#3588E0" points="77.862,107.257 38.827,107.257 38.827,112.285 77.862,112.285 77.862,107.257  "/>
	<polyline fill="#3588E0" points="67.445,116.454 38.827,116.454 38.827,121.482 67.445,121.482 67.445,116.454  "/>
	<polyline fill="#3588E0" points="340.621,15.933 301.585,15.933 301.585,20.961 340.621,20.961 340.621,15.933  "/>
	<polyline fill="#3588E0" points="340.621,25.13 301.585,25.13 301.585,30.158 340.621,30.158 340.621,25.13  "/>
	<polyline fill="#3588E0" points="330.203,34.327 301.585,34.327 301.585,39.355 330.203,39.355 330.203,34.327  "/>
	<polyline fill="#3588E0" points="123.5,142.187 110.844,142.187 110.844,147.214 123.5,147.214 123.5,142.187  "/>
	<polyline fill="#3588E0" points="128.78,15.375 108.55,15.375 108.55,20.244 128.78,20.244 128.78,15.375  "/>
	<polyline fill="#3588E0" points="185.91,15.375 165.68,15.375 165.68,20.244 185.91,20.244 185.91,15.375  "/>
	<polyline fill="#3588E0" points="231.026,15.375 222.809,15.375 222.809,20.244 231.026,20.244 231.026,15.375  "/>
	<polyline fill="#3588E0" points="287.952,15.375 279.736,15.375 279.736,20.244 287.952,20.244 287.952,15.375  "/>
	<polyline fill="#3588E0" points="107.347,98.06 105.847,98.06 105.847,147.214 107.347,147.214 107.347,98.06  "/>
	<polyline fill="#3588E0" points="404.607,65.284 365.571,65.284 365.571,70.312 404.607,70.312 404.607,65.284  "/>
	<polyline fill="#3588E0" points="404.607,74.784 365.571,74.784 365.571,79.812 404.607,79.812 404.607,74.784  "/>
	<path fill="#3588E0" d="M404.607,84.284h-38.533c3.538,1.069,6.958,2.44,10.345,3.811c1.008,0.408,2.014,0.816,3.018,1.217h25.17   V84.284"/>
	<path fill="#3578CA" d="M366.074,84.284h-0.503v5.027h13.866c-1.004-0.4-2.01-0.808-3.018-1.217   C373.032,86.724,369.612,85.353,366.074,84.284"/>
	<polyline fill="#3578CA" points="396.161,100.214 365.571,100.214 365.571,105.241 396.161,105.241 396.161,100.214  "/>
	<polyline fill="#3578CA" points="387.998,109.41 365.571,109.41 365.571,114.438 387.998,114.438 387.998,109.41  "/>
	<path fill="#3588E0" d="M362.074,65.284h-1.5v17.643c0.504,0.094,1.002,0.195,1.5,0.305V65.284"/>
	<path fill="#3578CA" d="M360.574,82.928v31.51h1.5V83.233C361.576,83.123,361.078,83.021,360.574,82.928"/>
	<polyline fill="#3588E0" points="372,36.841 360.574,36.841 360.574,51.175 372,51.175 372,36.841  "/>
	<polyline fill="#3588E0" points="386.579,32.618 375.153,32.618 375.153,51.175 386.579,51.175 386.579,32.618  "/>
	<polyline fill="#B3D5ED" points="401.158,17.005 389.733,17.005 389.733,51.175 401.158,51.175 401.158,17.005  "/>
	<polyline fill="#3588E0" points="415.737,30.158 404.312,30.158 404.312,51.175 415.737,51.175 415.737,30.158  "/>
	<polyline fill="#B3D5ED" points="430.316,45.009 418.891,45.009 418.891,51.175 430.316,51.175 430.316,45.009  "/>
	<polyline fill="#3588E0" points="444.896,30.158 433.471,30.158 433.471,51.175 444.896,51.175 444.896,30.158  "/>
	<path fill="#E0F6FF" d="M233.418,425.539V276.264c0-2.146,1.739-3.885,3.884-3.885h0c2.146,0,3.884,1.739,3.884,3.885v149.274   C241.187,429.208,233.418,429.062,233.418,425.539z"/>
	<path fill="#E0F6FF" d="M181.596,276.039v-92.556h4.104v92.556C185.699,277.346,181.596,277.346,181.596,276.039z"/>
	<path fill="#9FE2FF" d="M177.08,176.024v5.81l43.48,87.537c3.777,5.198,9.297,6.3,16.149,6.3h249.418   c2.292-1.455,5.03-5.703,8.136-8.149l-0.012-7.538L177.08,176.024"/>
	<path fill="#70C4FF" d="M289.67,119.301c-3.05,2.179-18.956,11.984-21.571,13.727c-2.615,1.743-4.14,1.743-6.972,0   c-2.833-1.743-22.333-24.403-23.641-26.255c-1.308-1.852-5.011-1.961-6.428-3.813s-8.392-9.909-3.725-9.701   c0.973,0.043,5.375,5.562,6.176,4.961c1.577-1.18-1.175-2.143-1.201-3.232c-0.08-3.33,1.734-0.233,5.067,2.146   c0.623,0.445,1.091,1.104,1.231,1.857c0.2,1.068,1.296,3.119,5.524,6.692c3.262,2.756,16.015,14.816,18.084,16.45   s3.53,1.424,4.902,0.327c1.393-1.114,21.566-15.843,22.006-15.034L289.67,119.301z"/>
	<path fill="#0097FF" d="M290.757,109.823c-1.089-1.525-3.861-2.683-2.833-9.369c0.872-5.665,4.249-5.338,4.357-8.933   c0.109-3.595-2.803-5.847-2.291-10.422c0.512-4.576,5.29-10.822,12.923-10.895c7.634-0.072-2.098,38.711-2.098,38.711   L290.757,109.823z"/>
	<path fill="#70C4FF" d="M291.558,106.3c4.213-0.726,7.989-1.017,8.57-3.341s-0.581-5.52-0.581-5.52l9.296,0.508   c0,0-1.013,5.102,0,6.537c1.743,2.47,4.431,4.576,4.431,4.576l-8.643,12.202l-12.347-0.436L291.558,106.3z"/>
	<path fill="#003A77" d="M285.021,161.063c0,0,32.142-5.47,33.119-1.453c1.308,5.375,2.76,18.448,2.76,18.448l-37.332,1.307   L285.021,161.063z"/>
	<path fill="#001936" d="M285.53,127.363c0,0-1.837-14.811,0.808-18.012c2.935-3.552,7.968-3.503,7.968-3.503   s-4.31,13.435,2.99,13.345c8.787-0.109,10.477-9.515,14.227-11.675c3.749-2.161,7.671,0.999,8.216,4.594   c0.544,3.595-4.685,33.228-4.685,33.228l3.846,18.079c-8.095,5.998-34.422,4.505-34.15,1.075   C285.021,161.063,285.53,127.363,285.53,127.363z"/>
	<path fill="#70C4FF" d="M297.078,77.394c-1.743,3.341-2.905,4.067-2.76,10.895c0.145,6.827,1.881,10.597,3.922,12.056   s3.97,2.469,11.875-1.126c3.167-1.44,0-17.322,0-17.322l-4.321-5.956L297.078,77.394z"/>
	<path fill="#FFFFFF" d="M267.96,121.422l26.8,3.486c0,0,6.897,14.816,8.133,20.481s2.761,12.746,2.761,12.746l-23.096-3.922   c0,0-1.307-10.676-3.595-16.56C276.676,131.772,267.96,121.422,267.96,121.422z"/>
	<path fill="#70C4FF" d="M276.005,132.209c-2.635,1.783-0.528,7.08,1.76,8.061c2.288,0.98,22.987,12.638,26.037,13.727   c3.051,1.089,4.903,0.653,6.283-1.417s8.748-20.414,10.818-25.928c2.945-7.844,0.013-19.174-3.81-19.174   c-6.646,0-7.408,10.349-8.76,16.232c-1.353,5.883-2.46,15.688-3.441,17.976c-0.981,2.288-1.417,2.833-4.14,1.961   s-14.984-5.547-17.183-6.637c-2.199-1.089-4.11-3.937-4.854-5.738c-0.917-2.221-2.048-1.476-1.322,0.267   c0.45,1.081,0.628,2.448,0.327,2.651C277.365,134.429,276.816,133.503,276.005,132.209z"/>
	<path fill="#E8F8FF" d="M329.009,179.9l161.074,74.197c7.009,3.228,4.707,13.729-3.011,13.729H236.893   c-7.476,0-14.33-4.165-17.774-10.801l-42.039-81.002h134.25C317.434,176.024,323.465,177.346,329.009,179.9"/>
	<polygon fill="#9FE2FF" points="238.875,204.259 247.375,216.633 285.25,216.633 272.583,203.925  "/>
	<polygon fill="#E0F6FF" points="354.221,137.994 383.749,131.667 404.84,152.338 376.894,164.358  "/>
	<path fill="#0072C3" d="M479.342,199.662c0.211,18.074-5.892,32.889-5.209,45.347c0.937,17.083-1.015,32.967-1.542,46.149   c-0.527,13.182-15.958,47.277-15.958,47.277l-1.53,20.215l-5.874-129.608l-6.966,28.896l-23.981-9.491   c0,0,0.083-20.649,4.589-48.526L479.342,199.662"/>
	<path fill="#70C4FF" d="M377.68,161.841c-3.427-1.318-9.144-0.597-14.509-7.392c-3.406-4.314-2.731-6.065-2.172-8.574   c2.378,2.664,9.608,8.228,8.64,3.179c-0.923-4.812,1.252-4.943,3.625-0.923c2.365,4.008,4.335,5.094,6.114,5.424   S377.68,161.841,377.68,161.841z"/>
	<path fill="#70C4FF" d="M460.046,86.414c0,0-2.989,11.008,2.36,13.926l-8.2,5.309l-13.081-5.712   c3.871-3.796,2.652-8.239,2.652-8.239c-0.938-1.563-2.41-1.242-3.873-0.922c-1.79,0.392-3.566,0.785-4.331-2.277   c-1.391-5.562-3.755-9.456-2.225-12.236c1.529-2.781-0.491-3.191-0.497-6.396c-0.016-8.343,5.705-14.781,14.708-14.322   C463.939,56.378,469.768,67.642,460.046,86.414"/>
	<path fill="#FFFFFF" d="M479.395,112.527c-3.339-6.872-8.418-6.877-16.989-12.186c-6.518,1.84-12.873,2.104-21.281-0.403   c-3.888,2.794-14.985,3.825-18.099,9.043c-4.482,7.514-2.621,31.612-2.505,39.81c0.117,8.198,6.505,25.623,2.349,51.131   c0,0,56.47,2.376,56.472-0.26c0.013-16.243-8.429-24.674-2.681-47.46C483.99,123.15,482.684,119.299,479.395,112.527"/>
	<path fill="#70C4FF" d="M431.5,200.246c1.436-3.582,2.35-7.91,1.285-12.26c-2.573-10.519,11.036-17.844,6.197-27.931   c-6.197-12.921-3.033-25.725-6.197-31.162c0,0-6.445,0.319-12.74,0.625c-0.038,7.693,0.421,15.326,0.477,19.273   c0.117,8.198,6.505,25.623,2.349,51.131C422.87,199.922,426.315,200.067,431.5,200.246"/>
	<path fill="#FFFFFF" d="M379.378,153.555c-2.088-0.297-4.22,7.477-1.698,8.286c6.465,2.074,23.863,8.602,35.028,11.698   c4.338,1.203,8.898-0.944,10.727-5.058c4.973-11.191,13.402-33.673,10.991-53.022c-1.195-9.593-2.854-11.392-6.643-10.212   c-11.947,3.721-14.035,40.233-17.147,51.392c-0.92,3.296-5.738,2.41-8.374,1.707C399.625,157.641,379.378,153.555,379.378,153.555z   "/>
	<path fill="#001936" d="M463.105,81.964c9.721-18.772,3.083-30.433-13.317-30.455c-7.078-0.01-16.103,5.445-16.937,9.895   c-0.835,4.45,6.001,6.708,6.615,7.628c1.177,1.766,0.834,4.218,0.556,5.238c-0.278,1.019,1.789,1.93,2.827,0.788   c3.245-3.569,6.9-2.608,4.219,5.145c-1.972,5.7,10.355,9.614,12.225,10.172C459.551,88.134,463.105,81.964,463.105,81.964"/>
	<path fill="#002277" d="M462.388,100.33c0.006,0.003,0.012,0.007,0.018,0.01l0,0c8.571,5.309,13.65,5.315,16.989,12.186   c1.532,3.155,2.634,5.675,2.633,10.405c0.001-4.729-1.101-7.25-2.633-10.405c-3.339-6.872-8.418-6.877-16.989-12.186   C462.4,100.337,462.394,100.334,462.388,100.33 M462.369,100.32c0.005,0.003,0.009,0.005,0.014,0.008   C462.378,100.325,462.374,100.322,462.369,100.32 M462.348,100.308c0.005,0.003,0.01,0.006,0.016,0.009   C462.358,100.314,462.353,100.311,462.348,100.308 M462.327,100.296c0.006,0.004,0.012,0.007,0.019,0.011   C462.339,100.303,462.333,100.3,462.327,100.296 M462.308,100.285c0.005,0.003,0.011,0.007,0.017,0.01   C462.319,100.292,462.314,100.289,462.308,100.285 M462.288,100.274c0.005,0.003,0.011,0.006,0.016,0.01   C462.299,100.28,462.294,100.277,462.288,100.274 M462.248,100.251c0.013,0.008,0.025,0.015,0.038,0.022   C462.273,100.265,462.261,100.258,462.248,100.251 M462.229,100.239c0.006,0.003,0.012,0.007,0.017,0.01   C462.241,100.246,462.235,100.243,462.229,100.239 M462.171,100.204c0.019,0.012,0.038,0.023,0.057,0.035   C462.208,100.227,462.19,100.215,462.171,100.204 M462.151,100.191c0.006,0.004,0.012,0.008,0.018,0.012   C462.164,100.199,462.157,100.195,462.151,100.191 M462.113,100.167c0.013,0.008,0.025,0.016,0.038,0.024   C462.138,100.183,462.126,100.175,462.113,100.167 M462.095,100.156c0.006,0.004,0.012,0.008,0.018,0.012   C462.107,100.163,462.101,100.159,462.095,100.156 M463.105,81.964c0,0-2.997,5.201-3.687,7.787   c-0.431,3.38-0.453,8.388,2.675,10.404c-3.121-2.012-3.104-7.003-2.677-10.383C460.094,87.196,463.105,81.964,463.105,81.964"/>
	<path fill="#0097FF" d="M479.344,201.248c-0.13,15.553-4.743,28.662-5.224,39.918c0.005,0.007,0.009,0.013,0.014,0.02   C474.609,229.924,479.215,216.814,479.344,201.248 M479.345,201.15c0,0.026,0,0.054-0.001,0.08   C479.345,201.204,479.345,201.177,479.345,201.15 M479.346,201.053c0,0.023,0,0.043,0,0.066   C479.345,201.097,479.346,201.075,479.346,201.053 M479.346,200.958c0,0.019,0,0.037,0,0.056   C479.346,200.995,479.346,200.976,479.346,200.958 M479.347,200.862c0,0.015,0,0.031,0,0.047   C479.346,200.893,479.346,200.878,479.347,200.862 M479.347,200.77c0,0.013,0,0.025,0,0.039   C479.347,200.795,479.347,200.783,479.347,200.77 M479.347,200.42c0,0.004,0,0.008,0,0.013   C479.347,200.428,479.347,200.425,479.347,200.42 M479.347,200.322c0,0.007,0,0.014,0,0.02   C479.347,200.335,479.347,200.329,479.347,200.322 M479.346,200.222c0,0.009,0,0.017,0,0.026   C479.346,200.24,479.346,200.23,479.346,200.222 M479.346,200.123c0,0.01,0,0.02,0,0.029   C479.346,200.142,479.346,200.132,479.346,200.123 M479.345,200.021c0,0.011,0,0.024,0,0.035   C479.345,200.045,479.345,200.032,479.345,200.021 M479.344,199.921c0,0.012,0,0.023,0,0.036   C479.345,199.945,479.344,199.933,479.344,199.921 M479.343,199.814c0,0.015,0,0.03,0,0.045   C479.344,199.844,479.344,199.829,479.343,199.814 M479.342,199.662L479.342,199.662L479.342,199.662   c0,0.033,0.001,0.066,0.001,0.099C479.342,199.728,479.342,199.695,479.342,199.662"/>
	<path fill="#0044C3" d="M479.342,199.662L479.342,199.662c0,0.386-1.213,0.665-3.285,0.86c-0.55,3.342-1.486,7.005-2.807,11.278   c-2.943,9.522-4.63,17.852-1.242,25.581c0.575,0.773,1.052,1.71,1.447,2.76c0.21,0.343,0.432,0.685,0.665,1.025   c0.481-11.256,5.095-24.365,5.224-39.918c0-0.006,0-0.012,0-0.017c0-0.026,0-0.054,0.001-0.08c0-0.01,0-0.021,0-0.031   c0-0.023,0-0.043,0-0.066c0-0.013,0-0.027,0-0.039c0-0.019,0-0.037,0-0.056c0-0.016,0-0.033,0-0.049c0-0.015,0-0.031,0-0.047   c0-0.019,0-0.035,0-0.054c0-0.013,0-0.025,0-0.039c0-0.111,0-0.226,0-0.337c0-0.004,0-0.008,0-0.013c0-0.026,0-0.052,0-0.078   c0-0.007,0-0.014,0-0.02c0-0.025,0-0.049,0-0.074c0-0.009,0-0.017,0-0.026c0-0.024,0-0.046,0-0.07c0-0.01,0-0.02,0-0.029   c0-0.023,0-0.044,0-0.067c0-0.011,0-0.024,0-0.035c0-0.022,0-0.042,0-0.064c0-0.012,0-0.023,0-0.036c0-0.021,0-0.042,0-0.062   c0-0.015,0-0.03,0-0.045c0-0.018,0-0.035,0-0.053C479.342,199.727,479.342,199.695,479.342,199.662"/>
	<path fill="#0074FF" d="M457.388,89.749c-0.223,0.628-0.36,1.256-0.388,1.885c-0.151,3.33-0.059,5.744,1.725,9.571   c1.231-0.227,2.453-0.518,3.681-0.864c-0.006-0.003-0.012-0.007-0.018-0.01c-0.002-0.001-0.004-0.002-0.005-0.003   c-0.005-0.003-0.009-0.005-0.014-0.008c-0.002-0.001-0.003-0.002-0.005-0.003c-0.005-0.003-0.01-0.006-0.016-0.009   c-0.001,0-0.002-0.001-0.003-0.001c-0.006-0.004-0.012-0.007-0.019-0.011c-0.001,0-0.001-0.001-0.002-0.001   c-0.005-0.003-0.011-0.006-0.017-0.01c-0.001-0.001-0.002-0.001-0.003-0.002c-0.005-0.003-0.011-0.006-0.016-0.01   c-0.001,0-0.001-0.001-0.002-0.001c-0.013-0.007-0.025-0.015-0.038-0.022c-0.001,0-0.001-0.001-0.002-0.001   c-0.006-0.003-0.012-0.007-0.017-0.01c-0.001,0-0.001-0.001-0.002-0.001c-0.019-0.011-0.038-0.023-0.057-0.035   c0,0-0.001,0-0.001-0.001c-0.006-0.004-0.012-0.008-0.018-0.012l0,0c-0.013-0.008-0.025-0.016-0.038-0.024l0,0   c-0.006-0.004-0.012-0.008-0.018-0.012c0,0-0.001,0-0.001-0.001c-3.128-2.016-3.106-7.024-2.675-10.404   c-0.062,0.23-0.105,0.44-0.126,0.624C458.953,90.274,458.269,90.062,457.388,89.749"/>
	<path fill="#0097FF" d="M462.406,100.34L462.406,100.34c-1.228,0.347-2.45,0.637-3.681,0.864c1.163,2.494,3.044,5.589,6.044,9.929   c7.605,11-5.473,36.29,3.605,55.625c7,14.908,9.534,22.508,7.682,33.762c2.072-0.194,3.285-0.473,3.285-0.86l0,0l0,0l0,0   c0-0.016,0-0.032,0-0.048c-0.003-12.091-4.687-19.858-4.685-32.469c0.001-4.297,0.545-9.158,2.005-14.943   c3.915-15.519,5.366-23.847,5.367-29.27c0.001-4.729-1.101-7.25-2.633-10.405C476.057,105.655,470.978,105.65,462.406,100.34"/>
	<path fill="#000F36" d="M463.395,81.382c-2.473,2.933-5.044,5.658-6.006,8.367c0.881,0.313,1.565,0.525,1.904,0.626   c0.021-0.183,0.064-0.393,0.126-0.624c0.69-2.586,3.687-7.787,3.687-7.787l0,0C463.207,81.768,463.297,81.577,463.395,81.382"/>
	<path fill="#FFFFFF" d="M382.925,238.128H289.67v-49.297c0-1.655,1.341-2.996,2.996-2.996h87.264c1.654,0,2.995,1.341,2.995,2.996   V238.128z"/>
	<path fill="#9FE2FF" d="M378.493,238.128h-84.391v-45.09c0-1.505,1.22-2.725,2.726-2.725h78.94c1.505,0,2.726,1.22,2.726,2.725   V238.128z"/>
	<path fill="#9FE2FF" d="M399.13,263.897h-85.64c-3.223,0-6.281-1.422-8.358-3.885l-13.993-16.597   c-0.949-1.125-1.47-2.55-1.47-4.022v-1.266l93.255,3.545l17.105,20.288C400.676,262.726,400.132,263.897,399.13,263.897z"/>
	<path fill="#FFFFFF" d="M399.13,260.352h-85.64c-3.223,0-6.281-1.422-8.358-3.886l-15.462-18.339h93.255l17.105,20.287   C400.676,259.18,400.132,260.352,399.13,260.352z"/>
	<path fill="#9FE2FF" d="M378.726,252.773h-60.773c-1.699,0-3.311-0.749-4.406-2.048l-6.646-7.883   c-0.595-0.706-0.093-1.785,0.83-1.785h59.719c1.733,0,3.378,0.765,4.495,2.09l7.255,8.604   C379.541,252.156,379.254,252.773,378.726,252.773z"/>
	<polygon fill="#E0F6FF" points="360.689,487.869 374.069,383.357 381.851,384.346 368.597,487.864  "/>
	<polygon fill="#E0F6FF" points="454.582,487.866 436.447,379.968 436.569,379.796 443.435,378.632 443.607,378.753    461.948,487.866  "/>
	<path fill="#E0F6FF" d="M402.836,455.111v-73.483h5.665v73.483C408.501,457.315,402.836,457.387,402.836,455.111z"/>
	<path fill="#E0F6FF" d="M328.406,454.646l16.058-89.154l6.005,1.081l-16.059,89.154   C334.111,458.041,328.107,457.024,328.406,454.646z"/>
	<path fill="#0097FF" d="M301.045,70.349c5.363-0.835,10.852-0.044,12.989,6.173c2.397,6.973,5.568,9.467,5.744,12.287   c0.176,2.82-1.241,4.672-1.241,6.742s7.844,4.031,6.646,8.715s-5.992,7.082-13.66,5.556c-5.408-1.076-4.946-8.715-2.137-11.548   c2.81-2.833-0.328-2.937-0.054-6.537c0.184-2.41-0.408-3.739-1.925-5.247c-1.397-1.39-3.579-2.931-6.664-5.611   c-6.437-5.592-6.664,2.959-6.664,2.959l-1.743-3.759L301.045,70.349z"/>
	<path fill="#70C4FF" d="M414.69,163.532c-1.307,3.196-8.134,16.559-8.425,18.883c-0.29,2.324,1.525,3.341,1.743,4.358   c0.218,1.017-1.815,1.961-2.179,3.414c-0.363,1.453,1.001,1.94,0.871,2.687c-0.581,3.341,0.146,13.073,1.162,14.962   c1.017,1.888,8.063,3.341,8.934,5.374c0.872,2.034,2.033,7.626,0.509,11.839c-1.525,4.212-4.213,5.447-4.213,5.447l39.147-0.581   c0,0-9.731-8.57-9.949-15.978c-0.219-7.408,2.832-10.459,2.832-10.459L414.69,163.532"/>
	<path fill="#FF1D25" d="M429.004,156.269c9.183,0,24.543,7.299,25.741,20.155c1.198,12.856-10.127,33.284-15.143,33.337   c-19.137,0.201-9.458-16.726-15.184-23.742c-0.891-1.091-2.462-1.324-3.664-0.589c-2.1,1.283-1.823,7.323-5.665,10.822   c-0.882,0.804-4.02-1.007-4.248-2.179c-0.376-1.921,4.03-4.685,2.832-7.299c-1.198-2.615-4.288-4.025-0.763-9.696   c5.012-8.062-0.871-6.537-1.852-11.112C410.079,161.389,412.366,156.269,429.004,156.269"/>
	<path fill="#FFFFFF" d="M418.015,219.166c-1,4.212-5.358,9.877-5.358,9.877l37.621-2.601c0,0-5.62-3.718-6.784-7.812   C434.591,224.685,418.015,219.166,418.015,219.166"/>
	<path fill="#001634" d="M268.641,419.142c-4.008-3.883-6.262-22.856,6.854-15.673c13.224,7.243,35.758,10.934,33.29,24.775   c-2.402,13.47-11.382,10.159-17.338,3.287C283.893,422.816,277.938,428.148,268.641,419.142z"/>
	<path fill="#70C4FF" d="M292.226,402.36c0,0-1.014,7.136-1.033,12.976c-0.02,6.282,9.788,14.135,17.612,9.019l1.017-15.068   L292.226,402.36z"/>
	<path fill="#002856" d="M367.126,320.581c-5.189-6.373-27.715-22.472-44.279-32.374c-10.873-6.5-25.171,1.577-25.925,13.587   c-0.968,15.426-1.48,40.187-5.185,104.027c-0.405,6.975,18.021,11.156,18.084,3.465c0.206-24.759,15.695-37.183,13.141-74.955   c-0.153-2.269,2.628-3.474,4.164-1.796c17.643,19.268,37.273,41.911,37.273,41.911L367.126,320.581z"/>
	<path fill="#70C4FF" d="M340.246,259.402c0,0-12.637,8.062-14.38,3.486c-1.743-4.576-5.774-2.615-8.062-5.992   c-2.288-3.377-2.233-7.789,3.132-9.506c5.21-1.666,10.413-1.512,13.537,2.315c1.605,1.968,1.688,1.198,2.342-0.108   c0.593-1.186,2.179-1.885,3.105-1.635c0.926,0.25-2.397,7.136-1.253,9.206C339.81,259.238,340.246,259.402,340.246,259.402z"/>
	<polygon fill="#70C4FF" points="351.688,401.681 351.486,416.355 367.744,416.89 368.553,401.681  "/>
	<path fill="#001634" d="M351.583,410.092c0.031,4.64,15.909,7.446,16.487,1.339c-0.356,5.447-0.41,6.997-0.645,10.078   c-0.291,3.812-15.843,2.904-15.915-1.09C351.424,415.618,351.583,410.092,351.583,410.092z"/>
	<path fill="#002856" d="M351.484,360.316c0,0-0.031,31.979,0,39.823c0.031,7.844,16.342,9.168,17.068,1.542   c0.966-10.141,3.85-37.522,3.85-37.522L351.484,360.316z"/>
	<path fill="#003A77" d="M471.257,236.524c5.574,5.338,3.648,24.095,3.648,24.095L371.622,374.446   c-9.124-9.124-23.041-37.122-24.052-53.626c-0.277-4.534,2.371-8.73,6.559-10.49c21.05-8.847,27.516-23.531,27.516-38.072   c0-11.767-3.486-34.209,1.525-39.002c5.012-4.794,27.623-5.23,30.177-7.191c2.554-1.961,3.1-2.972,3.1-2.972   c8.855,5.368,23.67,4.388,29.992,0C456.383,233.179,464.116,229.686,471.257,236.524"/>
	<polygon fill="#001634" points="373.009,341.544 404.602,259.692 386.881,274.073 380.925,289.439 350.626,325.421  "/>
	<path fill="#C1ECFF" d="M372.737,351.909c0,0-40.157-41.806-41.791-43.875c-1.634-2.07-0.641-7.539,1.429-5.469   c2.07,2.069,44.836,35.149,44.836,35.149L372.737,351.909z"/>
	<path fill="#FFFFFF" d="M372.737,346.983c0,0-40.157-41.805-41.791-43.875c-1.634-2.069,10.132-4.467,12.201-2.396   c2.07,2.07,34.063,34.203,34.063,34.203L372.737,346.983z"/>
	<path fill="#003A77" d="M330.005,286.419c-5.912-15.326-6.759-22.272-8.134-25.711c-1.453-3.631,15.979-8.273,17.576-5.371   c1.598,2.902,14.525,31.082,14.525,31.082s22.591-50.259,29.197-53.164s20.327-1.748,17.285,11.911   c-4.259,19.127-9.765,30.616-16.446,42.237c-4.292,7.464-8.513,14.326-18.503,27.325c-3.501,4.556-7.827,6.907-10.443,7.206   C347.747,322.769,331.702,290.819,330.005,286.419z"/>
	<path fill="#0072C3" d="M354.956,284.255c1.746-0.469,5.292-1.946,6.209-6.333c1.229-5.884,5.327-14.765,8.897-19.289   c3.57-4.523,9.047-5.114,11.88-12.252c2.005-5.054,2.886-8.701,3.807-14.709C377.375,233.3,359.37,274.597,354.956,284.255z"/>
	<path fill="#0097FF" d="M452.641,190.249c-0.001,0.002-0.002,0.005-0.002,0.007C452.64,190.253,452.64,190.251,452.641,190.249    M452.653,190.212c-0.001,0.003-0.002,0.005-0.002,0.007C452.652,190.217,452.653,190.214,452.653,190.212 M452.672,190.156   c-0.003,0.009-0.006,0.018-0.009,0.027C452.666,190.173,452.669,190.166,452.672,190.156 M452.689,190.104   c-0.004,0.013-0.008,0.025-0.012,0.037C452.681,190.128,452.685,190.116,452.689,190.104 M454.755,176.537   c0.355,4.068-0.531,8.881-2.065,13.563C454.225,185.418,455.11,180.605,454.755,176.537 M454.752,176.503   c0.001,0.011,0.002,0.022,0.003,0.033C454.754,176.524,454.753,176.514,454.752,176.503 M454.749,176.467   c0.001,0.009,0.002,0.019,0.003,0.028C454.751,176.486,454.75,176.477,454.749,176.467 M454.742,176.388   c0.001,0.012,0.002,0.024,0.003,0.036c0.001,0.012,0.002,0.023,0.003,0.035c-0.001-0.011-0.002-0.024-0.003-0.035   C454.744,176.411,454.743,176.4,454.742,176.388 M454.738,176.35c0.001,0.01,0.002,0.021,0.003,0.031   C454.74,176.371,454.739,176.36,454.738,176.35 M447.389,163.413c3.903,3.281,6.83,7.633,7.349,12.933   C454.22,171.045,451.293,166.694,447.389,163.413 M447.336,163.368c0.017,0.015,0.035,0.03,0.053,0.044   C447.371,163.398,447.353,163.383,447.336,163.368 M447.312,163.348c0.004,0.003,0.009,0.007,0.013,0.01   C447.321,163.356,447.316,163.351,447.312,163.348 M447.289,163.33c0.002,0.002,0.005,0.004,0.007,0.006   C447.294,163.334,447.291,163.331,447.289,163.33"/>
	<path fill="#0044C3" d="M442.371,214.912c0.167,1.234,0.569,2.488,1.12,3.719c0.001,0,0.001,0,0.001-0.001   C442.941,217.4,442.538,216.146,442.371,214.912 M442.367,214.883c0.001,0.009,0.002,0.019,0.004,0.028   C442.37,214.901,442.369,214.892,442.367,214.883 M442.363,214.851c0.001,0.009,0.002,0.018,0.004,0.027   C442.366,214.869,442.364,214.86,442.363,214.851 M442.36,214.825c0.001,0.005,0.001,0.01,0.002,0.015   C442.361,214.835,442.361,214.83,442.36,214.825 M442.357,214.803c0,0.003,0.001,0.005,0.001,0.008   C442.358,214.808,442.357,214.805,442.357,214.803 M442.352,214.764c0,0.001,0,0.002,0,0.003   C442.353,214.766,442.353,214.765,442.352,214.764 M442.294,214.042c0,0.002,0,0.003,0,0.005   C442.294,214.046,442.294,214.044,442.294,214.042 M442.293,214.021c0,0.001,0,0.002,0,0.002   C442.293,214.022,442.293,214.021,442.293,214.021 M442.291,213.974c0,0.005,0,0.01,0.001,0.015   C442.291,213.984,442.291,213.979,442.291,213.974 M442.29,213.936L442.29,213.936c0,0.009,0.001,0.018,0.001,0.026   C442.29,213.954,442.29,213.945,442.29,213.936L442.29,213.936 M442.288,213.886c0,0.004,0,0.008,0,0.012   C442.289,213.894,442.289,213.89,442.288,213.886 M442.287,213.847c0,0.004,0,0.006,0,0.01   C442.288,213.854,442.288,213.85,442.287,213.847 M442.286,213.795c0,0.006,0,0.012,0,0.017   C442.286,213.807,442.286,213.801,442.286,213.795 M442.285,213.756c0,0.006,0,0.014,0,0.02   C442.286,213.769,442.285,213.763,442.285,213.756 M442.284,213.697c0,0.018,0.001,0.036,0.001,0.055   C442.285,213.733,442.284,213.715,442.284,213.697 M442.985,207.746c-0.003,0.003-0.006,0.006-0.009,0.009   c-0.432,1.525-0.742,3.488-0.692,5.941C442.234,211.233,442.55,209.274,442.985,207.746"/>
	<path fill="#0074FF" d="M442.976,207.755c-1.264,1.265-2.43,1.995-3.374,2.005c-0.112,0.001-0.226,0.002-0.336,0.002   c-0.429,0-0.844-0.009-1.244-0.026c-0.249,3.944,0.84,7.239,2.791,10.303c0.946-0.377,1.846-0.842,2.678-1.408   c-0.552-1.231-0.954-2.485-1.12-3.719c0,0,0-0.001,0-0.001c-0.001-0.009-0.003-0.019-0.004-0.028c0-0.001,0-0.003-0.001-0.004   c-0.001-0.009-0.002-0.018-0.004-0.027c0-0.004-0.001-0.007-0.001-0.011c-0.001-0.005-0.001-0.01-0.002-0.015   c-0.001-0.005-0.001-0.01-0.002-0.015c0-0.003-0.001-0.005-0.001-0.008c-0.001-0.012-0.003-0.023-0.004-0.035   c0-0.001,0-0.002,0-0.003c-0.029-0.24-0.048-0.479-0.059-0.717c0-0.002,0-0.003,0-0.005c0-0.006-0.001-0.013-0.001-0.019   c0-0.001,0-0.002,0-0.002c0-0.011-0.001-0.021-0.001-0.032c0-0.005,0-0.01-0.001-0.015c0-0.004,0-0.008,0-0.011   c0-0.009-0.001-0.018-0.001-0.026l0,0c0-0.013-0.001-0.025-0.001-0.038c0-0.004,0-0.008,0-0.012c0-0.01-0.001-0.019-0.001-0.029   c0-0.004,0-0.006,0-0.01c0-0.012-0.001-0.023-0.001-0.034c0-0.006,0-0.012,0-0.017c0-0.006,0-0.013,0-0.019c0-0.006,0-0.014,0-0.02   c0-0.002,0-0.003,0-0.005c0-0.018-0.001-0.037-0.001-0.055c0,0,0-0.001,0-0.001C442.234,211.243,442.544,209.28,442.976,207.755"/>
	<path fill="#0044C3" d="M443.497,218.64c0.001,0.003,0.002,0.006,0.003,0.01c0.512,1.14,1.152,2.259,1.852,3.324   c0.326,0.407,0.672,0.797,1.023,1.165c0.022-0.015,0.043-0.029,0.065-0.044c1.316,1.335,2.594,2.432,3.836,3.347l0,0   c-1.243-0.915-2.52-2.012-3.836-3.347l-0.064,0.039c-0.36-0.377-0.711-0.776-1.044-1.194   C444.639,220.881,444.005,219.77,443.497,218.64"/>
	<path fill="#0074FF" d="M443.5,218.649c0.335,1.164,1.03,2.298,1.852,3.324C444.652,220.909,444.012,219.789,443.5,218.649"/>
	<path fill="#001125" d="M434.669,157.023c1.006,0.947,2.436,2.057,4.331,2.986c4.25,2.083,21.25,12,9,28.5   c-6.725,9.059-9.633,15.765-9.977,21.227c0.4,0.017,0.815,0.026,1.244,0.026c0.11,0,0.224-0.001,0.336-0.002   c0.943-0.01,2.109-0.74,3.374-2.005c0.003-0.003,0.006-0.006,0.009-0.009c0-0.001,0-0.002,0.001-0.003   c3.293-3.301,7.248-10.225,9.653-17.488c0.001-0.002,0.002-0.005,0.002-0.007c0.003-0.01,0.006-0.02,0.01-0.03   c0.001-0.003,0.002-0.005,0.002-0.007c0.003-0.01,0.006-0.019,0.01-0.029c0.003-0.009,0.006-0.018,0.009-0.027   c0.001-0.004,0.003-0.011,0.005-0.015c0.004-0.013,0.008-0.025,0.012-0.037c0-0.001,0.001-0.003,0.001-0.004   c1.535-4.682,2.42-9.495,2.065-13.563l0-0.001c-0.001-0.011-0.002-0.022-0.003-0.033c0-0.002,0-0.006-0.001-0.007   c-0.001-0.009-0.002-0.019-0.003-0.028c0-0.003,0-0.005-0.001-0.008c-0.001-0.012-0.002-0.023-0.003-0.035   c-0.001-0.012-0.002-0.024-0.003-0.036c0-0.002,0-0.004-0.001-0.006c-0.001-0.01-0.002-0.021-0.003-0.031c0-0.001,0-0.003,0-0.004   c-0.518-5.3-3.445-9.652-7.349-12.933l-0.001-0.001c-0.017-0.015-0.035-0.03-0.053-0.044c-0.004-0.004-0.007-0.006-0.012-0.01   c-0.004-0.003-0.009-0.007-0.013-0.01c-0.006-0.005-0.01-0.008-0.016-0.013c-0.002-0.002-0.005-0.004-0.007-0.006   C443.545,160.213,438.923,158.076,434.669,157.023"/>
	<path fill="#0097FF" d="M443.493,218.63c-0.001,0-0.001,0-0.001,0.001c-0.832,0.566-1.732,1.03-2.678,1.408   c0.269,0.422,0.553,0.838,0.853,1.253c0.706,0.973,1.692,1.936,2.872,2.901c0.669-0.324,1.284-0.677,1.836-1.054   c-0.352-0.368-0.697-0.758-1.023-1.165c-0.822-1.026-1.516-2.16-1.852-3.324c-0.001-0.004-0.002-0.006-0.003-0.01   C443.495,218.636,443.494,218.633,443.493,218.63"/>
	<path fill="#002277" d="M446.439,223.093c-0.022,0.015-0.043,0.03-0.065,0.044c-0.552,0.377-1.167,0.73-1.836,1.054   c8.017,6.553,24.945,13.168,23.09,23.483c-0.967,5.371,1.134,11.63,3.715,16.868l3.561-3.925c0,0,0.321-3.125,0.322-7.188   c0.001-4.238-0.348-9.498-1.772-13.29c-0.395-1.051-0.871-1.987-1.447-2.76c-0.234-0.314-0.484-0.601-0.751-0.857   c-6.195-5.933-12.837-4.089-20.981-10.084C449.033,225.526,447.756,224.429,446.439,223.093"/>
	<path fill="#70C4FF" d="M207.287,92.576c0.872,6.972,1.743,11.33,0.872,14.816c-0.872,3.486-2.615,7.844-5.229,8.716   c-2.615,0.872-5.229,0.872-6.101,2.614c-0.872,1.743-1.743,5.229,0.872,8.716c2.615,3.486-13.073,1.743-13.073,1.743l-7.844-7.844   l5.229-13.073L207.287,92.576"/>
	<path fill="#002856" d="M191.6,76.888c6.101-0.872,11.509,0.961,14.816,2.615c5.229,2.615,9.587,9.587,6.101,18.302   c-1.743,4.358-5.229,7.844-6.973,9.587c-1.743,1.743-2.614,0.872-1.743-1.743c0.872-2.615,0.872-6.101-1.743-4.358   s0.872,6.972-1.743,9.587s-6.972,6.101-10.458,5.229c-3.486-0.872-7.844-3.486-8.715-5.229s0.872-19.174,0.872-19.174L191.6,76.888   "/>
	<path fill="#70C4FF" d="M145.794,262.091c3.05,7.407,10.864,13.43,15.305,25.71c3.559,9.842-1.131,11.482,1.048,28.922   c1.271,10.177,8.128,32.667,8.972,42.763c0.588,7.032,0,10.459,0,10.459l15.034,3.486l9.587-4.141c0,0-12.179-1.034-14.648-13.944   c-0.924-4.828-0.799-79.093-0.799-79.093L145.794,262.091"/>
	<path fill="#70C4FF" d="M192.652,165.785c4.61,4.552,30.706,26.485,37.682,32.828c4.104,3.732,4.823,8.715,5.769,9.424   c2.124,1.593,4.303,0.429,6.135-0.736c1.57-0.998,2.885-1.997,3.691-1.257c1.432,1.315,3.005,2.976,3.979,3.771   c1.089,0.891,2.299-0.095,1.195-1.522c-1.104-1.427-8.089-10.947-11.043-11.578c-2.954-0.631-23.26-30.876-29.855-33.944   C203.61,159.704,192.652,165.785,192.652,165.785"/>
	<path fill="#002856" d="M138.763,342.6c2.505-2.135,8.97-4.467,11.148-1.852c2.179,2.615,0.459,7.913-2.324,9.805   c-2.724,1.853-4.466,4.903-5.665,7.845c-1.198,2.941-2.942,7.408-7.844,7.408c-4.902,0-4.358-1.09-4.902-4.467   c-0.545-3.378-0.218-4.521,0.981-7.408C131.354,351.042,138.763,342.6,138.763,342.6"/>
	<path fill="#70C4FF" d="M117.808,259.476c1.017,4.648,5.375,11.04,5.375,18.738c0,7.699-2.206,9.669,0.119,29.134   c1.282,10.735,6.709,31.874,6.709,38.12v7.237c0,2.581,2.093,4.674,4.674,4.674h0.674c2.582,0,4.674-2.093,4.674-4.674l2.13-64.904   c0-6.392,0-22.079,0-22.079L117.808,259.476"/>
	<path fill="#0097FF" d="M150.898,343.853c-0.001,0.509-0.059,1.033-0.167,1.554c0.003,0.007,0.006,0.015,0.009,0.022   C150.846,344.9,150.902,344.369,150.898,343.853 M142.162,274.03c0,4.792,0,10.5,0,13.772l-1.762,53.686   c0.001,0,0.002-0.001,0.002-0.001l1.76-53.616C142.163,284.583,142.163,278.836,142.162,274.03L142.162,274.03"/>
	<path fill="#0086FF" d="M150.731,345.408c-0.393,1.91-1.447,3.798-2.799,4.889c0.03-0.004,0.06-0.008,0.091-0.012   c1.319-1.11,2.34-2.975,2.717-4.855C150.737,345.422,150.734,345.415,150.731,345.408"/>
	<path fill="#001856" d="M146.822,339.658c-2.068,0-4.569,0.86-6.421,1.902l0.002-0.073c-0.001,0.001-0.002,0.001-0.002,0.001   l-0.206,6.282c1.6,1.595,3.849,2.606,6.459,2.606c0.417,0,0.843-0.026,1.278-0.079c1.353-1.091,2.406-2.979,2.799-4.889   c0.107-0.522,0.165-1.045,0.167-1.554c-0.008-1.15-0.308-2.223-0.986-3.037C149.223,339.99,148.106,339.658,146.822,339.658"/>
	<path fill="#0074FF" d="M136.831,272.878c-0.473,4.437-1.011,7.649-1.059,9.252c-0.29,9.664,4.499,16.408,4.138,23.456   c-0.361,7.048-0.574,27.394-2.066,34.071c-0.685,3.064,0.3,6.068,2.35,8.112l0.206-6.282l1.762-53.686c0-3.272,0-8.979,0-13.772   C140.326,273.664,138.539,273.278,136.831,272.878"/>
	<path fill="#002856" d="M113.837,186.921c-4.847,11.206-4.561,16.632-3.922,34.498c0.807,22.573-3.701,25.676-2.176,32.103   c1.525,6.428,7.894,9.33,14.087,14.089c7.056,5.421,48.237,12.474,58.466,8.643c-0.653-24.911-14.651-51.832-14.598-63.695   L113.837,186.921"/>
	<path fill="#FF1D25" d="M199.684,163.48c-4.358,2.615-5.663,7.402-12.637,11.602c-12.783,7.699-20.979,19.671-21.353,37.477   c-10.459,2.614-49.586-9.166-51.857-25.638c6.483-15.34,12.202-5.157,33.373-42.754c11.422-20.285,26.168-25.708,32.188-23.701   c2.615,0.872,0,5.229,5.229,6.101c5.23,0.872,10.825-0.405,11.949-1.074c1.124-0.669,9.84,1.945,11.582,4.56   C209.902,132.667,199.684,163.48,199.684,163.48"/>
	<path fill="#70C4FF" d="M208.539,130.052c5.302,2.615,5.229,36.605,4.358,47.063s3.152,23.822,3.152,34.281   c0,10.459,2.949,24.113,2.949,26.727s0.393,3.965,2.614,1.743c1.743-1.743,2.615-2.615,3.486-3.486s1.743-0.871,0.872,1.743   s-2.615,4.357,0,3.486c2.615-0.872,5.447-1.58,6.455-1.907c1.007-0.326,1.661,0.79,0.844,1.253   c-0.817,0.464-5.121,2.425-5.801,2.778c-0.681,0.354-0.354,0.463,0.191,0.49c0.545,0.027,7.299,0,7.98,0   c0.681,0,1.035,1.253,0.681,1.771c-0.354,0.518-0.817,2.996-3.786,3.622c-2.969,0.627-12.174,0.627-13.891,0.409   c-1.715-0.219-3.677-1.716-4.466-3.351c-0.79-1.634-12.404-37.631-13.336-50.096c-1.087-14.524-5.958-31.503-5.102-38.348   C197.148,146.975,199.811,125.747,208.539,130.052"/>
	<path fill="#002277" d="M207.795,129.365c-0.038,0-0.1,0.013-0.204,0.04c0.144,0.133,0.272,0.266,0.383,0.401   c0.185,0.07,0.374,0.152,0.565,0.247c3.924,1.935,4.904,21.057,4.795,35.105h0c0.109-14.048-0.871-33.17-4.795-35.105   C207.669,129.623,207.965,129.365,207.795,129.365"/>
	<path fill="#0074FF" d="M213.335,165.157c-0.037,4.822-0.203,9.046-0.422,11.772C213.132,174.203,213.297,169.978,213.335,165.157   L213.335,165.157"/>
	<path fill="#0093FF" d="M232.472,249.63C232.472,249.63,232.471,249.63,232.472,249.63   C232.471,249.63,232.472,249.63,232.472,249.63 M232.483,249.627c-0.001,0-0.001,0-0.002,0   C232.482,249.628,232.483,249.627,232.483,249.627 M232.497,249.625c-0.002,0-0.003,0.001-0.005,0.001   C232.493,249.625,232.495,249.625,232.497,249.625 M232.507,249.622c-0.002,0-0.003,0.001-0.005,0.001   C232.504,249.623,232.506,249.623,232.507,249.622 M232.52,249.62c-0.002,0-0.004,0.001-0.006,0.001   C232.515,249.621,232.517,249.62,232.52,249.62 M232.535,249.617c-0.004,0.001-0.007,0.001-0.011,0.002   C232.527,249.618,232.531,249.617,232.535,249.617 M229.816,244.236c0.001,0,0.002,0,0.003,0l0,0   C229.818,244.236,229.817,244.236,229.816,244.236 M232.918,244.231c-0.994,0.003-2.102,0.005-3.046,0.005   C230.816,244.236,231.923,244.234,232.918,244.231 M227.085,244.053c0.001,0.109,0.249,0.155,0.574,0.171   c0.014,0.001,0.031,0.001,0.052,0.002c-0.021-0.001-0.038-0.001-0.052-0.002C227.334,244.208,227.086,244.163,227.085,244.053    M225.916,241.628c-0.434,0.142-0.743,0.208-0.953,0.208l0,0l0,0C225.173,241.836,225.482,241.77,225.916,241.628 M219.885,240.986   c0.001,0,0.002,0,0.003,0l0,0C219.887,240.986,219.886,240.986,219.885,240.986 M221.487,239.991   c-0.701,0.68-1.212,0.985-1.58,0.995C220.275,240.975,220.785,240.671,221.487,239.991 M232.781,239.644   c-0.112,0-0.231,0.018-0.355,0.059c-1.008,0.327-3.84,1.035-6.455,1.907c-0.014,0.005-0.027,0.009-0.04,0.013   c0.013-0.004,0.027-0.009,0.04-0.013c2.615-0.872,5.447-1.58,6.455-1.907C232.55,239.662,232.669,239.644,232.781,239.644    M232.783,239.644L232.783,239.644c0.003,0,0.006,0,0.009,0C232.789,239.644,232.786,239.644,232.783,239.644 M225.962,238.149   C225.962,238.149,225.962,238.149,225.962,238.149C225.962,238.149,225.962,238.149,225.962,238.149 M226.015,237.988   c0,0.001-0.001,0.003-0.001,0.004C226.014,237.991,226.014,237.99,226.015,237.988 M225.099,236.38L225.099,236.38   c-0.872,0.871-1.743,1.743-3.486,3.486c-0.006,0.006-0.013,0.013-0.019,0.019c0.006-0.006,0.013-0.013,0.019-0.019   C223.356,238.124,224.227,237.251,225.099,236.38L225.099,236.38 M225.965,235.86c-0.229,0.003-0.54,0.198-0.851,0.506   C225.425,236.058,225.736,235.863,225.965,235.86 M225.971,235.859L225.971,235.859c0.001,0,0.002,0,0.002,0   C225.972,235.859,225.971,235.859,225.971,235.859"/>
	<path fill="#001125" d="M207.591,129.405c-0.062,0.016-0.139,0.037-0.235,0.064c0.026,0.054,0.053,0.11,0.079,0.164   c0.177,0.046,0.357,0.104,0.539,0.173C207.863,129.671,207.735,129.538,207.591,129.405"/>
	<path fill="#0074FF" d="M207.435,129.632c4.393,9.204,3.979,15.402,3.979,19.034c0,4.599-2.175,32.72-1.707,41.154   c0.581,10.461,4.961,14.312,4.648,20.92c-0.586,12.347,2.483,18.058,2.76,27.744c0.146,5.084,5.807,9.266,11.443,11.536   c1.599-0.084,3.02-0.211,3.913-0.391c0,0,0.001,0,0.001,0c0.003-0.001,0.006-0.001,0.01-0.002c0.001,0,0.001,0,0.002,0   c0.003-0.001,0.006-0.001,0.008-0.002c0.002,0,0.003-0.001,0.005-0.001c0.002,0,0.004-0.001,0.006-0.001   c0.002,0,0.003-0.001,0.005-0.001c0.002,0,0.004-0.001,0.006-0.001c0.002,0,0.004-0.001,0.006-0.001   c0.001,0,0.003-0.001,0.004-0.001c0.004-0.001,0.007-0.001,0.011-0.002l0,0c2.969-0.626,3.432-3.104,3.786-3.622   c0.095-0.139,0.139-0.332,0.139-0.54c0-0.562-0.323-1.231-0.82-1.231l0,0c-0.258,0-1.388,0.004-2.722,0.007   c-0.995,0.003-2.102,0.005-3.046,0.005c-0.018,0-0.035,0-0.053,0h0l0,0c-0.001,0-0.002,0-0.003,0c-1.023,0-1.844-0.003-2.105-0.01   c-0.021-0.001-0.038-0.001-0.052-0.002c-0.325-0.016-0.573-0.062-0.574-0.171c-0.001-0.074,0.11-0.176,0.384-0.319   c0.681-0.354,4.984-2.314,5.801-2.778c0.713-0.404,0.306-1.305-0.478-1.312c-0.003,0-0.006,0-0.009,0c-0.001,0-0.001,0-0.002,0   c-0.112,0-0.231,0.018-0.355,0.059c-1.008,0.327-3.84,1.035-6.455,1.907c-0.014,0.005-0.027,0.009-0.04,0.013   c-0.005,0.002-0.01,0.003-0.015,0.005c-0.434,0.142-0.743,0.208-0.953,0.208l0,0c-1.013,0,0.28-1.549,1-3.687c0,0,0,0,0,0   c0.003-0.008,0.006-0.017,0.008-0.025c0.015-0.044,0.029-0.088,0.043-0.131c0-0.001,0.001-0.003,0.001-0.004   c0.499-1.552,0.35-2.126-0.042-2.129c-0.001,0-0.002,0-0.002,0c-0.002,0-0.004,0-0.005,0c-0.229,0.003-0.54,0.198-0.851,0.506   c-0.005,0.005-0.01,0.01-0.015,0.015l0,0c-0.872,0.871-1.743,1.743-3.486,3.486c-0.006,0.006-0.013,0.013-0.019,0.019   c-0.036,0.036-0.072,0.071-0.107,0.105c-0.702,0.68-1.212,0.985-1.58,0.995c-0.006,0-0.013,0-0.019,0l0,0l0,0   c-0.001,0-0.002,0-0.003,0c-0.722-0.003-0.887-1.167-0.887-2.862l0,0c0-2.614-2.949-16.268-2.949-26.727   c0-9.437-3.276-21.24-3.276-31.139c0-1.071,0.038-2.12,0.124-3.142c0.005-0.061,0.01-0.123,0.015-0.186   c0.219-2.726,0.385-6.951,0.422-11.772c0.109-14.048-0.871-33.17-4.795-35.105c-0.191-0.094-0.38-0.176-0.565-0.247   C207.791,129.736,207.612,129.679,207.435,129.632"/>
	<path fill="#002856" d="M171.391,368.256c-0.272,1.689-1.319,2.99-1.089,5.175c0.465,4.43,15.801,4.721,24.88,3.495   c9.848-1.329,12.528-5.747,8.715-6.619c-3.813-0.871-9.23-1.06-10.73-1.553c-1.144,3.006-8.733,2.372-11.603,2.062   C174.518,370.053,171.391,368.256,171.391,368.256"/>
	<path fill="#0097FF" d="M181.143,355.608c0,0.001,0.001,0.004,0.001,0.004C181.144,355.611,181.144,355.609,181.143,355.608    M181.136,355.569c0,0.002,0.001,0.006,0.002,0.008C181.137,355.575,181.136,355.571,181.136,355.569 M181.127,355.528   c0.001,0.005,0.002,0.008,0.003,0.013C181.129,355.537,181.128,355.532,181.127,355.528 M181.119,355.488   c0.001,0.005,0.002,0.01,0.003,0.014C181.121,355.498,181.12,355.493,181.119,355.488 M181.111,355.447   c0.001,0.005,0.002,0.011,0.003,0.017C181.114,355.459,181.112,355.453,181.111,355.447 M181.103,355.404   c0.001,0.006,0.003,0.014,0.004,0.021C181.106,355.418,181.104,355.411,181.103,355.404 M181.09,355.335   c0.001,0.004,0.001,0.008,0.002,0.012c0.003,0.013,0.005,0.026,0.008,0.04c-0.003-0.013-0.005-0.026-0.008-0.04   C181.091,355.343,181.09,355.339,181.09,355.335 M181.088,355.326c0,0.002,0.001,0.004,0.001,0.006   C181.089,355.33,181.088,355.328,181.088,355.326 M181.087,355.32c0,0.002,0.001,0.004,0.001,0.005   C181.087,355.323,181.087,355.321,181.087,355.32 M181.085,355.312c0,0.002,0.001,0.004,0.001,0.006   C181.086,355.315,181.086,355.314,181.085,355.312 M180.292,276.378L180.292,276.378c-0.005,3.364-0.102,73.91,0.793,78.933   C180.189,350.28,180.288,279.559,180.292,276.378"/>
	<path fill="#0086FF" d="M182.602,360.021c1.986,4.143,5.157,6.449,7.886,7.725c0.001,0,0.002,0,0.003-0.001   C187.761,366.47,184.588,364.164,182.602,360.021 M182.587,359.991c0.005,0.01,0.009,0.018,0.013,0.028   C182.596,360.01,182.592,360,182.587,359.991 M182.573,359.961c0.004,0.008,0.008,0.016,0.011,0.024   C182.58,359.977,182.577,359.969,182.573,359.961 M182.558,359.93c0.004,0.008,0.007,0.015,0.011,0.023   C182.565,359.945,182.562,359.938,182.558,359.93 M182.544,359.9c0.003,0.007,0.007,0.014,0.01,0.021   C182.551,359.914,182.547,359.907,182.544,359.9 M182.532,359.874c0.002,0.005,0.004,0.01,0.007,0.014   C182.537,359.884,182.534,359.879,182.532,359.874 M182.497,359.799c0,0.001,0.001,0.002,0.001,0.003   C182.498,359.801,182.498,359.8,182.497,359.799 M182.483,359.769c0.001,0.001,0.001,0.002,0.002,0.004   C182.485,359.772,182.484,359.77,182.483,359.769 M182.47,359.74c0,0.001,0.001,0.002,0.001,0.002   C182.471,359.741,182.47,359.741,182.47,359.74 M182.457,359.711L182.457,359.711C182.457,359.711,182.457,359.711,182.457,359.711   "/>
	<path fill="#0074FF" d="M180.292,276.378c-3.492,6.134-2.996,11.668-3.462,15.271c-0.677,5.229,2.519,12.492,1.937,18.012   c-0.581,5.519-0.578,17.15-2.032,29.928c-1.454,12.778-1.599,26.836,3.558,28.668c0.908,0.323,2.016,0.455,3.226,0.455   c2.185,0,4.702-0.433,6.969-0.966c-2.729-1.276-5.9-3.582-7.886-7.725c0-0.001-0.001-0.001-0.001-0.002   c-0.005-0.01-0.009-0.018-0.013-0.028c-0.001-0.002-0.002-0.004-0.003-0.006c-0.004-0.008-0.008-0.016-0.011-0.024   c-0.001-0.003-0.003-0.006-0.004-0.008c-0.004-0.008-0.007-0.015-0.011-0.023c-0.001-0.003-0.003-0.006-0.004-0.009   c-0.003-0.007-0.007-0.014-0.01-0.021c-0.002-0.004-0.004-0.008-0.005-0.012c-0.002-0.005-0.005-0.01-0.007-0.014   c-0.011-0.024-0.022-0.048-0.034-0.072c0-0.001-0.001-0.002-0.001-0.003c-0.004-0.009-0.008-0.017-0.012-0.026   c-0.001-0.001-0.001-0.002-0.002-0.004c-0.004-0.009-0.008-0.018-0.012-0.027c0-0.001-0.001-0.002-0.001-0.002   c-0.004-0.009-0.009-0.019-0.013-0.028l0-0.001c-0.55-1.209-1-2.568-1.312-4.098c0-0.001-0.001-0.004-0.001-0.004   c-0.002-0.01-0.004-0.02-0.006-0.031c0-0.002-0.001-0.006-0.002-0.008c-0.002-0.01-0.004-0.018-0.006-0.028   c-0.001-0.005-0.002-0.008-0.003-0.013c-0.002-0.009-0.003-0.017-0.005-0.025c-0.001-0.005-0.002-0.01-0.003-0.014   c-0.002-0.008-0.003-0.016-0.005-0.024c-0.001-0.005-0.002-0.011-0.003-0.017c-0.001-0.007-0.003-0.015-0.004-0.022   c-0.001-0.006-0.003-0.014-0.004-0.021c-0.001-0.006-0.002-0.013-0.004-0.019c-0.003-0.013-0.005-0.026-0.008-0.04   c-0.001-0.004-0.001-0.008-0.002-0.012c0-0.001,0-0.002,0-0.003c0-0.002-0.001-0.004-0.001-0.006c0,0,0-0.001,0-0.001   c0-0.002-0.001-0.004-0.001-0.005c0-0.001,0-0.001,0-0.002c0-0.002-0.001-0.004-0.001-0.006c0,0,0-0.001,0-0.001   C180.19,350.288,180.287,279.742,180.292,276.378"/>
	<path fill="#0097FF" d="M165.694,212.733L165.694,212.733L165.694,212.733 M165.694,212.698c0,0.001,0,0.001,0,0.002   C165.694,212.699,165.694,212.698,165.694,212.698 M165.694,212.663c0,0.001,0,0.001,0,0.002   C165.694,212.664,165.694,212.663,165.694,212.663 M165.694,212.628c0,0.001,0,0.002,0,0.004   C165.694,212.631,165.694,212.628,165.694,212.628 M165.694,212.593c0,0.001,0,0.003,0,0.005   C165.694,212.596,165.694,212.594,165.694,212.593 M187.092,175.054c0,0-0.001,0.001-0.002,0.001   C187.091,175.055,187.092,175.055,187.092,175.054"/>
	<path fill="#001856" d="M165.694,212.558c-0.884,0.221-1.973,0.339-3.228,0.36c0.787,4.709,2.181,6.577,2.937,10.169   c1.162,5.519-2.905,18.157-0.872,28.688c1.353,7.005,10.028,16.929,15.689,22.793c-1.206-24.309-14.445-50.154-14.527-61.835   l0-0.001c0-0.011,0-0.022,0-0.034c0-0.001,0-0.001,0-0.002c0-0.011,0-0.022,0-0.033c0-0.001,0-0.001,0-0.002   c0-0.011,0-0.021,0-0.031c0-0.001,0-0.002,0-0.004c0-0.011,0-0.019,0-0.03c0-0.001,0-0.003,0-0.005   C165.694,212.581,165.694,212.57,165.694,212.558"/>
	<path fill="#001125" d="M194.696,168.273c-4.745,2.345-7.029,5.402-13.696,8.735c-7.049,3.525-18.74,11.222-19.083,25.166   c-0.12,4.87,0.127,8.216,0.55,10.743c1.254-0.021,2.343-0.139,3.228-0.36l0,0c0.374-17.805,8.57-29.778,21.353-37.477   c0.015-0.009,0.029-0.017,0.043-0.026c0,0,0.001-0.001,0.002-0.001C190.789,172.819,192.884,170.422,194.696,168.273"/>
	<path fill="#004475" d="M189.063,80.809L189.063,80.809l-7.05,10.896c0,0-1.115,11.15-1.116,16.506   c0.001-5.356,1.116-16.506,1.116-16.506L189.063,80.809"/>
	<polyline fill="#205286" points="191.164,77.561 191.164,77.562 189.063,80.809 189.063,80.809 191.164,77.561  "/>
	<path fill="#437699" d="M181.243,111.06c0,0.001,0.001,0.001,0.001,0.002C181.244,111.061,181.243,111.061,181.243,111.06    M181.233,111.044c0.002,0.003,0.004,0.006,0.005,0.009C181.237,111.05,181.235,111.047,181.233,111.044 M181.227,111.034   c0.002,0.003,0.004,0.006,0.006,0.009C181.231,111.04,181.229,111.037,181.227,111.034 M181.147,110.889   c0.024,0.048,0.051,0.096,0.08,0.145C181.198,110.984,181.171,110.936,181.147,110.889 M181.141,110.878   c0.002,0.003,0.003,0.007,0.005,0.01C181.145,110.885,181.143,110.881,181.141,110.878"/>
	<path fill="#001834" d="M194.812,76.669c-0.895,0-1.812,0.052-2.746,0.165l-0.901,0.728l-2.101,3.247l-7.05,10.896   c0,0-1.115,11.15-1.116,16.506c0,1.341,0.07,2.318,0.244,2.667l0,0c0.002,0.003,0.003,0.007,0.005,0.01c0,0,0,0,0,0   c0.024,0.048,0.051,0.096,0.08,0.145c0,0,0,0,0,0.001c0.002,0.003,0.004,0.006,0.006,0.009c0,0,0.001,0.001,0.001,0.001   c0.002,0.003,0.004,0.006,0.005,0.009c0.001,0.002,0.003,0.004,0.004,0.007c0,0.001,0.001,0.001,0.001,0.002   c0.387,0.629,1.184,1.353,2.2,2.062c0.31-4.688,0.278-11.868,2.116-13.658c2.402-2.34,6.977-1.094,10.79-4.035   c3.813-2.941,3.625-8.667,3.842-11.645c0.099-1.343,0.168-4.159-1.036-6.717C197.791,76.818,196.333,76.669,194.812,76.669"/>
	<path fill="#002856" d="M183.756,66.429c10.407,1.041,13.945,3.486,13.945,10.458c0,13.972-7.844,13.073-12.202,19.174   c-4.357,6.101-4.357,22.612-4.357,30.504c0,13.944-24.255,23.666-39.22,17.431c-10.458-4.358,10.458-8.715,13.073-16.559   c2.615-7.844-1.743-6.973,0.872-17.431s7.844-10.458,8.715-13.945c0.872-3.486-5.229-9.587-0.872-18.302   C168.068,69.044,175.04,65.558,183.756,66.429z"/>
	<rect x="311.17" y="207.08" fill="#FFFFFF" width="50.163" height="28.423"/>
	<rect x="315.875" y="211.799" fill="#9FE2FF" width="16.312" height="1.609"/>
	<rect x="315.875" y="214.743" fill="#9FE2FF" width="16.312" height="1.609"/>
	<rect x="315.875" y="217.686" fill="#9FE2FF" width="11.959" height="1.609"/>
	<rect x="315.875" y="222.976" fill="#9FE2FF" width="16.312" height="1.609"/>
	<rect x="315.875" y="225.92" fill="#9FE2FF" width="11.625" height="1.608"/>
	<rect x="335.219" y="224.133" fill="#9FE2FF" width="3.062" height="7.017"/>
	<rect x="339.594" y="215.071" fill="#9FE2FF" width="3.062" height="16.079"/>
	<rect x="343.969" y="217.821" fill="#9FE2FF" width="3.062" height="13.329"/>
	<rect x="348.344" y="216.025" fill="#9FE2FF" width="3.062" height="15.125"/>
	<rect x="352.719" y="223.587" fill="#9FE2FF" width="3.062" height="7.562"/>
	<path fill="#E0F6FF" d="M440.712,253.941c13.483,0,45.941-1.185,52.329-0.377c3.424,0.433,6.089,6.028,4.266,8.959   c-10.349,16.646-22.369,34.905-31.065,61.729c-6.755,20.832-10.967,43.523-11.33,53.454c-0.437,11.911-23.968,10.128-58.351,10.018   c-16.639-0.054-33.58-0.866-35.396-1.373c0-0.508,18.139-65.519,18.139-65.519l19.61-52.002c0,0,6.318-11.808,8.772-12.059   C409.31,256.604,434.466,253.941,440.712,253.941z"/>
	<path fill="#FFFFFF" d="M364.917,364.883c6.636-48.28,18.873-80.716,39.423-105.853c4.051-4.955,9.606-1.238,6.101,3.631   c-15.688,21.789-20.19,29.778-27.744,53.601c-4.571,14.417-12.347,58.394-12.782,63.187c-0.437,4.794-8.142,9.878-12.714,4.794   s-21.422-21.935-25.054-25.565c-3.631-3.632,3.922-15.833,9.151-11.04c5.229,4.794,15.084,16.971,17.415,19.983   C361.852,371.677,364.006,371.511,364.917,364.883z"/>
</g>
</svg>