<?xml version="1.0" encoding="UTF-8"?>
<svg width="426px" height="415px" viewBox="0 0 426 415" version="1.1" xmlns="http://www.w3.org/2000/svg" xmlns:xlink="http://www.w3.org/1999/xlink">
    <!-- Generator: Sketch 60 (88103) - https://sketch.com -->
    <title>illustration</title>
    <desc>Created with Sketch.</desc>
    <g id="Marketing" stroke="none" stroke-width="1" fill="none" fill-rule="evenodd">
        <g id="How-It-Works-user" transform="translate(-821.000000, -206.000000)">
            <g id="illustration" transform="translate(1034.000000, 413.500000) scale(-1, 1) translate(-1034.000000, -413.500000) translate(821.000000, 206.000000)">
                <polygon id="Fill-1" fill="#8B572A" points="314 364.091737 314 389.959987 331.333333 395 339.668488 382.905877 340 352"/>
                <polygon id="Fill-2" fill="#8B572A" points="357 226.493849 373.074711 235 386 229.896309 384.602739 211.185193 361.54172 202"/>
                <g id="Group-48">
                    <path d="M85.6533624,89.4751947 C85.6533624,89.4751947 87.349836,76.2061399 82.2604151,68.7184293 C77.1709943,61.2331355 98.8829649,13.9382606 98.8829649,13.9382606 L123.987883,19.7244386 L138.916368,49.3248236 C138.916368,49.3248236 139.253735,51.7055192 131.450921,51.7055192 L127.041053,75.526977 C127.041053,75.526977 115.507924,78.2460456 117.541765,89.4751947 C119.578015,100.704344 107.365333,108.189637 107.365333,108.189637 L83.2797452,96.6196985 L85.6533624,89.4751947 Z" id="Fill-3" fill="#8B572A"/>
                    <path d="M74.8164142,95.793585 C74.8164142,95.793585 78.8696367,88.1125183 85.6531214,89.4756781 C92.4366061,90.8364208 117.541524,89.4756781 117.541524,89.4756781 C117.541524,89.4756781 140.612601,91.5155838 148.755193,125.543821 C156.895374,159.569641 186.747526,177.940877 186.747526,177.940877 L181.40508,215.889407 L120.404323,180.290152 C120.404323,180.290152 85.6916776,152.471059 74.8164142,95.793585" id="Fill-5" fill="#D94B3B"/>
                    <path d="M91.4211317,56.1287791 C91.4211317,56.1287791 91.4211317,73.4848961 79.8855931,73.8232691 C79.8855931,73.8232691 81.5820667,65.9971854 75.8130925,63.2756999 C70.0489378,60.5542143 60.5472397,53.0665037 63.60282,38.7750791 C66.6559906,24.4860715 72.0851881,26.5283942 73.7816617,21.0830061 C75.4757256,15.640035 75.1359489,2.02777341 95.4912225,0.66944759 C115.846496,-0.693712132 131.112349,8.15232436 136.878913,1.3486105 C142.647888,-5.45510336 145.021505,17.3391508 129.755652,19.7222634 C114.489799,22.1053759 106.686984,25.5060244 106.009841,34.6928508 C105.327878,43.8820942 112.793326,60.8950043 124.666231,60.5542143 C124.666231,60.5542143 127.719402,58.5118917 128.398955,53.4072936 C129.076099,48.3051124 140.611637,51.026598 140.951414,57.4895219 C141.288781,63.9548628 144.684138,79.2662402 132.808823,81.3085628 C120.935917,83.3508854 101.257787,74.164059 102.277117,71.4425735 C103.294037,68.718671 104.990511,61.5741672 106.347208,57.4895219 C107.703905,53.4072936 100.580643,43.8820942 96.5081428,45.9219999 C92.4380519,47.9643225 89.3848814,48.9842753 91.4211317,56.1287791" id="Fill-9" fill="#000000"/>
                    <path d="M315.336371,386.420205 C315.336371,386.420205 311.601237,388.044395 310.926503,386.483045 C310.254179,384.921696 307.273302,408.834998 311.560271,411.053758 C315.844831,413.270101 385.113487,413.574636 387.865437,410.526862 C390.612568,407.476672 394.67061,397.182882 383.007354,399.285629 C371.346507,401.385958 353.07327,388.189412 347.325983,387.722941 C341.578697,387.254052 340.706363,380.957898 338.619507,382.976051 C336.535062,384.994204 327.153852,389.813602 315.336371,386.420205" id="Fill-11" fill="#3397E9"/>
                    <path d="M372.542232,232.171915 C372.542232,232.171915 372.397646,236.251726 370.703582,236.191302 C369.007109,236.133295 389.256353,249.112316 393.092697,246.182973 C396.93145,243.256047 426.986022,180.661879 425.422086,176.8576 C423.860559,173.058155 416.342096,164.956539 413.219043,176.424966 C410.095989,187.888559 390.362434,198.76 387.468308,203.763086 C384.574182,208.766172 378.532905,206.849531 379.453434,209.607271 C380.373964,212.36501 380.677594,222.929498 372.542232,232.171915" id="Fill-13" fill="#3397E9"/>
                    <polygon id="Fill-37" fill="#A32644" points="166.189833 206.876601 178.238651 202.042701 209.565578 199.625751 224.02416 216.5444 181.742447 227.270824"/>
                    <polygon id="Fill-38" fill="#B33729" points="105.945741 146.452854 120.613973 169.019915 134.862905 185.124052 127.633614 194.791851"/>
                    <path d="M181.406044,215.890615 L186.74849,177.942085 C186.74849,177.942085 156.893928,159.568433 148.753747,125.542612 C146.980161,118.137078 144.502924,112.244554 141.705188,107.560505 L149.322451,156.121862 L181.406044,215.890615 Z" id="Fill-39" fill="#B33729"/>
                    <path d="M256.612358,199.975 C258.670296,205.417971 331.94639,207.798667 331.94639,207.798667 C331.94639,207.798667 358.408004,217.3287 353.65595,250.332151 C348.908716,283.335601 344.159072,363.977133 344.159072,363.977133 L313.967143,363.977133 L311.591116,267.004271 C311.591116,267.004271 314.30451,254.414379 296.66504,251.692893 C279.02316,248.968991 167.07277,221.751719 167.07277,221.751719 L166.05585,207.460294" id="Fill-40" fill="#372F3E"/>
                    <path d="M167.072288,221.751235 L166.055368,207.459811 C166.055368,207.459811 228.815252,162.545631 232.2082,160.164936 C235.598737,157.781823 242.384632,154.037968 252.563473,154.037968 C262.739905,154.037968 299.040585,170.371715 311.593044,177.177846 C324.145503,183.98156 367.906811,202.01684 367.906811,202.01684 L358.747299,232.298804 C358.747299,232.298804 279.364865,192.827596 272.57656,192.827596 C265.793076,192.827596 254.556348,194.529129 256.611876,199.974517" id="Fill-41" fill="#544352"/>
                    <path d="M118.559408,165.998486 C118.559408,165.998486 146.37772,148.306413 153.163614,145.920883 C153.163614,145.920883 164.696743,162.595421 167.07277,169.399134 C167.07277,169.399134 250.865072,195.258081 261.721057,200.365096 C272.577042,205.467277 278.346017,211.253455 279.362937,219.079539 C280.379857,226.903206 288.185082,237.450775 273.256596,243.916116 C258.33052,250.381456 262.400611,236.090032 261.721057,233.027756 C261.043914,229.967898 252.901322,214.654104 246.117837,213.634151 C239.331943,212.614198 159.949509,210.912665 152.484061,208.188763 C145.021023,205.467277 118.559408,165.998486 118.559408,165.998486" id="Fill-47" fill="#8B572A"/>
                    <path d="M4.91206224,127.513877 C4.91206224,127.513877 19.1609947,75.1144037 50.3722536,82.5996974 C81.5811028,90.0874081 74.7976181,145.20595 119.578256,186.037901 C164.358894,226.867435 169.785682,234.355145 262.739905,241.161276 C262.739905,241.161276 289.881073,239.118954 299.377952,235.034308 C308.87724,230.95208 303.450452,273.144774 276.988838,301.725206 C250.527223,330.305638 215.245873,354.806259 135.183886,341.875577 C55.1218978,328.947312 -20.1904458,233.673565 4.91206224,127.513877" id="Fill-42" fill="#AD9E9B"/>
                    <path d="M4.91206224,113.972673 C4.91206224,113.972673 19.1609947,61.5732004 50.3722536,69.0609111 C81.5811028,76.5462048 74.7976181,131.667163 119.578256,172.499114 C164.358894,213.328648 169.785682,220.813942 262.739905,227.620073 C262.739905,227.620073 289.881073,225.57775 299.377952,221.495522 C308.87724,217.413294 303.450452,259.60357 276.988838,288.186419 C250.527223,316.766852 215.245873,341.265055 135.183886,328.334374 C55.1218978,315.406109 -20.1904458,220.134779 4.91206224,113.972673" id="Fill-43" fill="#6161D6"/>
                    <path d="M238.814567,392.573517 C238.814567,404.788782 206.504456,414.691025 166.644555,414.691025 C126.787064,414.691025 94.4745432,404.788782 94.4745432,392.573517 C94.4745432,380.358253 126.787064,370.456009 166.644555,370.456009 C206.504456,370.456009 238.814567,380.358253 238.814567,392.573517" id="Fill-44" fill="#7C6F6D"/>
                    <path d="M238.814567,388.865433 C238.814567,401.083114 206.504456,410.982941 166.644555,410.982941 C126.787064,410.982941 94.4745432,401.083114 94.4745432,388.865433 C94.4745432,376.650168 126.787064,366.747925 166.644555,366.747925 C206.504456,366.747925 238.814567,376.650168 238.814567,388.865433" id="Fill-45" fill="#AD9E9B"/>
                    <path d="M164.587099,391.553806 L164.587099,391.553806 C156.673435,391.553806 150.19358,386.195428 150.19358,379.643077 L150.19358,345.994301 C150.19358,339.444367 156.673435,334.085989 164.587099,334.085989 C172.503172,334.085989 178.983027,339.444367 178.983027,345.994301 L178.983027,379.643077 C178.983027,386.195428 172.503172,391.553806 164.587099,391.553806" id="Fill-46" fill="#AD9E9B"/>
                </g>
            </g>
        </g>
    </g>
</svg>