<?xml version="1.0" encoding="UTF-8"?>
<svg width="743px" height="886px" viewBox="0 0 743 886" version="1.1" xmlns="http://www.w3.org/2000/svg" xmlns:xlink="http://www.w3.org/1999/xlink">
    <!-- Generator: Sketch 56.1 (81669) - https://sketch.com -->
    <title>Illustration2</title>
    <desc>Created with Sketch.</desc>
    <defs>
        <linearGradient x1="50%" y1="0%" x2="50%" y2="100%" id="linearGradient-1">
            <stop stop-color="#7771FF" offset="0%"/>
            <stop stop-color="#2E2699" offset="100%"/>
        </linearGradient>
    </defs>
    <g id="Accountant-Onboarding" stroke="none" stroke-width="1" fill="none" fill-rule="evenodd">
        <g id="01_Accountant-Home" transform="translate(0.000000, -1213.000000)">
            <g id="Illustration2" transform="translate(-877.000000, 1213.000000)">
                <g id="BG-Illustration" fill="url(#linearGradient-1)">
                    <path d="M92.771946,109.282829 C92.771946,109.282829 -64.1486502,167.702517 30.1806323,297.319866 C124.509915,426.937215 233.155917,509.767531 172.054277,681.94108 C110.952636,854.11463 457.979743,941.483475 843.86771,738.922001 C1229.75568,536.360526 1339.55336,706.100991 1352.94373,727.525817 C1366.3341,748.953492 1620,699.035356 1620,699.035356 L1620,58 C1094,19.3333333 742.666667,-1.13686838e-12 566,-1.13686838e-12 C389.333333,-1.13686838e-12 231.590649,36.4276095 92.771946,109.282829 Z" id="Fill-1" transform="translate(810.000000, 428.000000) scale(-1, 1) translate(-810.000000, -428.000000) "/>
                </g>
                <g id="speech-bubble" transform="translate(1132.000000, 149.000000)">
                    <path d="M102,42.1233574 C102,18.9555108 82.6475676,0 58.9945946,0 L43.0054054,0 C19.3524324,0 0,18.9555108 0,42.1233574 C0,65.291204 19.3524324,84.2467149 43.0054054,84.2467149 L58.6158162,84.2467149 C57.6570162,87.4893874 55.4681514,91.5464449 50.7243243,95.8099894 C50.7243243,95.8099894 65.6312108,98.9981494 79.2269838,79.2557853 C92.7499784,72.1361119 102,58.1384927 102,42.1233574" id="Fill-1" fill="#FFFFFF"/>
                    <path d="M36.8,19 C31.9703136,19 28,22.9703136 28,27.8 C28,32.6296864 31.9703136,36.6 36.8,36.6 C41.6296864,36.6 45.6,32.6296864 45.6,27.8 C45.6,22.9703136 41.6296864,19 36.8,19 Z M68.8583735,19 L28,59.8583735 L31.1071009,63 L72,22.1071009 L68.8583735,19 Z M36.8,23.4 C39.2578136,23.4 41.2,25.3421864 41.2,27.8 C41.2,30.2578136 39.2578136,32.2 36.8,32.2 C34.3421864,32.2 32.4,30.2578136 32.4,27.8 C32.4,25.3421864 34.3421864,23.4 36.8,23.4 Z M63.2,45.4 C58.3703136,45.4 54.4,49.3703136 54.4,54.2 C54.4,59.0296864 58.3703136,63 63.2,63 C68.0296864,63 72,59.0296864 72,54.2 C72,49.3703136 68.0296864,45.4 63.2,45.4 Z M63.2,49.8 C65.6578136,49.8 67.6,51.7421864 67.6,54.2 C67.6,56.6578136 65.6578136,58.6 63.2,58.6 C60.7421864,58.6 58.8,56.6578136 58.8,54.2 C58.8,51.7421864 60.7421864,49.8 63.2,49.8 Z" id="Shape" fill="#6963EC" fill-rule="nonzero"/>
                </g>
                <g id="dudes" transform="translate(878.000000, 245.000000)">
                    <path d="M448.999813,586.5 C448.999813,586.5 452.247403,610.746656 442.998321,613.410976 C433.749238,616.07195 416,625.366947 416,625.366947 C416,625.366947 418.092294,632.630233 430.998694,631.34828 C443.905094,630.069674 470,619.388962 470,619.388962 L467.000933,592.477986 L448.999813,586.5 Z" id="Fill-1" fill="#3546B0"/>
                    <path d="M513.999813,595.5 C513.999813,595.5 517.247403,619.746656 507.998321,622.407629 C498.749238,625.07195 481,634.366947 481,634.366947 C481,634.366947 483.092294,641.630233 495.998694,640.34828 C508.905094,639.066327 535,628.388962 535,628.388962 L532.000933,601.477986 L513.999813,595.5 Z" id="Fill-3" fill="#3546B0"/>
                    <path d="M120.035753,133.91173 C120.035753,133.91173 111.793996,113.656891 121.937438,99.728739 C121.937438,99.728739 136.519268,100.993402 144.761026,96.5620235 C153.006161,92.1306452 155.539488,71.8758065 154.907845,64.281085 C154.272825,56.6829912 145.396046,37.6928152 146.031067,31.9934018 C146.66271,26.2973607 141.592678,26.9313783 141.592678,26.9313783 L123.204101,22.5 L97.2087873,31.9934018 L73.1151578,52.2516129 C73.1151578,52.2516129 84.994773,68.5472141 72.716581,99.6478006 C60.4350113,130.748387 56,151.003226 56,151.003226 L94.6754603,160.5 L120.035753,133.91173 Z" id="Fill-5" fill="#F9B48A"/>
                    <path d="M5.71812456,612.5 L0,639.179926 C0,639.179926 56.2400741,643.944682 63.8642402,635.369475 C71.4917918,626.794268 38.6049582,615.35953 27.6426803,614.405226 C16.6804024,613.454305 5.71812456,612.5 5.71812456,612.5" id="Fill-7" fill="#262736"/>
                    <path d="M90.5821892,605.5 L84,633.547617 C84,633.547617 98.1027829,640.096267 104.688312,635.420557 C111.267161,630.748169 123.493135,650.380836 147,633.547617 L109.387013,614.848099 L90.5821892,605.5 Z" id="Fill-9" fill="#262736"/>
                    <path d="M69.3699322,94.5 C69.3699322,94.5 60.0431103,110.238753 62.3739737,117.165549 C64.7048371,124.092344 121.447214,128.5 121.447214,128.5 L123,116.534925 C123,116.534925 77.1439679,107.722968 69.3699322,94.5" id="Fill-11" fill="#FFFFFF"/>
                    <path d="M121,47.3285983 L146.180184,45.4112384 C146.180184,45.4112384 145.809101,64.2272487 154.467715,62.3711897 C163.122985,60.5151308 161.946216,37.5 161.946216,37.5 L121.705393,43.9740698 L121,47.3285983 Z" id="Fill-13" fill="#000000"/>
                    <path d="M153.720992,58.5 C153.477902,58.5 153.185536,58.4638578 152.778195,58.046579 C150.731635,55.9601855 149.923523,49.3724391 150.005648,45.3639351 L150.031928,42.9161191 L159,41.5 C158.89488,49.6517201 157.12426,57.8264399 154.187463,58.4441438 C154.016643,58.480286 153.858963,58.5 153.720992,58.5" id="Fill-15" fill="#EBF0F4"/>
                    <path d="M105.895771,79.307935 C105.895771,79.307935 91.0517742,83.8298154 81.1580076,75.2595499 C71.264241,66.6892844 64.1953523,33.8354726 76.679706,20.506579 C89.1674066,7.1743033 106.601991,2.17216332 124.980432,3.83954331 C143.355526,5.5069233 143.589817,0.744913108 142.883598,0.508165442 C142.177378,0.268035666 155.371298,5.26679353 141.943087,23.1243318 C128.511529,40.9784879 129.927315,33.3619773 125.686651,53.1202611 C121.445988,72.8785448 122.858426,44.3098658 116.027176,47.4078781 C109.192578,50.5025083 102.361327,64.3082793 105.895771,79.307935" id="Fill-17" fill="#2E0000"/>
                    <path d="M19.2618484,337.361168 C19.2618484,337.361168 31.5749801,387.512127 29.6809109,414.00748 C27.7868418,440.499473 6,612.712549 6,612.712549 L27.7868418,614.604594 C27.7868418,614.604594 73.883708,508.629902 76.0973803,443.339221 C78.3043242,378.04854 86.5164429,616.5 86.5164429,616.5 L109.248637,614.604594 C109.248637,614.604594 131.035479,478.347097 140.509189,343.985006 C149.979535,209.619555 19.2618484,337.361168 19.2618484,337.361168" id="Fill-19" fill="#544352"/>
                    <path d="M239,190.42199 L252.225103,181.903531 C252.225103,181.903531 261.669208,170.544465 271.589713,170.07047 C281.506862,169.599837 287.64637,162.5 290.481279,162.5 C293.312833,162.5 283.868727,172.911077 278.675308,174.803694 C273.478534,176.696312 281.506862,188.055378 277.72922,197.047832 C273.948223,206.040286 256.475789,201.781057 250.336282,205.092297 C244.193419,208.406899 239,190.42199 239,190.42199" id="Fill-21" fill="#F9B48A"/>
                    <polygon id="Fill-23" fill="#FFFFFF" points="240.874792 184.817173 247.125208 184.5 259 204.768691 239 222.5"/>
                    <path d="M61.196167,94.5 C61.196167,94.5 34.7277744,104.891843 35.6712754,146.462569 C35.6712754,146.462569 3.52844637,223.929948 7.30916563,234.325146 C11.0932426,244.716989 35.6712754,243.77075 35.6712754,243.77075 C35.6712754,243.77075 4.70698319,343.726386 12.9836022,345.806767 C21.2568635,347.883794 39.4519947,354.309489 39.4519947,354.309489 L50.7975101,333.522448 L60.252666,358.091087 C60.252666,358.091087 80.1031209,372.257816 151.953575,367.536691 C151.953575,367.536691 149.116357,299.514917 139.664559,274.949634 L138.7177,227.711545 C138.7177,227.711545 171.807388,258.887073 178.425325,257.94419 C185.039905,257.001308 237.036547,239.049626 255,210.706101 C255,210.706101 245.544844,185.197936 240.820624,184.251698 C236.093046,183.308815 202.059857,206.92786 185.039905,205.981621 C168.023311,205.035383 158.571513,162.521774 137.774199,134.181605 C116.973528,105.838081 67.8141045,137.013609 61.196167,94.5" id="Fill-25" fill="#030049"/>
                    <path d="M445.482216,330.556018 C445.482216,330.556018 439.29161,589.504159 443.418681,605.039365 C443.418681,605.039365 450.637705,616.430056 467.142638,610.22001 C483.644221,604.003236 488.80306,446.562094 488.80306,434.135274 C488.80306,421.705091 509.428364,602.970471 511.4919,609.180517 C513.555435,615.397291 522.837995,622.646829 536.247625,612.288904 C536.247625,612.288904 540.371346,464.172922 544.498417,434.135274 C548.625487,404.094262 561,342.986201 561,301.554499 C561,260.122796 445.482216,330.556018 445.482216,330.556018" id="Fill-27" fill="#FAD874"/>
                    <path d="M455.804404,41.5 C455.804404,41.5 452.338362,51.1891508 443.321923,69.1818432 C443.321923,69.1818432 430.839442,77.4853848 438.470816,80.253232 C446.095433,83.0210792 437.774905,106.549466 446.095433,108.626194 C454.41596,110.702922 467.594352,102.39601 471.752927,136.308037 C475.91488,170.213323 491.863403,167.445476 491.863403,167.445476 L530,119.697583 C530,119.697583 514.051477,117.9681 511.970501,110.702922 C509.892902,103.437745 505.730949,71.2585715 509.20037,67.105115 C512.666412,62.9516586 455.804404,41.5 455.804404,41.5" id="Fill-29" fill="#F9B48A"/>
                    <path d="M481.943863,96.7637924 C489.821534,90.2071947 493.571197,81.1880882 489.237127,77.4505919 C484.899679,73.7097317 478.873193,77.8273692 476.434223,85.2048032 C473.991875,92.5788732 473.920936,94.4022062 471.532637,99.9865839 C469.144338,105.567598 457.895348,117.637927 446.045061,109.772701 C434.188019,101.907475 440.883363,81.0501607 440.883363,81.0501607 L448.902913,82.355425 C464.323825,98.3718241 468.901116,82.15358 473.198028,74.8333354 C477.491561,67.5164549 454.507139,48.5362986 448.524568,44.5700447 C442.541998,40.6105191 436.241888,14.70708 448.994121,21.6875522 C461.742976,28.6646603 474.099974,18.4546685 490.287709,25.9565735 C506.475443,33.4618427 524.311679,47.9576763 515.802308,71.1193877 C507.299694,94.2844633 488.419633,117.5 488.419633,117.5 C486.264421,115.262885 474.066193,103.317026 481.943863,96.7637924" id="Fill-31" fill="#8A5140"/>
                    <path d="M466.665711,124.2434 C466.665711,124.2434 452.173595,171.869719 451.141565,203.966959 C450.106174,236.064199 447,329.248758 447,329.248758 L559.894629,343.5 L556.714498,233.992758 L526.698236,210.18128 C526.698236,210.18128 555.679107,192.577399 567.06505,196.72028 C578.450992,200.859798 553.608325,128.382918 545.328556,124.2434 C537.048787,120.103882 511.17409,102.5 511.17409,102.5 C511.17409,102.5 498.752756,126.314841 466.665711,124.2434" id="Fill-33" fill="#004DC1"/>
                    <polygon id="Fill-35" fill="#FFB93E" points="482 339.279237 545.317053 433.5 564 316.5"/>
                    <polygon id="Fill-37" fill="#004DC1" points="509 228.5 550 228.5 550 180.5 509 180.5"/>
                    <polygon id="Fill-39" fill="#00419D" points="538.158823 203.89502 523 155.5 541.200818 260.585463 558 267.5"/>
                    <polygon id="Fill-40" fill="#DBE2E9" points="473.730629 243.5 465 346.8904 601.420699 365.5 609 257.975999"/>
                    <path d="M541.181186,303.165373 C539.65267,303.051107 538.404214,302.957005 538.404214,302.957005 C538.404214,302.957005 537.645018,301.962216 536.720485,300.745617 C535.792579,299.532378 537.041035,294.864264 537.864341,293.36536 C538.684273,291.866455 537.705754,291.113642 535.694727,291.698416 C533.676952,292.27983 530.042932,296.386694 529.94508,296.568176 C529.847228,296.749658 529.422078,301.417771 529.000302,306.949603 C529.000302,306.949603 528.868708,308.690483 534.095353,311.523615 C539.328747,314.363468 540.722294,313.308185 540.722294,313.308185 C545.159374,309.957495 548.867627,307.06723 548.965479,306.885748 C549.063331,306.707627 549.505352,304.731493 549.950747,302.493218 C550.392768,300.254944 547.737268,296.463992 546.873471,298.050277 C546.002926,299.633201 542.709701,303.283 541.181186,303.165373" id="Fill-41" fill="#FFFFFF"/>
                    <path d="M538.30175,203.852358 C538.30175,203.852358 545.877787,231.519506 548.632405,246.042147 C551.387022,260.568158 542.431999,259.183284 532.101344,329.040221 C532.101344,329.040221 519.707242,337.339355 514.194652,351.174613 C514.194652,351.174613 505.242983,351.865366 507.309785,355.322495 C509.376587,358.779625 512.819021,359.473747 519.707242,358.779625 C526.592109,358.088873 522.616199,372.449777 543.810985,363.621629 C543.810985,363.621629 549.32022,357.398121 548.632405,351.174613 C547.944589,344.947736 543.810985,333.191473 546.565603,326.273843 C549.32022,319.356214 581,259.877406 581,250.884151 C581,241.894265 567.914728,188.635595 563.784479,182.412087 C559.650875,176.18858 538.30175,203.852358 538.30175,203.852358" id="Fill-42" fill="#F9B48A"/>
                    <path d="M537.682901,204.5 C547.14026,199.830974 560.242326,194.541211 567.056345,197.020787 C578.475979,201.17703 553.5598,128.466397 545.258903,124.310154 C536.951262,120.157285 511,102.5 511,102.5" id="Fill-43" fill="#004DC1"/>
                </g>
            </g>
        </g>
    </g>
</svg>