<?xml version="1.0" encoding="UTF-8"?>
<svg xmlns="http://www.w3.org/2000/svg" viewBox="0 0 768.7 473.86"><title>tcp_man_chair_desk_3people_industrybg</title><g style="isolation:isolate"><g style="opacity:0.2"><polygon points="204.35 142.78 155.78 142.78 163.06 101.33 164.26 94.46 164.66 92.2 164.91 90.71 165.08 89.65 165.33 88.16 165.75 85.74 194.38 85.74 194.8 88.16 195.05 89.65 195.22 90.71 195.47 92.2 195.86 94.46 197.07 101.33 204.35 142.78" style="fill:#9e9e9e"/><polygon points="284.29 142.78 235.74 142.78 242.99 101.33 244.2 94.46 244.59 92.2 244.87 90.71 245.01 89.65 245.29 88.16 245.72 85.74 274.31 85.74 274.73 88.16 274.98 89.65 275.16 90.71 275.44 92.2 275.83 94.46 277.03 101.33 284.29 142.78" style="fill:#9e9e9e"/><path d="M747,132.17a9.62,9.62,0,0,0-8.89,5.08,21.27,21.27,0,0,0-5.26-.66,20.5,20.5,0,0,0-6,.86c-2.49-5.37-7.59-9.44-15.32-9.44a17.06,17.06,0,0,0-10,3,12.86,12.86,0,0,0-12.93-9.42,15.52,15.52,0,0,0-3.05.31c-.23-5.11-3.62-10-10.22-10a11.31,11.31,0,0,0-3,.43,18.13,18.13,0,0,0-12.92-4.85c-8.15,0-13.63,4.11-16.49,9.65a30.57,30.57,0,0,0-12.7-2.58c-8.37,0-14.93,2.82-19.69,7.21-4-4.33-9.79-7.21-17.46-7.21-13,0-20.75,8.26-23.14,18a19.31,19.31,0,0,0-3.4-.33c-11,0-16.73,8.3-17.08,16.86-21.63,1.19-21.26,35.33,1.16,35.33,11,0,16.73-8.31,17.08-16.87a15.87,15.87,0,0,0,12.61-6.82,26.11,26.11,0,0,0,25.08.26c4.57,7.94,12.85,13.69,24.84,13.69a30,30,0,0,0,14.06-3.26c.12,8.74,5.82,17.4,17.1,17.4,11.57,0,17.27-9.1,17.1-18.07a18.32,18.32,0,0,0,11.8,3.91c9.07,0,14.84-5.09,17.35-11.58a19.78,19.78,0,0,0,7.51,0c2.32,6.9,8.21,12.45,17.69,12.45,14.08,0,20.25-12.24,18.54-23C760.45,148.53,759,132.17,747,132.17Z" style="fill:#939393;opacity:0.5"/><path d="M609,101.21c-9.12,0-9.12,14.15,0,14.15S618.11,101.21,609,101.21Z" style="fill:#939393;opacity:0.5"/><path d="M735.62,92.74c-8.61,3.53-10.79,11.49-8.88,18.44-5.34,4.58-.25,15,7.39,11.84a8,8,0,0,0,1.53-.85,14.67,14.67,0,0,0,12.06,0C766.71,114.39,754.61,84.93,735.62,92.74Z" style="fill:#939393;opacity:0.5"/><path d="M17.05,342.69H39.69l0-130.07H17.08ZM37,215.17,28.4,225.94l-8.56-10.77ZM19.46,217l8,10.1-8,10.09Zm0,25.4,8,10.09-8,10.11Zm0,25.36,8,10.09-8,10.09Zm0,25.5,8,10.09-8,10.1Zm0,25.32,8,10.1-8,10.1Zm.72,21.59,8.22-10.33,8.2,10.34Zm17.16-1.37-8-10.12,8-10.11Zm-.74-21.59-8.2,10.32-8.2-10.32Zm-16.26-2.55,8.07-10.15,8.06,10.15Zm17-1.19-8-10.12,8-10.11Zm-.58-21.77-8.35,10.51L20,291.68Zm-16.42-2.54L28.4,279l8.05,10.16Zm17-1.2-8-10.11,8-10.1Zm-.59-21.78L28.4,276.69,20,266.16Zm-16.3-2.54,8-10,8,10Zm16.9-1-8.05-10.13,8.05-10.11Zm-.48-21.93L28.4,251.33l-8.47-10.67Zm-16.32-2.54,7.86-9.9,7.86,9.9Zm16.8-.93-8-10.11L37.35,217Z" style="fill:#939393;opacity:0.52;mix-blend-mode:multiply"/><path d="M78.81,342.69h22.63l0-130.07H78.83ZM98.73,215.17l-8.57,10.77-8.57-10.77ZM81.21,217l8,10.1-8,10.09Zm0,25.4,8,10.09-8,10.11Zm0,25.36,8,10.09-8,10.09Zm0,25.5,8,10.09-8,10.1Zm0,25.32,8,10.1-8,10.1Zm.72,21.59,8.23-10.33,8.19,10.34Zm17.17-1.37-8-10.12,8-10.11Zm-.75-21.59-8.19,10.32-8.2-10.32Zm-16.26-2.55,8.07-10.15,8.06,10.15Zm17-1.19-8-10.12,8-10.11Zm-.59-21.77-8.35,10.51-8.35-10.51Zm-16.41-2.54L90.15,279l8.06,10.16Zm17-1.2-8-10.11,8-10.1Zm-.58-21.78-8.35,10.53-8.36-10.53Zm-16.31-2.54,8-10,7.95,10Zm16.9-1-8-10.13,8-10.11Zm-.48-21.93-8.46,10.66-8.47-10.67ZM82.3,238.13l7.86-9.9,7.85,9.9Zm16.8-.93-8-10.11,8-10.13Z" style="fill:#939393;opacity:0.52;mix-blend-mode:multiply"/><path d="M472.16,213.55H461.59a36.27,36.27,0,0,0-36.26-36h-7.08V167h7.08A46.9,46.9,0,0,1,472.16,213.55Z" style="fill:#c4c4c4"/><path d="M53.7,273.49H64.27a36.29,36.29,0,0,0,36.26,36h7.08V320h-7.08A46.9,46.9,0,0,1,53.7,273.49Z" style="fill:#c4c4c4"/><polygon points="552.55 213.54 552.55 358.61 126.79 358.61 126.79 142.78 418.24 142.78 418.24 213.54 552.55 213.54" style="fill:#a8a8a8"/><rect x="178.52" y="291.39" width="88.46" height="67.23" style="fill:#e8e8e8"/><polygon points="178.51 291.39 178.51 358.61 126.79 358.61 126.79 343.11 178.51 291.39" style="fill:#939393;opacity:0.52;mix-blend-mode:multiply"/><rect x="203.43" y="318.22" width="38.62" height="40.4" style="fill:#a3a3a3"/><polygon points="242.04 318.23 242.04 358.6 237.06 358.6 237.06 323.22 203.44 323.22 203.44 318.23 242.04 318.23" style="fill:#939393;opacity:0.52;mix-blend-mode:multiply"/><rect x="148.9" y="166.99" width="252.98" height="11.17" style="fill:#d8d8d8"/><rect x="148.9" y="190.25" width="252.98" height="11.17" style="fill:#d8d8d8"/><rect x="148.9" y="213.52" width="252.98" height="11.17" style="fill:#d8d8d8"/><rect x="148.9" y="236.78" width="343.6" height="11.17" style="fill:#d8d8d8"/><rect x="148.9" y="260.04" width="343.6" height="11.17" style="fill:#d8d8d8"/><path d="M619.91,358.61H483.46c.08-1.94.19-3.9.31-5.85,3.35-48.57,21.56-69.35,27.25-113.37.39-3,.7-6.16.94-9.44.19-2,.31-4,.42-6.15.16-3.05.28-6.17.28-9.44,0-.86,0-1.71,0-2.61v-8.11h78v8.11c0,.9,0,1.75,0,2.61,0,3.27.12,6.39.27,9.44.12,2.1.24,4.17.43,6.15.24,3.28.55,6.4.94,9.44,5.69,44,23.9,64.8,27.25,113.37C619.72,354.68,619.83,356.62,619.91,358.61Z" style="fill:#b3b3b3"/><path d="M619.91,358.61H483.46c.08-1.94.19-3.9.31-5.85a198.51,198.51,0,0,1,8.73-46.12c5.58-18.09,12.32-33.88,16.45-54.58.78-4,1.49-8.23,2.07-12.67.39-3,.7-6.16.94-9.44.19-2,.31-4,.42-6.15.16-3.05.28-6.17.28-9.44,0-.86,0-1.71,0-2.61v-8.11h78v8.11c0,.9,0,1.75,0,2.61,0,3.27.12,6.39.27,9.44.12,2.1.24,4.17.43,6.15.24,3.28.55,6.4.94,9.44.58,4.44,1.29,8.65,2.06,12.67,4.14,20.7,10.88,36.49,16.45,54.58a198.48,198.48,0,0,1,8.74,46.12C619.72,354.68,619.83,356.62,619.91,358.61Z" style="fill:#9e9e9e"/><rect x="518.2" y="195.84" width="66.96" height="7.8" style="fill:#666"/><path d="M610.86,306.64H492.5c5.58-18.09,12.32-33.88,16.45-54.58h85.46C598.55,272.76,605.29,288.55,610.86,306.64Z" style="fill:#f2f2f2"/><path d="M721.62,358.61H585.16c.08-1.94.19-3.9.31-5.85,3.35-48.57,21.56-69.35,27.25-113.37.39-3,.7-6.16.94-9.44.19-2,.31-4,.42-6.15.16-3.05.28-6.17.28-9.44,0-.86,0-1.71,0-2.61v-8.11h78v8.11c0,.9,0,1.75,0,2.61,0,3.27.12,6.39.28,9.44.11,2.1.22,4.17.42,6.15.24,3.28.55,6.4.94,9.44,5.69,44,23.9,64.8,27.25,113.37C721.42,354.68,721.53,356.62,721.62,358.61Z" style="fill:#b3b3b3"/><path d="M721.62,358.61H585.16c.08-1.94.19-3.9.31-5.85a199,199,0,0,1,8.73-46.12c5.58-18.09,12.32-33.88,16.46-54.58.77-4,1.48-8.23,2.06-12.67.39-3,.7-6.16.94-9.44.19-2,.31-4,.42-6.15.16-3.05.28-6.17.28-9.44,0-.86,0-1.71,0-2.61v-8.11h78v8.11c0,.9,0,1.75,0,2.61,0,3.27.12,6.39.28,9.44.11,2.1.22,4.17.42,6.15.24,3.28.55,6.4.94,9.44.58,4.44,1.29,8.65,2.06,12.67,4.14,20.7,10.89,36.49,16.46,54.58a198.51,198.51,0,0,1,8.73,46.12C721.42,354.68,721.53,356.62,721.62,358.61Z" style="fill:#b2b2b2"/><rect x="619.9" y="195.84" width="66.96" height="7.8" style="fill:#666"/><path d="M712.57,306.64H594.2c5.58-18.09,12.32-33.88,16.46-54.58h85.45C700.25,272.76,707,288.55,712.57,306.64Z" style="fill:#f2f2f2"/><polygon points="197.07 85.74 163.06 85.74 164.26 76.3 195.86 76.3 197.07 85.74" style="fill:#f2f2f2"/><polygon points="275.83 76.3 244.2 76.3 242.99 85.74 277.03 85.74 275.83 76.3" style="fill:#f2f2f2"/><path d="M118.09,246.74A30.08,30.08,0,0,1,88,276.82H30.07A30.08,30.08,0,0,1,0,246.74H0a30.07,30.07,0,0,1,30.07-30.07H88a30.07,30.07,0,0,1,30.08,30.07Z" style="fill:#a4a4a4"/><rect x="46.66" y="209.41" width="26.98" height="4.02" style="fill:#c5c5c5"/><rect x="50.53" y="213.43" width="19.24" height="7.25" style="fill:#858585"/><rect x="5.74" y="276.82" width="106.62" height="4.55" style="fill:#6c6c6c"/><rect y="342.69" width="126.79" height="15.92" style="fill:#e5e5e5"/><rect y="342.69" width="126.79" height="15.92" style="fill:#939393;opacity:0.52;mix-blend-mode:multiply"/><rect x="107.61" y="309.47" width="19.18" height="10.57" style="fill:#c4c4c4"/><rect x="575.26" y="345.35" width="152.58" height="13.27" style="fill:#999"/><rect x="472.16" y="345.35" width="103.1" height="13.27" style="fill:gray"/><path d="M267,302.59v22.63l130.08,0V302.62Zm127.51,19.92-10.77-8.57,10.77-8.56ZM392.69,305l-10.11,8-10.09-8Zm-25.4,0-10.09,8-10.11-8Zm-25.37,0-10.09,8-10.09-8Zm-25.49,0-10.1,8-10.1-8Zm-25.33,0L281,313l-10.11-8Zm-21.59.73,10.34,8.22-10.34,8.2Zm1.37,17.16,10.13-8,10.11,8Zm21.59-.74-10.32-8.2,10.32-8.2ZM295,305.86l10.14,8.06L295,322Zm1.18,17,10.12-8,10.11,8Zm21.77-.59-10.5-8.35,10.5-8.35Zm2.54-16.42,10.17,8.07L320.52,322Zm1.2,17,10.11-8,10.11,8Zm21.78-.58L333,313.93l10.53-8.35ZM346,306l10,8-10,7.94Zm1,16.9,10.13-8.05,10.1,8.05ZM369,322.4l-10.66-8.46L369,305.47Zm2.54-16.32,9.89,7.86-9.9,7.85Zm.92,16.81,10.12-8.05,10.12,8.05Z" style="fill:#929292"/><path d="M5.72,342.69H28.35l0-130.07H5.75ZM25.64,215.17l-8.57,10.77L8.51,215.17ZM8.13,217l8,10.1-8,10.09Zm0,25.4,8,10.09-8,10.11Zm0,25.36,8,10.09-8,10.09Zm0,25.5,8,10.09-8,10.1Zm0,25.32,8,10.1-8,10.1Zm.72,21.59,8.22-10.33,8.2,10.34ZM26,338.78l-8-10.12,8-10.11Zm-.74-21.59-8.19,10.32L8.85,317.19ZM9,314.64l8.07-10.15,8.06,10.15Zm17-1.19-8-10.12,8-10.11Zm-.59-21.77-8.35,10.51L8.71,291.68ZM9,289.14,17.06,279l8.06,10.16Zm17-1.2-8-10.11,8-10.1Zm-.58-21.78-8.36,10.53L8.71,266.16ZM9.11,263.62l8-10,8,10Zm16.9-1-8-10.13L26,242.36Zm-.48-21.93-8.46,10.66L8.6,240.66ZM9.21,238.13l7.86-9.9,7.86,9.9ZM26,237.2l-8-10.11L26,217Z" style="fill:#7c7c7c"/><path d="M89.71,342.69h22.64l0-130.07H89.73Zm19.92-127.52-8.57,10.77L92.5,215.17ZM92.12,217l8,10.1-8,10.09Zm0,25.4,8,10.09-8,10.11Zm0,25.36,8,10.09-8,10.09Zm0,25.5,8,10.09-8,10.1Zm0,25.32,8,10.1-8,10.1Zm.72,21.59L101,329.82l8.2,10.34ZM110,338.78l-8-10.12,8-10.11Zm-.74-21.59L101,327.51l-8.2-10.32ZM93,314.64l8.07-10.15,8,10.15Zm17-1.19-8-10.12,8-10.11Zm-.58-21.77-8.35,10.51L92.7,291.68ZM93,289.14,101.05,279l8.06,10.16Zm17-1.2-8-10.11,8-10.1Zm-.59-21.78-8.35,10.53L92.7,266.16Zm-16.3-2.54,8-10,7.94,10Zm16.9-1-8-10.13,8-10.11Zm-.48-21.93-8.47,10.66-8.46-10.67ZM93.2,238.13l7.86-9.9,7.85,9.9Zm16.8-.93-8-10.11L110,217Z" style="fill:#7c7c7c"/><rect x="397.05" y="291.41" width="26.95" height="67.2" style="fill:#e8e8e8"/><rect x="266.97" y="325.25" width="130.08" height="6.78" style="fill:#d9d9d9"/><rect x="266.97" y="295.81" width="130.08" height="6.78" style="fill:#d9d9d9"/><path d="M602.57,281.59v0c-1,3.12-2.08,6.16-3.14,9.24-.78,2.33-1.56,4.63-2.34,7-.53,1.56-1.06,3.15-1.55,4.78-.43,1.31-.85,2.65-1.28,4-.78,2.58-1.56,5.2-2.3,7.92-.53,2-1.06,4.07-1.56,6.19-.28,1.17-.57,2.34-.81,3.54a.06.06,0,0,0,0,.08c-.28,1.2-.57,2.4-.78,3.67-.53,2.48-1,5.06-1.38,7.71-.28,1.64-.49,3.3-.7,5-.22,1.49-.4,3-.57,4.57H575.29v13.26H357.76L502.83,213.55h9.88a7.29,7.29,0,0,1,0,.81c0,3.26-.12,6.4-.29,9.45-.1,2.08-.21,4.14-.43,6.15-.21,3.26-.53,6.37-.92,9.42-.13,1.13-.31,2.22-.45,3.28-.32,2.16-.68,4.29-1.07,6.34-.17,1-.38,2.05-.56,3-.5,2.59-1.06,5.1-1.66,7.54-1.17,4.92-2.48,9.55-3.9,14-.67,2.27-1.41,4.5-2.12,6.69-2.9,8.81-6,17.3-8.78,26.33,0,.17-.1.32-.13.49-.36,1.1-.68,2.2-1,3.33-.64,2.23-1.24,4.46-1.84,6.79-.32,1.13-.6,2.3-.88,3.5-.21.92-.42,1.85-.64,2.8-.6,2.62-1.13,5.31-1.63,8.1l25-25,41.18-41.15L566.06,252l25.16-25.16c.07,1,.14,2.06.25,3.08.24,3.26.53,6.37.91,9.42.15,1.13.32,2.22.46,3.28.32,2.16.68,4.29,1.06,6.34.18,1,.4,2.05.57,3,.5,2.59,1.07,5.1,1.67,7.54.28,1.24.6,2.44.92,3.61s.6,2.4,1,3.57c.64,2.34,1.31,4.64,2,6.86s1.38,4.5,2.12,6.69Z" style="fill:#939393;opacity:0.52;mix-blend-mode:multiply"/><path d="M392.63,295.82l-6.76,6.76-2.41,2.4h9.24l-10.12,8-4-3.19-1,1,3.86,3.08-9.91,7.85v-4.88L369,319.42v3l-1.67-1.31-1,1,1,.78h-1.77L356.43,332h40.62v-36.2ZM372.5,322.89l10.08-8.07,10.12,8.07Zm22-.39-10.76-8.56,10.76-8.56Z" style="fill:#939393;opacity:0.52;mix-blend-mode:multiply"/><path d="M342.26,23.22c-.34,0-.62.07-.94.09-1.34-7-6.6-13.13-15.83-13.13a15.45,15.45,0,0,0-12.13,5.2c-2.91-6.15-8.8-10.79-17.68-10.79-11.33,0-17.78,7.52-19.4,16.12a11.58,11.58,0,0,0-5.7,2.81c-1.28-7.1-6.56-13.34-15.89-13.34a15.22,15.22,0,0,0-13.06,6.52A6.81,6.81,0,0,0,236,19.39,13.51,13.51,0,0,0,224,13a14.5,14.5,0,0,0-7.34,1.9c-3-3.89-7.67-6.55-14.08-6.55-13,0-19,11-17.88,21a14,14,0,0,0-3.55-.48c-16.82,0-16.82,26.08,0,26.08,7.73,0,11.87-5.51,12.49-11.46a18.55,18.55,0,0,0,8.94,2.15,17.25,17.25,0,0,0,13-5.32A14.25,14.25,0,0,0,224,42.78c8.37,0,13.09-5.65,14.18-12a6.53,6.53,0,0,0,.85.33c1.5,6.8,6.7,12.64,15.71,12.64.47,0,.87-.1,1.32-.13-.49,5,2.46,10.38,8.93,10.38,5.62,0,8.58-4.08,8.93-8.42a13.23,13.23,0,0,0,5,1,12.32,12.32,0,0,0,8-2.73,20.8,20.8,0,0,0,8.74,1.8c7.84,0,13.34-3.63,16.53-8.7,2.63,4,7,6.83,13.28,6.83a16.33,16.33,0,0,0,8.29-2.15,10.18,10.18,0,0,0,8.48,4C356.67,45.58,356.67,23.22,342.26,23.22Z" style="fill:#939393;opacity:0.30000000000000004;mix-blend-mode:multiply"/><path d="M384,29.17c.16-2.91-1.62-6-5.38-6-5.19,0-6.62,5.79-4.33,9a9.14,9.14,0,0,0-1.17,2.12,8.59,8.59,0,0,0-6.61-2.77c-12,0-12,18.63,0,18.63a8.44,8.44,0,0,0,8.3-5.56,8.6,8.6,0,0,0,6.61,2.77C392.45,47.44,393.29,31.66,384,29.17Z" style="fill:#939393;opacity:0.30000000000000004;mix-blend-mode:multiply"/><path d="M265.87-1c-7.21,0-7.21,11.18,0,11.18S273.08-1,265.87-1Z" style="fill:#939393;opacity:0.30000000000000004;mix-blend-mode:multiply"/><path d="M394.42,20.42c-7.21,0-7.21,11.18,0,11.18S401.63,20.42,394.42,20.42Z" style="fill:#939393;opacity:0.30000000000000004;mix-blend-mode:multiply"/><path d="M345.05,10.18c-4.81,0-4.81,7.45,0,7.45S349.85,10.18,345.05,10.18Z" style="fill:#939393;opacity:0.30000000000000004;mix-blend-mode:multiply"/><path d="M763.56,86.13c-6.84,0-6.84,10.61,0,10.61S770.41,86.13,763.56,86.13Z" style="fill:#939393;opacity:0.52"/><g style="opacity:0.65"><polygon points="401.83 166.99 401.83 178.17 306.4 178.17 301.66 166.99 401.83 166.99" style="fill:#fff;opacity:0.64"/><polygon points="401.83 190.27 401.83 201.41 316.2 201.41 311.5 190.27 401.83 190.27" style="fill:#fff;opacity:0.64"/><polygon points="401.83 213.51 401.83 224.69 326.04 224.69 321.3 213.51 401.83 213.51" style="fill:#fff;opacity:0.64"/><polygon points="492.44 236.79 492.44 247.94 335.84 247.94 331.14 236.79 492.44 236.79" style="fill:#fff;opacity:0.64"/><polygon points="492.44 260.04 492.44 271.22 345.64 271.22 340.94 260.04 492.44 260.04" style="fill:#fff;opacity:0.64"/></g></g><path d="M202.23,184.75h-6.46v3.31A8,8,0,0,1,202.23,184.75Z" style="fill:#dae3e8"/><path d="M204.13,184.75v9.12a8,8,0,0,1-8,8h-.38v14.07h28.51V184.75Z" style="fill:#d0cddb"/><path d="M182.25,353.71a13,13,0,0,1-8.58-3.1c-4.31-3.75-6.18-10.42-5.55-19.82.42-6.35,2.92-12.78,5.57-19.57,4.44-11.45,9.49-24.42,6.85-41.58l4.9-.75c2.84,18.47-2.69,32.69-7.13,44.12-2.61,6.72-4.87,12.52-5.24,18.11-.51,7.62.81,13.06,3.81,15.71a8.2,8.2,0,0,0,6.56,1.84l1,4.86A11.57,11.57,0,0,1,182.25,353.71Z" style="fill:#484f5a"/><path d="M216.56,353.71a13,13,0,0,1-8.59-3.1c-4.31-3.75-6.17-10.42-5.55-19.82.43-6.35,2.93-12.78,5.57-19.57,4.45-11.45,9.5-24.42,6.86-41.58l4.9-.75c2.84,18.47-2.69,32.69-7.14,44.12-2.61,6.72-4.86,12.52-5.24,18.11-.5,7.62.81,13.06,3.81,15.71a8.21,8.21,0,0,0,6.56,1.84l1,4.86A11.52,11.52,0,0,1,216.56,353.71Z" style="fill:#484f5a"/><path d="M220.27,393.06l4.83,7.36-40.56,13s-2.71-2.59,7.24-7.79C203.37,399.55,220.27,393.06,220.27,393.06Z" style="fill:#a49dad"/><path d="M227.47,393.06l-4.82,7.36,40.55,13s2.71-2.59-7.24-7.79C244.37,399.55,227.47,393.06,227.47,393.06Z" style="fill:#a49dad"/><rect x="219.63" y="371.15" width="8.47" height="30.18" style="fill:#a49dad"/><path d="M219.73,394.61l4.13,7L189.14,414s-2.32-2.47,6.2-7.44C205.26,400.81,219.73,394.61,219.73,394.61Z" style="fill:#c2c3c6"/><path d="M228,394.61l-4.13,7L258.6,414s2.32-2.47-6.2-7.44C242.48,400.81,228,394.61,228,394.61Z" style="fill:#c2c3c6"/><path d="M193.07,416.82a2.95,2.95,0,1,1-2.94-2.94A2.95,2.95,0,0,1,193.07,416.82Z" style="fill:#161713"/><path d="M260.34,416.82a2.95,2.95,0,1,1-2.94-2.94A2.95,2.95,0,0,1,260.34,416.82Z" style="fill:#161713"/><path d="M185.94,416.82a2.95,2.95,0,1,1-2.94-2.94A2.95,2.95,0,0,1,185.94,416.82Z" style="fill:#484f5a"/><path d="M267.47,416.82a2.95,2.95,0,1,1-2.94-2.94A2.95,2.95,0,0,1,267.47,416.82Z" style="fill:#484f5a"/><rect x="220.66" y="360.09" width="6.2" height="10.85" style="fill:#484f5a"/><path d="M231.51,354.36a6,6,0,0,1-6,6h-3.4a6,6,0,0,1-6.05-6h0a6.05,6.05,0,0,1,6.05-6.05h3.4a6.05,6.05,0,0,1,6,6.05Z" style="fill:#484f5a"/><path d="M269.83,348.83c.15-.71.24-5.17.24-5.94,0-4.88-3.15-8.84-7.05-8.84H184.5c-3.89,0-7.05,4-7.05,8.84,0,.77.09,5.23.24,5.94Z" style="fill:#e7335d"/><path d="M176.73,351.23c0,1.49.87,2.7,2,2.7h90.16c1.08,0,2-1.21,2-2.7h0c0-1.5-.87-2.71-2-2.71H178.68c-1.08,0-2,1.21-2,2.71Z" style="fill:#484f5a"/><path d="M181.12,303.49c1.94.15,14.25.36,16.37.39,13.48.16,25.08-2.37,25.72-5.69a114.73,114.73,0,0,0,.35-41.72c-.57-3.32-12.35-5.85-26.11-5.68-2.16,0-14.72.24-16.69.39A112.78,112.78,0,0,1,181.12,303.49Z" style="fill:#e7335d"/><path d="M179.27,251.18c-1.5,0-2.56.73-2.35,1.6a112.61,112.61,0,0,1,.42,49.12c-.18.87.85,1.58,2.33,1.6h0c1.48,0,2.84-.67,3-1.54a112.84,112.84,0,0,0-.32-49.24c-.2-.87-1.59-1.56-3.11-1.54Z" style="fill:#484f5a"/><path d="M179.6,303.16a33.77,33.77,0,0,0,3.54.23c2.93,0,6-2.55,6.54-5.82a113.28,113.28,0,0,0-.19-41.09,7.22,7.22,0,0,0-6.7-5.81,34.94,34.94,0,0,0-3.6.23A112.84,112.84,0,0,1,179.6,303.16Z" style="fill:#ad2646"/><path d="M219.75,203.64s-11.16,4-.44,36,17.87,28.14,17.87,28.14l8.87-.86,17-20.17-9.15-8-1.85.73a4.46,4.46,0,0,1-2.64-3.18c-.28-2.2-4.57-11.41-7.81-30.22C240.1,197.4,221.9,202.85,219.75,203.64Z" style="fill:#b9d4ea"/><path d="M260.63,247.13s22.05,11.27,35.93-10.53c4.13-6.48,2.37,1,.11,8.07s-16,23.14-31.53,24.22-21.51.2-24.43-5.18S260.63,247.13,260.63,247.13Z" style="fill:#f7c0ab"/><path d="M241.69,242l5.59-3.62,2.32-1.32a4.86,4.86,0,0,0,2.45,2.41l-4.67,1.91-5.08,3.27L237.05,251Z" style="fill:#6d889d"/><path d="M240.37,295.6l-41.74-.9-17.35-58.11s-7.94-35,6.9-35.58c21.56-.84,49.85-.45,49.85-.45S252.56,213.17,240.37,295.6Z" style="fill:#a7c9e5"/><path d="M225.38,292.47l4.91.72a258,258,0,0,0-8.32-91l-4,1.33A251.61,251.61,0,0,1,225.38,292.47Z" style="fill:#6d889d"/><path d="M309.1,419s-4.06,6.26-6.13,2.42c-6.22-11.51-11.84-47.86-12.19-62.78-.47-19.89-1.38-32-1.38-32l20-7.25Z" style="fill:#112c42"/><path d="M238.9,295.19l70.61,24.17L291,329.7s-72.83,12.77-74.12-14.26C215.77,292.7,238.9,295.19,238.9,295.19Z" style="fill:#0d2132"/><path d="M284,419.56s-3.66,3.35-5.73-.49c-6.22-11.51-16.43-42.1-16.78-57-.47-19.89,2.81-33.73,2.81-33.73l20.45-7.1Z" style="fill:#112c42"/><path d="M217,296l67.33,25.41-18.44,10s-68.33,12.78-69.65-14.25S217,296,217,296Z" style="fill:#112c42"/><path d="M195,318.67c-.17,1.86.92,8.08,3,10.57,6.37,7.7,21.47,5.12,33.51,5.12.66,0,4-9.39,4-9.39l5-30.72-42.21.72A204.52,204.52,0,0,0,195,318.67Z" style="fill:#112c42"/><path d="M263.62,276.36l15.46-2.77s2.4-.26,2.51,1.4c.15,2.2-.25,9.36-.25,9.36l-2.77-1.72-4,2.43L270,279a11.79,11.79,0,0,1-4.37,0C264.93,278.74,263.62,276.36,263.62,276.36Z" style="fill:#f7c0ab"/><path d="M225.7,272l40.92,4.54s5.55,1.38,3.35,2.43c-6.64,3.15-27.81,8.8-35.36,8.85a89.72,89.72,0,0,1-19.47-2.23Z" style="fill:#f7c0ab"/><path d="M205.52,229.56,226,268.24l-1.17,3.14,3.15.59-9.55,15.19-15-3.41-27-53.4s-5.67-16.12,7.19-28.42C190.06,195.79,203.71,226.46,205.52,229.56Z" style="fill:#b9d4ea"/><path d="M210.71,281.45s9.68-7.4,14.59-11.44l-.51,1.37,3.15.59-3.35,5.22-5.79,6.75-3.33-1.22,1.26-2.37Z" style="fill:#b9d4ea"/><path d="M223.59,174a5.06,5.06,0,0,1-5.06,5.06h-19.1a5.06,5.06,0,0,1-5.06-5.06h0a5.06,5.06,0,0,1,5.06-5.06h19.1a5.06,5.06,0,0,1,5.06,5.06Z" style="fill:#143f59"/><path d="M220.09,182.77a9.35,9.35,0,0,1-9.35,9.35h-10a9.35,9.35,0,0,1-9.34-9.35h0a9.34,9.34,0,0,1,9.34-9.34h10a9.35,9.35,0,0,1,9.35,9.34Z" style="fill:#143f59"/><path d="M227.59,197.74V168.51c0-4.65-3.77,0-8.43,0h-4.49a8.43,8.43,0,0,0-8.43,8.43v20.8Z" style="fill:#f7c0ab"/><path d="M210,183.47a3.7,3.7,0,0,1-3.7,3.7h0a3.7,3.7,0,0,1-3.7-3.7h0a3.7,3.7,0,0,1,3.7-3.71h0a3.71,3.71,0,0,1,3.7,3.71Z" style="fill:#f7c0ab"/><path d="M225.15,188.58a2.11,2.11,0,0,0,2.08,2.15H229a2.11,2.11,0,0,0,2.07-2.15s-3.79-11.09-4.94-11.09a3.49,3.49,0,0,0-.94,2.14Z" style="fill:#f7c0ab"/><path d="M215.79,196.14c-8.43,0-9.3-2.58-9.55-5.54,0,0-2.25,7.4-2.25,9.79V203c0,5.14,5.29,9.31,11.8,9.31h11.8V196.14Z" style="fill:#143f59"/><path d="M227.59,190.71h-6.74a5.62,5.62,0,0,0-5.62,5.62,5.46,5.46,0,0,0,.2,1.41h12.16Z" style="fill:#143f59"/><path d="M218.88,196.61v1.88a.94.94,0,0,0,.94.93h5.46a.94.94,0,0,0,.94-.93v-1.88Z" style="fill:#f7c0ab"/><path d="M224.68,163.32H207.4A3.37,3.37,0,0,0,204,166.7v6.74h20.65Z" style="fill:#143f59"/><path d="M235.4,168.36a5.09,5.09,0,0,1-5.09,5.09H218.6a5.09,5.09,0,0,1-5.09-5.09h0a5.09,5.09,0,0,1,5.09-5.09h11.71a5.09,5.09,0,0,1,5.09,5.09Z" style="fill:#143f59"/><rect x="206.04" y="171" width="4.67" height="12.3" style="fill:#143f59"/><rect x="207.49" y="165.72" width="13.75" height="14.48" style="fill:#143f59"/><path d="M210.71,180.39a7,7,0,0,1,6.95-7h3.6c3.84,0,5.9,3.11,5.9,7h0a7,7,0,0,1-7,7h-2.54a7,7,0,0,1-6.95-7Z" style="fill:#f7c0ab"/><path d="M294.87,244.17s-3.31-8-2.13-10.12,6.07-9.75,6.07-9.75l1.44-1.83s2.9.44-.44,5.51-.34,3.48-.34,3.48l4.78-3.46,6.21-3.79,2.54-2s1.35-1.26,1.92-1.29c1.68-.07,1.12,1.22,1.12,1.22l-9.18,8.71,10.67-5.76s1.49-.52,2,.11.08.86.08.86l-10.54,9.32,5.85-2.36s1.47-.47,2,.12a9.62,9.62,0,0,0,.79.79l-21.48,12Z" style="fill:#f7c0ab"/><path d="M308.55,232.33l7.75-3.63a7,7,0,0,1,2.7-1,1.13,1.13,0,0,1,1.24,1l-11.15,6.59Z" style="fill:#f7c0ab"/><path d="M290.57,425.74a4.61,4.61,0,0,1,.08,2.16s-6.31,1-8.33.42a9.33,9.33,0,0,1-2.24-1.41c-.14-.11-.38-.77-.52-.87s-.39.14-.6,0a7.8,7.8,0,0,1-1-.9c-.51-3.93.24-5.53.24-5.53s5.39-2.5,6.38-.82C286.94,422.71,289.79,424.45,290.57,425.74Z" style="fill:#1d1d1b"/><path d="M315.8,424.38a4.57,4.57,0,0,1,.07,2.16s-6.31,1-8.33.41a9.5,9.5,0,0,1-2.23-1.41c-.14-.11-.39-.76-.52-.87s-.39.14-.61,0a9.88,9.88,0,0,1-.95-.89c-.51-3.94.24-5.53.24-5.53s5.38-2.5,6.37-.82C312.17,421.34,315,423.08,315.8,424.38Z" style="fill:#1d1d1b"/><path d="M264.21,285.79l0-.07,0-2h82.92v2a.16.16,0,0,1,0,.07l-.21.37c-1.07,1.74-3,2-5.17,2H269.59c-2.19,0-4.1-.31-5.17-2Z" style="fill:#b1bdc5"/><path d="M284.19,286.13s0,0,0,.05l-.2.3a3.38,3.38,0,0,1-1.21,1H270.17c-2.11,0-3.95-.25-5-1.65l-.2-.31,0-.05,0-1h19.21Z" style="fill:#d3e0e9"/><rect x="295.39" y="284.18" width="41.43" height="1.41" style="fill:#8397a2"/><path d="M284.65,283.65,295.4,242.9a2.72,2.72,0,0,1,2.46-2H356a1.45,1.45,0,0,1,1.43,2l-10.75,40.75Z" style="fill:#d5dde0"/><path d="M316.41,262.3c-.72,2.71.9,4.92,3.61,4.92a6.85,6.85,0,0,0,6.21-4.92c.72-2.71-.9-4.92-3.61-4.92A6.84,6.84,0,0,0,316.41,262.3Z" style="fill:#b1bdc5"/><polygon points="409.44 428.18 417.92 428.18 403.92 292.56 391.61 292.56 409.44 428.18" style="fill:#cbcbcb"/><polygon points="392.43 298.81 397.83 339.88 404.24 295.62 403.92 292.56 393.16 292.56 392.43 298.81" style="fill:#b2b2b2"/><polygon points="320.33 428.18 311.84 428.18 325.84 292.56 338.15 292.56 320.33 428.18" style="fill:#cbcbcb"/><polygon points="337.33 298.81 320.86 340.66 325.53 295.62 325.84 292.56 336.6 292.56 337.33 298.81" style="fill:#b2b2b2"/><polygon points="243.83 428.18 252.31 428.18 238.31 292.56 226.01 292.56 243.83 428.18" style="fill:#cbcbcb"/><polygon points="226.83 298.81 232.22 339.88 238.63 295.62 238.31 292.56 227.56 292.56 226.83 298.81" style="fill:#b2b2b2"/><polygon points="154.72 428.18 146.23 428.18 160.24 292.56 172.54 292.56 154.72 428.18" style="fill:#cbcbcb"/><polygon points="171.72 298.81 155.25 340.66 159.92 295.62 160.24 292.56 170.99 292.56 171.72 298.81" style="fill:#b2b2b2"/><rect x="148.36" y="288.15" width="270.08" height="7.93" style="fill:#e5e5e5"/><rect x="245.95" y="288.15" width="172.48" height="7.93" style="fill:#b2b2b2"/><path d="M534.65,199.31c-10.42,4-45-4.08-45-4.08s-12-6.59,35.14-4.29C538.93,191.63,537.23,198.33,534.65,199.31Z" style="fill:#f7c0ab"/><path d="M510.56,190.13l26.82-2.94s25.42-21.53,30-19c5.43,3,14.4,15.32,14.4,15.32L542,202.32l-26.82,4Z" style="fill:#1d5d87"/><path d="M474,193.53s.08-1.08-.76-1.19c-1.38-.2-4.07.59-5,.91s-5.74,2.85-5.74,2.85a6.24,6.24,0,0,0,3.82-.58C469,194.05,474,193.53,474,193.53Z" style="fill:#e0c39a"/><path d="M473.23,193.7c-2-.18-4,1.07-5.9,3.09a4.55,4.55,0,0,1-3.55,1.71,31.74,31.74,0,0,1,4.25-4.05,9.68,9.68,0,0,1,3-1.89C474.33,191.42,478.37,194.16,473.23,193.7Z" style="fill:#e0c39a"/><path d="M471.21,194.52l.19-1,3-1.76s6.2-.74,8.63-.18,11.91-.83,13.09-.68,3.1,5.32,3.1,5.32-9.86-.94-13.81-1-9.58,1.85-11.12,1.88c-2.64.08-4,.26-4,.26s.15-1.42,4.29-1.77c1.08-.09.4-1.26.4-1.26Z" style="fill:#f7c0ab"/><path d="M475.15,192.73s-3.19.19-4.43,1.2c-.87.7-4.42,4.66-4.42,4.66a6.21,6.21,0,0,0,3.39-1.87A21.23,21.23,0,0,1,475.15,192.73Z" style="fill:#f7c0ab"/><path d="M537.55,419l-4.73,25.68-16.3,4.2-8.66.27s15.87-6.82,19-10.33c4.75-5.31,3.42-26.39,3.42-26.39Z" style="fill:#f7c0ab"/><path d="M533.08,448.87l-3.42.27-1.83-2.37L513.38,451l-9.2.73a7.83,7.83,0,0,1,1.24-1.91c1.68-1.36,8.35-3.87,8.35-3.87s-.13,2.1.91,2.36,11-2.49,13.41-3.42c4.07-1.58,5-2.85,5.25-2.62C534,442.9,533.08,448.87,533.08,448.87Z" style="fill:#161713"/><path d="M545.52,253.79l-8.34,86.07-9.48,82.36,12.57,1.56s15.57-82.7,17.3-89.84,19.28-64.21,13-79.27S545.52,253.79,545.52,253.79Z" style="fill:#4d4d4d"/><path d="M567.05,184.6A18.92,18.92,0,1,0,586,166.08,18.71,18.71,0,0,0,567.05,184.6Z" style="fill:#e06035"/><path d="M553.14,146.74a13.62,13.62,0,0,0,13.62,13.62l3.41-6.47a13.62,13.62,0,0,0,13.62-13.63v-5.1a13.62,13.62,0,0,0-13.62-13.62h-3.41a13.62,13.62,0,0,0-13.62,13.62Z" style="fill:#e06035"/><path d="M583.79,140.26v-5.1a13.62,13.62,0,0,0-13.62-13.62h-3.41a13.5,13.5,0,0,0-8.26,2.81,30.61,30.61,0,0,0,.71,9.29c2.28,9.93,8.93,17.31,16.32,19.15A13.61,13.61,0,0,0,583.79,140.26Z" style="fill:#e06035"/><path d="M567.27,160a18.12,18.12,0,1,0,18.12-17.73A17.94,17.94,0,0,0,567.27,160Z" style="fill:#e06035"/><path d="M564,183.62a18.67,18.67,0,1,0,18.67-18.28A18.48,18.48,0,0,0,564,183.62Z" style="fill:#da4919"/><path d="M585.69,149.83c-6.73-4.56-14.56-4.76-17.49-.44s.17,11.51,6.9,16.07,14.57,4.77,17.49.45S592.42,154.4,585.69,149.83Z" style="fill:#da4919"/><path d="M558.59,126.71a26.91,26.91,0,0,0,.33,3.84c1.37,8.74,6.69,15.39,12.5,16.21a41.43,41.43,0,0,0,1.93,10.54c1.08,3.45,5.12,7.1,5.12,7.1,1,6.11-19.8,15.07-19.31,14.09s5.61-8.18,7.29-14.78a13.4,13.4,0,0,0-2.09-11,11.11,11.11,0,0,0-8-3.77,1.59,1.59,0,0,1-1.15-.5,9.92,9.92,0,0,1-.42-2.85V134.35A9.6,9.6,0,0,1,558.59,126.71Z" style="fill:#f7c0ab"/><path d="M553.25,252.84l-9.75,2.5s7.38-28.77,9.16-39.6,1.58-14.39,1-17.74-2.16-7.29,0-11,5.55-10,6.9-10.44a16.77,16.77,0,0,0,6.31-3.55C567.82,172,553.25,252.84,553.25,252.84Z" style="fill:#e6d923"/><path d="M582.94,416.69,581.63,444l-16.3,4.2-8.67.26s15.43-6.41,17.85-10.43c3.23-5.34,0-23.35,0-23.35Z" style="fill:#f7c0ab"/><path d="M581.89,448.22l-3.42.26-1.84-2.36-13.07,3.68-11.1.52a2,2,0,0,1,.46-1.24c1.64-1.45,9.79-3.88,9.79-3.88s-.33,2.49.72,2.76,11.1-2.76,13.47-3.68c4.06-1.59,5-2.85,5.25-2.63C582.81,442.24,581.89,448.22,581.89,448.22Z" style="fill:#161713"/><path d="M584.78,255l-2.36,75.29s3.12,20.41,3.38,27.22c.57,15.32-.09,61.3-.09,61.3l-13.61.56S562.51,336.2,561.27,329s-15.15-65.1-7.11-79.51S584.78,255,584.78,255Z" style="fill:#666"/><path d="M548.83,257.11s6.78-29.09,8.89-42.23,7.88-38.1,8.4-41.25a39.27,39.27,0,0,1,2.37-7.36s5-3.68,9.46-2.89,8.14,10.77,10,20.5S576.37,220.66,576.37,223s9.46,22.33,9.46,28.12v6.57S560.39,249.49,548.83,257.11Z" style="fill:#e5e5e5"/><polygon points="577.29 159.57 573.48 161.94 568.03 165.68 569.07 171.47 579.26 162.33 577.29 159.57" style="fill:#1d5d87"/><path d="M600.34,223.52s-8.54,11.39-13,10.94a35.63,35.63,0,0,1-4.37-.76c-3.05-.59-3.65-.55-6.07-.88a22.7,22.7,0,0,0-2.73-.3s0,1.38.92,1.74,2.89.59,3.58.89-1.74-.19-5.39.1a50.89,50.89,0,0,0-8.7,1.48c-1,.27-1.09.32-1.09.37,0,.45,0,.86.48.94s1.77,0,1.69,0a17.28,17.28,0,0,1-2.86,1.07c-.39.1-.93.22-1.26.33-.68.23-.36,1.05.8,1.37,0,0,.28.58.63.7l.49.16c.21.06.45.06.66.12a14.65,14.65,0,0,0,2.33.32,24,24,0,0,1,3,0,9.39,9.39,0,0,0-2.11.66c.09.36.5.81.88.78.69-.06,1.74-.13,4.59-.49,3.16-.4,3.81-.73,7.85-.23,3.53.43,3.18,1.15,5.68.19,3.35-1.29,15.54-10.74,17.81-12.22S600.34,223.52,600.34,223.52Z" style="fill:#f7c0ab"/><path d="M604.88,214.56,577.49,184.8S574.17,177,574.34,173c.19-4.73,5.84-8.28,5.84-8.28s12.48,11.24,27.26,27.4,22.86,23.25,14.78,29.56S601.33,236,601.33,236l-4.92-12.62Z" style="fill:#1d5d87"/><path d="M460.29,461.15c-.6-.72-.17-2.62-.17-2.62s10.43-1.16,13.78-.37a17.54,17.54,0,0,1,3.72,1.75c.24.14.65.94.88,1.07.42.25.64-.17,1,0a14.1,14.1,0,0,1,1.59,1.1c.91,4.78-.3,6.71-.3,6.71s-8.58,2.67-10.54.9C465.28,465.24,461.59,462.73,460.29,461.15Z" style="fill:#161713"/><path d="M427.32,465.1l-1.49,7.76h-7.92s-.44-1.1-1.1-1.1-1.3,1.1-2.06,1.1H394.61s-.36-1.63.08-2.19a7.69,7.69,0,0,1,2.43-1c4.09-1.15,15.79-4.74,17.83-8.65C417.42,456.23,427.32,465.1,427.32,465.1Z" style="fill:#161713"/><path d="M421,203.4l-1.9-9.41s-6.68.52-8-3.08c-2.62-7.22-.43-18.75,1.15-22,4.51-9.2,6.42-25.31,27.49-12.5,8,4.87-4.36,28.5-5.29,33.62s1.82,11,1.82,11l-4.93,3.69Z" style="fill:#463b34"/><path d="M458.49,292.44l.7,29.67s11.18-12.33,12.26-26.36S459.2,291.34,458.49,292.44Z" style="fill:#463b34"/><path d="M445.94,353.57s-3.09,1.35,6,44.47c6.55,31.06,12.14,53.78,14.76,64.06,1,4,2.15,3.28,2.15,3.28l8.66,1,4.12-3.57L469.26,392.4Z" style="fill:#143f59"/><path d="M389.27,273.12l17.72,34s-33.83-24.46-31.7-37.93S389.27,273.12,389.27,273.12Z" style="fill:#463b34"/><path d="M458.69,212.57s7.18,4.4,12.36,40.09S472.92,287,472.92,287l-.94,8.13-13.43,1.45-7.26-30.82Z" style="fill:#358cc4"/><path d="M425.67,305.27s19.83,82.12,35.4,118.93c9.12,21.56,9.21-19.83,9.21-19.83L456.1,285.13l-41.39-2S419.41,284.57,425.67,305.27Z" style="fill:#143f59"/><path d="M440.11,283.36s-15,106.31-16.55,111.1c-5.34,16.23-13.55-5-15.43-10.45s-5-45.46-4.39-74.68l.62-29.22Z" style="fill:#143f59"/><path d="M425.06,367.88s2.26,12.67,4.15,28.87c1.39,11.9,1.42,45.87-.77,69.48-.14,1.44-15.14-3-15.14-3s-5.48-66-6.73-80.84S415.65,357.31,425.06,367.88Z" style="fill:#143f59"/><path d="M459.13,212.64l-17.7-8L436.55,200l-18.81-.45-3.3,5.43-14.58,6.32s-3.6,5.65-.47,26.65c3.47,23.27,4.2,58.44,4.2,58.44L458.73,299S454,223.93,459.13,212.64Z" style="fill:#3697d3"/><path d="M404.55,211.33s-3.28-3.66-11.27,6.28c-13.63,16.94-20.23,37.95-21.64,42s-3.22,9.82,2.35,16.58c4.27,5.17,5.65,6.91,5.65,6.91l12.23-7.62-1.93-3.66L388.57,270s6.59-14.46,13.64-27.56S404.55,211.33,404.55,211.33Z" style="fill:#3697d3"/><path d="M418.24,171.63s2.39-1.46,2.75.37-.91,5.86-2,6.23,5.67,10.8,5.67,10.8h10.11a18.21,18.21,0,0,0,3.23-5.49c1.16-3.33,7.21-24.68,6.27-26.38s-10.44-5.49-10.44-5.49-5.39-3.22-9.34-3.85c-3-.49-7.15,1.46-7,3.11s-3.12,11.73-2.75,15.76C414.93,168.51,415.69,174.56,418.24,171.63Z"/><path d="M71.15,393.77S64.86,371.33,55,363.7s-17.05-18.4-30.07-23.34S8.76,326.45,13.7,323.31s21.09-12.12,40.84,8.52,24.69,36.81,24.24,56.1S72.05,405,71.15,393.77Z" style="fill:#f5f0a7"/><path d="M20.88,326.75s19.75,5.83,28.73,12.56,25.58,25.58,26.48,44" style="fill:#f5f0a7;stroke:#acbbda;stroke-miterlimit:10"/><path d="M76.53,401s10.18-28.72,14.37-37.7,3.59-30.52-3-38.9-17.35-20.94-12.56-39.49,2.39-29.92-6.59-22.74-24.74,23-25.13,48.47c-.3,19.45,5.44,30.83,16.16,44.88C68.46,366.84,77.13,387.78,76.53,401Z" style="fill:#94c01f"/><path d="M80.56,394.23c.22-1.18,5.37-29.14-.07-40.93-1.24-2.7-2.91-6-4.68-9.44C70,332.48,62.09,316.89,61.27,306,60,288.59,70.89,271.76,71,271.59l-1.5-1c-.46.71-11.37,17.52-10,35.57.84,11.21,8.54,26.34,14.73,38.5,1.76,3.45,3.42,6.71,4.65,9.38,5.2,11.28,0,39.57-.07,39.85Z" style="fill:#112c42"/><path d="M116.48,358.31c11.67-2.24,12.56-15.7,3.59-18.4s-23.79-2.24-31,7.18c-8.33,10.93-11.67,30.52-9,44.43s0-5.38,5.84-14.81S106.85,360.16,116.48,358.31Z" style="fill:#d4e6a5"/><path d="M121.86,347.39s-16.15-3.14-27.37,7.63c-9.72,9.33-13.92,20.94-15.71,32.91" style="fill:#d4e6a5;stroke:#3a3a66;stroke-miterlimit:10"/><polygon points="57.23 428.18 89.55 428.18 94.94 376.12 51.85 376.12 57.23 428.18" style="fill:#112c42"/></g></svg>